<svg width="14" height="14" viewBox="0 0 14 14" fill="none" xmlns="http://www.w3.org/2000/svg">
<g clip-path="url(#clip0_2978_33528)">
<path d="M2.33327 11.666V8.16602C2.33327 6.92834 2.82494 5.74135 3.70011 4.86618C4.57528 3.99101 5.76226 3.49935 6.99994 3.49935C8.23762 3.49935 9.4246 3.99101 10.2998 4.86618C11.1749 5.74135 11.6666 6.92834 11.6666 8.16602V11.666H12.2499V12.8327H1.74994V11.666H2.33327ZM3.49994 8.16602H4.66661C4.66661 7.54718 4.91244 6.95368 5.35002 6.5161C5.78761 6.07852 6.3811 5.83268 6.99994 5.83268V4.66602C6.07168 4.66602 5.18144 5.03476 4.52507 5.69114C3.86869 6.34752 3.49994 7.23776 3.49994 8.16602V8.16602ZM6.41661 1.16602H7.58327V2.91602H6.41661V1.16602ZM11.5371 2.80402L12.3619 3.62885L11.1253 4.8661L10.2999 4.04127L11.5371 2.80402ZM1.63794 3.62885L2.46277 2.80402L3.70002 4.04068L2.87577 4.86668L1.63794 3.62885Z" fill="#D90000"/>
</g>
<defs>
<clipPath id="clip0_2978_33528">
<rect width="14" height="14" fill="white"/>
</clipPath>
</defs>
</svg>
