<svg width="16" height="17" viewBox="0 0 16 17" fill="none" xmlns="http://www.w3.org/2000/svg">
<g clip-path="url(#clip0_474_1817)">
<path d="M9.99981 12.8125C9.99981 13.917 9.10438 14.8125 7.99981 14.8125C6.89524 14.8125 5.99981 13.917 5.99981 12.8125M9.19748 4.30483C9.48781 4.00489 9.66648 3.5962 9.66648 3.14579C9.66648 2.22532 8.92029 1.47913 7.99981 1.47913C7.07934 1.47913 6.33315 2.22532 6.33315 3.14579C6.33315 3.5962 6.51182 4.00489 6.80214 4.30483M11.9998 7.61246C11.9998 6.69304 11.5784 5.81128 10.8282 5.16116C10.0781 4.51103 9.06068 4.14579 7.99981 4.14579C6.93895 4.14579 5.92153 4.51103 5.17139 5.16116C4.42124 5.81128 3.99981 6.69304 3.99981 7.61246C3.99981 9.13366 3.62257 10.2462 3.15186 11.0422C2.61537 11.9495 2.34713 12.4032 2.35772 12.5116C2.36984 12.6355 2.39216 12.6747 2.49271 12.7482C2.58059 12.8125 3.02215 12.8125 3.90527 12.8125H12.0944C12.9775 12.8125 13.419 12.8125 13.5069 12.7482C13.6075 12.6747 13.6298 12.6355 13.6419 12.5116C13.6525 12.4032 13.3843 11.9495 12.8478 11.0422C12.3771 10.2462 11.9998 9.13366 11.9998 7.61246Z" stroke="#0D4D97" stroke-width="1.2" stroke-linecap="round" stroke-linejoin="round"/>
</g>
<defs>
<clipPath id="clip0_474_1817">
<rect width="16" height="16" fill="white" transform="translate(0 0.145752)"/>
</clipPath>
</defs>
</svg>
