<svg width="28" height="29" viewBox="0 0 28 29" fill="none" xmlns="http://www.w3.org/2000/svg">
<path fill-rule="evenodd" clip-rule="evenodd" d="M14 3.61533C16.4162 3.61533 18.375 5.59935 18.375 8.04677C18.375 10.4942 16.4162 12.4782 14 12.4782C11.5838 12.4782 9.625 10.4942 9.625 8.04677C9.625 5.59935 11.5838 3.61533 14 3.61533ZM14 1.84277C10.6173 1.84277 7.875 4.6204 7.875 8.04678C7.875 11.4732 10.6173 14.2508 14 14.2508C17.3827 14.2508 20.125 11.4732 20.125 8.04678C20.125 4.6204 17.3827 1.84277 14 1.84277ZM22.75 26.6587H21V22.2272C21 21.052 20.5391 19.9248 19.7186 19.0938C18.8981 18.2627 17.7853 17.7958 16.625 17.7958H11.375C8.95875 17.7958 7 19.7798 7 22.2272V26.6587H5.25V22.2272C5.25 18.8009 7.99226 16.0232 11.375 16.0232H16.625C20.0077 16.0232 22.75 18.8009 22.75 22.2272V26.6587Z" fill="#BBBBBB"/>
</svg>
