<svg width="28" height="28" viewBox="0 0 28 28" fill="none" xmlns="http://www.w3.org/2000/svg">
<path d="M16.9511 2.50305C17.7275 2.50305 18.449 2.90334 18.86 3.56206L20.3811 6H22.75C24.5449 6 26 7.45508 26 9.25V21.75C26 23.5449 24.5449 25 22.75 25H5.25C3.45507 25 2 23.5449 2 21.75V9.25C2 7.45508 3.45507 6 5.25 6H7.81851L9.20109 3.62211C9.6039 2.92931 10.3448 2.50305 11.1462 2.50305H16.9511ZM16.9511 4.00305H11.1462C10.9172 4.00305 10.7031 4.10744 10.562 4.28269L10.4978 4.37607L8.89837 7.12698C8.7641 7.35792 8.51713 7.5 8.25 7.5H5.25C4.2835 7.5 3.5 8.28351 3.5 9.25V21.75C3.5 22.7165 4.2835 23.5 5.25 23.5H22.75C23.7165 23.5 24.5 22.7165 24.5 21.75V9.25C24.5 8.28351 23.7165 7.5 22.75 7.5H19.965C19.7062 7.5 19.4657 7.36657 19.3287 7.147L17.5874 4.35605C17.4504 4.13648 17.2099 4.00305 16.9511 4.00305ZM14 9.50099C17.0376 9.50099 19.5 11.9634 19.5 15.001C19.5 18.0386 17.0376 20.501 14 20.501C10.9624 20.501 8.5 18.0386 8.5 15.001C8.5 11.9634 10.9624 9.50099 14 9.50099ZM14 11.001C11.7909 11.001 10 12.7919 10 15.001C10 17.2101 11.7909 19.001 14 19.001C16.2091 19.001 18 17.2101 18 15.001C18 12.7919 16.2091 11.001 14 11.001Z" fill="#2177E4" fill-opacity="0.3"/>
</svg>
