<svg width="32" height="32" viewBox="0 0 32 32" fill="none" xmlns="http://www.w3.org/2000/svg">
<path d="M18.6667 14.6665H10.6667M13.3333 19.9998H10.6667M21.3333 9.33317H10.6667M26.6667 15.9998V9.0665C26.6667 6.82629 26.6667 5.70619 26.2307 4.85054C25.8472 4.09789 25.2353 3.48597 24.4826 3.10248C23.627 2.6665 22.5069 2.6665 20.2667 2.6665H11.7333C9.49313 2.6665 8.37302 2.6665 7.51737 3.10248C6.76473 3.48597 6.1528 4.09789 5.76931 4.85054C5.33334 5.70619 5.33334 6.82629 5.33334 9.0665V22.9332C5.33334 25.1734 5.33334 26.2935 5.76931 27.1491C6.1528 27.9018 6.76473 28.5137 7.51737 28.8972C8.37302 29.3332 9.49313 29.3332 11.7333 29.3332H16M21.3333 21.3332L28 27.9998M28 21.3332L21.3333 27.9998" stroke="#9F9F9F" stroke-width="2" stroke-linecap="round" stroke-linejoin="round"/>
</svg>
