<svg width="14" height="14" viewBox="0 0 14 14" fill="none" xmlns="http://www.w3.org/2000/svg">
<g clip-path="url(#clip0_1013_21860)">
<path d="M2.33333 1.16797H11.6667C11.8214 1.16797 11.9697 1.22943 12.0791 1.33882C12.1885 1.44822 12.25 1.59659 12.25 1.7513V12.9956C12.25 13.0443 12.2379 13.0922 12.2147 13.135C12.1915 13.1778 12.158 13.2141 12.1171 13.2406C12.0763 13.2671 12.0295 13.2829 11.981 13.2867C11.9325 13.2905 11.8838 13.2821 11.8393 13.2622L7 11.1021L2.16067 13.2616C2.11628 13.2815 2.06763 13.2899 2.01916 13.2861C1.97068 13.2824 1.92391 13.2666 1.8831 13.2401C1.84229 13.2137 1.80874 13.1775 1.7855 13.1348C1.76225 13.0921 1.75005 13.0443 1.75 12.9956V1.7513C1.75 1.59659 1.81146 1.44822 1.92085 1.33882C2.03025 1.22943 2.17862 1.16797 2.33333 1.16797ZM7 7.8763L8.71442 8.77755L8.38717 6.86889L9.77375 5.51672L7.85692 5.23789L7 3.5013L6.1425 5.23789L4.22625 5.51672L5.61283 6.86889L5.28617 8.77755L7 7.8763Z" fill="#BEBEBE"/>
</g>
<defs>
<clipPath id="clip0_1013_21860">
<rect width="14" height="14" fill="white"/>
</clipPath>
</defs>
</svg>
