<svg width="14" height="14" viewBox="0 0 14 14" fill="none" xmlns="http://www.w3.org/2000/svg">
<g clip-path="url(#clip0_2692_33247)">
<path d="M1.16667 5.24909H2.91667V12.2491H1.16667C1.01196 12.2491 0.863586 12.1876 0.75419 12.0782C0.644794 11.9688 0.583336 11.8205 0.583336 11.6658V5.83242C0.583336 5.67771 0.644794 5.52934 0.75419 5.41994C0.863586 5.31055 1.01196 5.24909 1.16667 5.24909V5.24909ZM4.25425 4.49484L7.98759 0.761505C8.0372 0.711743 8.10312 0.681569 8.17321 0.676532C8.24331 0.671495 8.31286 0.691933 8.36909 0.734088L8.86667 1.10742C9.00486 1.21116 9.10924 1.3535 9.16665 1.51649C9.22406 1.67947 9.23192 1.85581 9.18925 2.02326L8.51667 4.66576H12.25C12.5594 4.66576 12.8562 4.78867 13.075 5.00746C13.2938 5.22626 13.4167 5.523 13.4167 5.83242V7.05976C13.4168 7.21222 13.3871 7.36323 13.3292 7.50426L11.5238 11.888C11.4797 11.9949 11.4049 12.0863 11.3088 12.1506C11.2128 12.2148 11.0998 12.2491 10.9842 12.2491H4.66667C4.51196 12.2491 4.36359 12.1876 4.25419 12.0782C4.14479 11.9688 4.08334 11.8205 4.08334 11.6658V4.90725C4.08337 4.75256 4.14485 4.60421 4.25425 4.49484Z" fill="#0D4D97"/>
</g>
<defs>
<clipPath id="clip0_2692_33247">
<rect width="14" height="14" fill="white"/>
</clipPath>
</defs>
</svg>
