<svg width="20" height="20" viewBox="0 0 20 20" fill="none" xmlns="http://www.w3.org/2000/svg">
<g clip-path="url(#clip0_1308_31509)">
<path d="M4.16686 11.668H15.1133C15.9573 11.668 16.3793 11.668 16.7153 11.5106C17.0112 11.372 17.2599 11.1494 17.4304 10.8706C17.6238 10.5541 17.6705 10.1346 17.7637 9.29579L18.2512 4.90826C18.2796 4.65204 18.2939 4.52393 18.2527 4.42477C18.2165 4.33768 18.1518 4.26544 18.0693 4.21987C17.9753 4.16797 17.8464 4.16797 17.5886 4.16797H3.7502M1.66675 1.66797H2.70711C2.92763 1.66797 3.03789 1.66797 3.12415 1.70991C3.2001 1.74683 3.26303 1.80595 3.30461 1.87944C3.35185 1.96292 3.35873 2.07296 3.37248 2.29305L4.12768 14.3762C4.14144 14.5963 4.14831 14.7064 4.19555 14.7898C4.23713 14.8633 4.30007 14.9224 4.37601 14.9594C4.46227 15.0013 4.57253 15.0013 4.79305 15.0013H15.8334M6.25008 17.918H6.25842M13.7501 17.918H13.7584M6.66675 17.918C6.66675 18.1481 6.4802 18.3346 6.25008 18.3346C6.01996 18.3346 5.83341 18.1481 5.83341 17.918C5.83341 17.6879 6.01996 17.5013 6.25008 17.5013C6.4802 17.5013 6.66675 17.6879 6.66675 17.918ZM14.1667 17.918C14.1667 18.1481 13.9802 18.3346 13.7501 18.3346C13.52 18.3346 13.3334 18.1481 13.3334 17.918C13.3334 17.6879 13.52 17.5013 13.7501 17.5013C13.9802 17.5013 14.1667 17.6879 14.1667 17.918Z" stroke="#0D4D97" stroke-width="2" stroke-linecap="round" stroke-linejoin="round"/>
</g>
<defs>
<clipPath id="clip0_1308_31509">
<rect width="20" height="20" fill="white"/>
</clipPath>
</defs>
</svg>
