<svg width="20" height="20" viewBox="0 0 20 20" fill="none" xmlns="http://www.w3.org/2000/svg">
<circle cx="10" cy="10" r="9.4" stroke="black" stroke-width="1.2"/>
<path d="M7.248 15H8.769V11.373H10.212C12.292 11.373 13.813 10.424 13.813 8.331C13.813 6.16 12.292 5.432 10.16 5.432H7.248V15ZM8.769 10.164V6.654H10.004C11.538 6.654 12.318 7.057 12.318 8.331C12.318 9.579 11.59 10.164 10.069 10.164H8.769Z" fill="black"/>
<circle cx="10" cy="10" r="9.4" stroke="black" stroke-width="1.2"/>
<path d="M7.248 15H8.769V11.373H10.212C12.292 11.373 13.813 10.424 13.813 8.331C13.813 6.16 12.292 5.432 10.16 5.432H7.248V15ZM8.769 10.164V6.654H10.004C11.538 6.654 12.318 7.057 12.318 8.331C12.318 9.579 11.59 10.164 10.069 10.164H8.769Z" fill="black"/>
</svg>
