<svg width="27" height="24" viewBox="0 0 27 24" fill="none" xmlns="http://www.w3.org/2000/svg">
<path fill-rule="evenodd" clip-rule="evenodd" d="M13.6588 0.283678C13.3407 0.0291386 12.8918 0.0291386 12.5737 0.283678L0 10.219L1.085 11.6193L2.625 10.3962V21.3684C2.625 22.3474 3.4085 23.141 4.375 23.141H21.875C22.8415 23.141 23.625 22.3474 23.625 21.3684V10.4051L25.165 11.6193L26.25 10.2278L13.6588 0.283678ZM14.875 21.3684H11.375V14.2781H14.875V21.3684ZM16.625 21.3684V14.2781C16.625 13.2992 15.8415 12.5056 14.875 12.5056H11.375C10.4085 12.5056 9.625 13.2992 9.625 14.2781V21.3684H4.375V9.0136L13.125 2.10943L21.875 9.02246V21.3684H16.625Z" fill="#0D4D97"/>
</svg>
