<svg width="16" height="16" viewBox="0 0 16 16" fill="none" xmlns="http://www.w3.org/2000/svg">
<path d="M2.66674 13.3334V9.33337C2.66674 7.91889 3.22864 6.56233 4.22883 5.56214C5.22903 4.56194 6.58558 4.00004 8.00007 4.00004C9.41456 4.00004 10.7711 4.56194 11.7713 5.56214C12.7715 6.56233 13.3334 7.91889 13.3334 9.33337V13.3334H14.0001V14.6667H2.00007V13.3334H2.66674ZM4.00007 9.33337H5.3334C5.3334 8.62613 5.61436 7.94785 6.11445 7.44776C6.61455 6.94766 7.29283 6.66671 8.00007 6.66671V5.33337C6.9392 5.33337 5.92179 5.7548 5.17164 6.50495C4.4215 7.25509 4.00007 8.27251 4.00007 9.33337V9.33337ZM7.3334 1.33337H8.66674V3.33337H7.3334V1.33337ZM13.1854 3.20537L14.1281 4.14804L12.7147 5.56204L11.7714 4.61937L13.1854 3.20537ZM1.87207 4.14804L2.81474 3.20537L4.22874 4.61871L3.28674 5.56271L1.87207 4.14804Z" fill="#222222"/>
</svg>
