<svg width="20" height="20" viewBox="0 0 20 20" fill="none" xmlns="http://www.w3.org/2000/svg">
<path fill-rule="evenodd" clip-rule="evenodd" d="M16.25 6.87344H12.5V3.74844C12.6311 2.49891 11.7245 1.37964 10.475 1.24844C10.3172 1.22969 10.1578 1.22969 10 1.24844H9.01875C8.58907 1.26021 8.22162 1.56085 8.125 1.97969V2.05469L7.5 6.01719L5.2875 9.37344H1.25V18.1234H13.125C17.775 18.1234 18.75 15.4047 18.75 13.1234V9.37344C18.8811 8.12391 17.9745 7.00464 16.725 6.87344C16.5672 6.85469 16.4078 6.85469 16.25 6.87344ZM5 16.8734H2.5V10.6234H5V16.8734ZM17.5 13.1234C17.5 15.6797 16.1125 16.8734 13.125 16.8734H6.25V10.1859L8.75 6.47969L9.20625 3.12344L9.29375 2.49844H10C10.9 2.49844 11.25 2.84844 11.25 3.74844V8.12344H16.25C17.15 8.12344 17.5 8.47344 17.5 9.37344V13.1234Z" fill="black"/>
</svg>
