<svg width="16" height="16" viewBox="0 0 16 16" fill="none" xmlns="http://www.w3.org/2000/svg">
<path d="M6.00004 0.667969V2.0013H10V0.667969H11.3334V2.0013H14C14.1769 2.0013 14.3464 2.07154 14.4714 2.19656C14.5965 2.32159 14.6667 2.49116 14.6667 2.66797V13.3346C14.6667 13.5114 14.5965 13.681 14.4714 13.806C14.3464 13.9311 14.1769 14.0013 14 14.0013H2.00004C1.82323 14.0013 1.65366 13.9311 1.52864 13.806C1.40361 13.681 1.33337 13.5114 1.33337 13.3346V2.66797C1.33337 2.49116 1.40361 2.32159 1.52864 2.19656C1.65366 2.07154 1.82323 2.0013 2.00004 2.0013H4.66671V0.667969H6.00004ZM13.3334 5.33464H2.66671V12.668H13.3334V5.33464ZM10.024 6.75864L10.9667 7.7013L7.66671 11.0013L5.30937 8.64397L6.25337 7.7013L7.66737 9.11597L10.0247 6.75864H10.024Z" fill="#222222"/>
</svg>
