<svg width="20" height="20" viewBox="0 0 20 20" fill="none" xmlns="http://www.w3.org/2000/svg">
<path d="M17.5002 17.5001H10.8335M2.0835 17.9167L6.70789 16.1381C7.00367 16.0243 7.15156 15.9675 7.28993 15.8932C7.41283 15.8272 7.53 15.7511 7.6402 15.6656C7.76426 15.5693 7.87631 15.4572 8.1004 15.2332L17.5002 5.83338C18.4207 4.91291 18.4207 3.42052 17.5002 2.50005C16.5797 1.57957 15.0873 1.57957 14.1669 2.50005L4.76706 11.8998C4.54298 12.1239 4.43093 12.2359 4.33466 12.36C4.24914 12.4702 4.173 12.5874 4.10702 12.7103C4.03275 12.8487 3.97587 12.9965 3.86211 13.2923L2.0835 17.9167ZM2.0835 17.9167L3.7986 13.4575C3.92133 13.1384 3.98269 12.9789 4.08795 12.9058C4.17993 12.8419 4.29375 12.8178 4.40374 12.8388C4.52961 12.8628 4.65048 12.9837 4.89223 13.2254L6.77481 15.108C7.01656 15.3498 7.13743 15.4706 7.16147 15.5965C7.18247 15.7065 7.15832 15.8203 7.09445 15.9123C7.02137 16.0175 6.86182 16.0789 6.54272 16.2016L2.0835 17.9167Z" stroke="black" stroke-width="1.5" stroke-linecap="round" stroke-linejoin="round"/>
</svg>
