<svg width="14" height="14" viewBox="0 0 14 14" fill="none" xmlns="http://www.w3.org/2000/svg">
<g clip-path="url(#clip0_400_16204)">
<path d="M1.16666 5.24909H2.91666V12.2491H1.16666C1.01195 12.2491 0.863579 12.1876 0.754183 12.0782C0.644786 11.9688 0.583328 11.8205 0.583328 11.6658V5.83242C0.583328 5.67771 0.644786 5.52934 0.754183 5.41994C0.863579 5.31055 1.01195 5.24909 1.16666 5.24909ZM4.25424 4.49484L7.98758 0.761505C8.0372 0.711743 8.10311 0.681569 8.17321 0.676532C8.2433 0.671495 8.31285 0.691933 8.36908 0.734088L8.86666 1.10742C9.00485 1.21116 9.10924 1.3535 9.16664 1.51649C9.22405 1.67947 9.23192 1.85581 9.18925 2.02325L8.51666 4.66576H12.25C12.5594 4.66576 12.8562 4.78867 13.075 5.00746C13.2937 5.22626 13.4167 5.523 13.4167 5.83242V7.05975C13.4168 7.21222 13.3871 7.36323 13.3292 7.50426L11.5237 11.888C11.4797 11.9949 11.4049 12.0863 11.3088 12.1506C11.2128 12.2148 11.0998 12.2491 10.9842 12.2491H4.66666C4.51195 12.2491 4.36358 12.1876 4.25418 12.0782C4.14479 11.9688 4.08333 11.8205 4.08333 11.6658V4.90725C4.08336 4.75256 4.14484 4.60421 4.25424 4.49484Z" fill="#BEBEBE"/>
</g>
<defs>
<clipPath id="clip0_400_16204">
<rect width="14" height="14" fill="white"/>
</clipPath>
</defs>
</svg>
