<svg width="14" height="14" viewBox="0 0 14 14" fill="none" xmlns="http://www.w3.org/2000/svg">
<g clip-path="url(#clip0_591_17384)">
<path d="M1.16671 5.24909H2.91671V12.2491H1.16671C1.012 12.2491 0.863625 12.1876 0.754228 12.0782C0.644832 11.9688 0.583374 11.8205 0.583374 11.6658V5.83242C0.583374 5.67771 0.644832 5.52934 0.754228 5.41994C0.863625 5.31055 1.012 5.24909 1.16671 5.24909ZM4.25429 4.49484L7.98762 0.761505C8.03724 0.711743 8.10316 0.681569 8.17325 0.676532C8.24334 0.671495 8.3129 0.691933 8.36912 0.734088L8.86671 1.10742C9.0049 1.21116 9.10928 1.3535 9.16669 1.51649C9.2241 1.67947 9.23196 1.85581 9.18929 2.02325L8.51671 4.66576H12.25C12.5595 4.66576 12.8562 4.78867 13.075 5.00746C13.2938 5.22626 13.4167 5.523 13.4167 5.83242V7.05975C13.4169 7.21222 13.3871 7.36323 13.3292 7.50426L11.5238 11.888C11.4797 11.9949 11.4049 12.0863 11.3089 12.1506C11.2128 12.2148 11.0998 12.2491 10.9842 12.2491H4.66671C4.512 12.2491 4.36362 12.1876 4.25423 12.0782C4.14483 11.9688 4.08337 11.8205 4.08337 11.6658V4.90725C4.08341 4.75256 4.14489 4.60421 4.25429 4.49484Z" fill="#BEBEBE"/>
</g>
<defs>
<clipPath id="clip0_591_17384">
<rect width="14" height="14" fill="white"/>
</clipPath>
</defs>
</svg>
