<svg width="20" height="20" viewBox="0 0 20 20" fill="none" xmlns="http://www.w3.org/2000/svg">
<path d="M5.833 11.397C5.44433 11.397 5.11467 11.2616 4.844 10.991C4.57333 10.7196 4.438 10.3896 4.438 10.001C4.438 9.6123 4.57333 9.2823 4.844 9.01097C5.11467 8.7403 5.44433 8.60497 5.833 8.60497C6.22233 8.60497 6.55233 8.7403 6.823 9.01097C7.09367 9.2823 7.229 9.6123 7.229 10.001C7.229 10.3896 7.09367 10.7196 6.823 10.991C6.55233 11.2616 6.22233 11.397 5.833 11.397ZM5.833 14.584C4.55567 14.584 3.47233 14.1396 2.583 13.251C1.69433 12.3623 1.25 11.279 1.25 10.001C1.25 8.72297 1.69433 7.63964 2.583 6.75097C3.47233 5.8623 4.55567 5.41797 5.833 5.41797C6.72233 5.41797 7.53133 5.64364 8.26 6.09497C8.98933 6.5463 9.54867 7.13297 9.938 7.85497H17.354L19.5 10.001L16.292 13.189L14.75 12.022L13.167 13.209L11.583 12.147H9.938C9.53467 12.883 8.972 13.4733 8.25 13.918C7.528 14.362 6.72233 14.584 5.833 14.584ZM5.833 13.251C6.639 13.251 7.32667 13.0183 7.896 12.553C8.46533 12.0876 8.84033 11.5076 9.021 10.813H12.062L13.125 11.605L14.771 10.397L16.188 11.459L17.688 9.95897L16.917 9.18897H9.021C8.84033 8.4943 8.46533 7.9143 7.896 7.44897C7.32667 6.98364 6.639 6.75097 5.833 6.75097C4.94433 6.75097 4.18067 7.0703 3.542 7.70897C2.90267 8.3483 2.583 9.1123 2.583 10.001C2.583 10.9036 2.899 11.671 3.531 12.303C4.163 12.935 4.93033 13.251 5.833 13.251Z" fill="black"/>
</svg>
