<svg width="18" height="18" viewBox="0 0 18 18" fill="none" xmlns="http://www.w3.org/2000/svg">
<path d="M13.5833 4.56217L4.41667 13.7288M6.08333 7.89551V4.56217M4.41667 6.22884H7.75M10.25 12.0622H13.5833M5.5 16.6455H12.5C13.9001 16.6455 14.6002 16.6455 15.135 16.373C15.6054 16.1333 15.9878 15.7509 16.2275 15.2805C16.5 14.7457 16.5 14.0456 16.5 12.6455V5.64551C16.5 4.24538 16.5 3.54531 16.2275 3.01053C15.9878 2.54013 15.6054 2.15767 15.135 1.91799C14.6002 1.64551 13.9001 1.64551 12.5 1.64551H5.5C4.09987 1.64551 3.3998 1.64551 2.86502 1.91799C2.39462 2.15767 2.01217 2.54013 1.77248 3.01053C1.5 3.54531 1.5 4.24538 1.5 5.64551V12.6455C1.5 14.0456 1.5 14.7457 1.77248 15.2805C2.01217 15.7509 2.39462 16.1333 2.86502 16.373C3.3998 16.6455 4.09987 16.6455 5.5 16.6455Z" stroke="white" stroke-width="1.5" stroke-linecap="round" stroke-linejoin="round"/>
</svg>
