<svg width="20" height="20" viewBox="0 0 20 20" fill="none" xmlns="http://www.w3.org/2000/svg">
<g clip-path="url(#clip0_591_23705)">
<path d="M18.7109 20C16.4881 20 14.2606 19.4492 12.0287 18.3476C9.79572 17.2449 7.78818 15.7961 6.00604 14.0011C4.2239 12.205 2.77736 10.1943 1.66642 7.96886C0.555472 5.74344 0 3.51803 0 1.29262C0 0.934815 0.130818 0.629929 0.392453 0.377958C0.655094 0.125986 0.964528 0 1.32075 0H4.5283C4.90566 0 5.21509 0.105324 5.4566 0.315973C5.69711 0.525613 5.84906 0.808829 5.91245 1.16562L6.60377 4.25278C6.66616 4.56724 6.6556 4.85046 6.57208 5.10243C6.48855 5.3544 6.3522 5.56454 6.16302 5.73286L3.42792 8.34681C4.45535 10.1318 5.66591 11.7222 7.05962 13.1181C8.45434 14.5151 10.0845 15.7387 11.9502 16.7889L14.6219 13.9527C14.8533 13.7219 15.0737 13.5752 15.283 13.5127C15.4923 13.4492 15.7439 13.4492 16.0377 13.5127L18.8679 14.1114C19.203 14.1739 19.4757 14.3311 19.686 14.5831C19.8953 14.8351 20 15.1395 20 15.4963V18.6787C20 19.0355 19.8742 19.3449 19.6226 19.6069C19.3711 19.869 19.0672 20 18.7109 20ZM2.7366 7.02396L5.06264 4.8817C5.14616 4.81921 5.19849 4.73556 5.21962 4.63074C5.24076 4.52592 5.24076 4.4211 5.21962 4.31628L4.65359 1.76431C4.61233 1.63832 4.55497 1.54358 4.48151 1.48008C4.40805 1.41759 4.30843 1.38635 4.18264 1.38635H1.76151C1.65686 1.38635 1.57283 1.41759 1.50943 1.48008C1.44604 1.54358 1.41434 1.62774 1.41434 1.73256C1.43547 2.57213 1.56126 3.43337 1.7917 4.31628C2.02314 5.19717 2.33811 6.09973 2.7366 7.02396ZM18.3019 18.6152C18.3854 18.6152 18.4589 18.5834 18.5223 18.5199C18.5847 18.4574 18.6159 18.3738 18.6159 18.269V15.8742C18.6159 15.7482 18.5847 15.6434 18.5223 15.5598C18.4589 15.4761 18.3643 15.4131 18.2385 15.3708L15.9743 14.8991C15.8908 14.8779 15.8123 14.8779 15.7389 14.8991C15.6654 14.9192 15.5869 14.9717 15.5034 15.0563L13.2392 17.4178C14.0986 17.7958 14.9842 18.0739 15.8958 18.2523C16.8075 18.4307 17.6096 18.5517 18.3019 18.6152Z" fill="#0D4D97"/>
</g>
<defs>
<clipPath id="clip0_591_23705">
<rect width="20" height="20" fill="white"/>
</clipPath>
</defs>
</svg>
