<svg width="28" height="36" viewBox="0 0 28 36" fill="none" xmlns="http://www.w3.org/2000/svg">
<g clip-path="url(#clip0_313_12486)">
<path d="M22.17 24.8345L23.08 25.0313L26.03 32.9814C26.12 33.2345 25.91 33.497 25.62 33.4689L21.48 33.0657C21.36 33.0564 21.25 33.0939 21.17 33.1689L18.2 35.897C18 36.0845 17.65 36.0095 17.56 35.7564L14.59 27.7501L15.02 27.1595L22.17 24.8345Z" fill="#FF4755"/>
<path d="M14.59 27.7501L13.99 26.1376L22.49 23.4282L23.09 25.0407C20.67 26.6532 17.75 27.6376 14.59 27.7501Z" fill="#FC2B3A"/>
<path d="M5.80997 24.8345L4.89997 25.0313L1.94997 32.9814C1.85997 33.2345 2.07997 33.497 2.35997 33.4689L6.49997 33.0657C6.61997 33.0564 6.72997 33.0939 6.80997 33.1689L9.77997 35.897C9.97997 36.0845 10.33 36.0095 10.42 35.7564L13.4 27.7501L12.97 27.1595L5.80997 24.8345Z" fill="#FF4755"/>
<path d="M13.4 27.7501L14 26.1376L5.50002 23.4282L4.90002 25.0407C7.32002 26.6532 10.24 27.6376 13.4 27.7501Z" fill="#FC2B3A"/>
<path d="M13.9996 25.2188C0.0795664 25.2188 0.0695667 12.6281 0.0795667 12.4125C0.439567 5.49375 6.53957 0 13.9996 0C21.4596 0 27.5596 5.49375 27.9196 12.4125C27.9296 12.6281 27.9396 25.2188 13.9996 25.2188Z" fill="#FFCB5B"/>
<path d="M14 24.8158C6.54003 24.8158 0.440028 19.3221 0.0800281 12.4033C0.0700281 12.6189 0.0600281 12.8439 0.0600281 13.0596C0.0600281 20.2783 6.30003 26.1283 14 26.1283C21.7 26.1283 27.94 20.2783 27.94 13.0596C27.94 12.8346 27.93 12.6189 27.92 12.4033C27.56 19.3221 21.46 24.8158 14 24.8158Z" fill="#F7B737"/>
<path d="M14.0001 22.4999C3.04007 22.4999 3.03007 12.628 3.04007 12.4124C3.40007 7.03115 8.17007 2.7749 14.0001 2.7749C19.8301 2.7749 24.6001 7.03115 24.9601 12.4124C24.9701 12.628 24.9801 22.4999 14.0001 22.4999Z" fill="#FF9838"/>
<path d="M14 22.0408C8.16999 22.0408 3.39999 17.7846 3.03999 12.4033C3.02999 12.6189 3.01999 12.8439 3.01999 13.0596C3.01999 18.7408 7.93999 23.3533 14 23.3533C20.06 23.3533 24.98 18.7502 24.98 13.0689C24.98 12.8439 24.97 12.6283 24.96 12.4127C24.6 17.7846 19.83 22.0408 14 22.0408Z" fill="#FF8709"/>
<path d="M15.01 8.05332L16.03 10.0033C16.19 10.3127 16.51 10.5283 16.87 10.5752L19.16 10.8846C20.08 11.0064 20.45 12.0658 19.78 12.6752L18.12 14.1939C17.86 14.4377 17.74 14.7846 17.8 15.1221L18.19 17.2596C18.23 17.4658 18.13 17.8221 18.13 17.8221H16.56L14 16.4721L11.43 17.8221L9.88 17.8502C9.88 17.8502 9.77 17.4752 9.81 17.2596L10.2 15.1221C10.26 14.7846 10.14 14.4377 9.88 14.1939L8.22 12.6752C7.55 12.0658 7.92 11.0064 8.84 10.8846L11.13 10.5752C11.5 10.5283 11.81 10.3127 11.97 10.0033L12.99 8.05332C13.41 7.2752 14.59 7.2752 15.01 8.05332Z" fill="#FFF5F5"/>
<path d="M13.8201 15.8718L9.87006 17.8218C10.1001 18.3655 10.8101 18.6749 11.4401 18.3655L13.4901 17.353C13.8201 17.1937 14.2101 17.1937 14.5301 17.353L16.5801 18.3655C17.2101 18.6749 17.9201 18.3655 18.1501 17.8218L14.1901 15.8718C14.0701 15.8155 13.9301 15.8155 13.8201 15.8718Z" fill="#EFE2DD"/>
</g>
<defs>
<clipPath id="clip0_313_12486">
<rect width="28" height="36" fill="white"/>
</clipPath>
</defs>
</svg>
