<svg width="145" height="25" viewBox="0 0 145 25" fill="none" xmlns="http://www.w3.org/2000/svg">
<path d="M61.201 5.55957C60.642 5.55957 60.1851 5.74955 59.8464 6.12141C59.52 6.48115 59.3527 6.99854 59.3527 7.66143V14.6137L54.3503 7.47954C54.1871 7.23702 54.028 6.99854 53.8729 6.77622C53.7016 6.52562 53.5302 6.31543 53.3588 6.15375C53.1711 5.97186 52.9508 5.83039 52.706 5.72529C52.453 5.61616 52.1552 5.55957 51.8165 5.55957C51.384 5.55957 50.9719 5.67679 50.5965 5.90314C50.217 6.13758 49.9355 6.44478 49.7641 6.83281C49.6295 7.15618 49.5642 7.5725 49.5642 8.10201V19.0317C49.5642 19.6824 49.7356 20.1998 50.0783 20.5677C50.4292 20.9476 50.8944 21.1376 51.4574 21.1376C52.0205 21.1376 52.4653 20.9476 52.8202 20.5798C53.1711 20.216 53.3507 19.6946 53.3507 19.0317V12.2168L58.2143 19.2459C58.3816 19.4723 58.5448 19.6986 58.7121 19.9169C58.8957 20.1594 59.0997 20.3736 59.316 20.5555C59.5526 20.7536 59.8097 20.8991 60.0831 20.9921C60.3483 21.081 60.6502 21.1295 60.9725 21.1295C61.76 21.1295 63.078 20.8263 63.078 18.8013V7.66547C63.078 7.00258 62.9107 6.48115 62.5761 6.12141C62.2333 5.74955 61.7682 5.55957 61.197 5.55957H61.201Z" fill="#222222"/>
<path d="M76.2653 8.52643C76.0776 8.06563 75.9266 7.69377 75.8042 7.41891C75.6695 7.11575 75.5063 6.82877 75.3146 6.562C75.0983 6.26693 74.8168 6.0244 74.47 5.84251C74.1191 5.65658 73.6866 5.55957 73.1888 5.55957C72.691 5.55957 72.2666 5.65658 71.9157 5.84251C71.5689 6.02845 71.2833 6.27501 71.067 6.57816C70.8753 6.84898 70.6917 7.19255 70.5244 7.59271L66.285 17.7382C66.1218 18.1222 66.0075 18.4132 65.9341 18.6356C65.8525 18.8862 65.8076 19.1368 65.8076 19.3793C65.8076 19.8482 66.0075 20.2645 66.4033 20.6202C66.7828 20.9638 67.2316 21.1376 67.7335 21.1376C68.3333 21.1376 68.7821 20.9516 69.0718 20.5919C69.3003 20.3049 69.5574 19.7956 69.8593 19.0398L70.4591 17.5159H75.9348L76.5346 19.0034V19.0155C76.6366 19.2378 76.7508 19.4925 76.8895 19.7835C77.0405 20.1109 77.1833 20.3534 77.3302 20.5232C77.4893 20.7132 77.6893 20.8627 77.9178 20.9719C78.1503 21.081 78.4237 21.1376 78.7338 21.1376C79.2642 21.1376 79.7294 20.9557 80.1048 20.6C80.4883 20.2362 80.6842 19.8199 80.6842 19.3631C80.6842 18.9751 80.525 18.4335 80.1864 17.6655L76.2653 8.53451V8.52643ZM73.25 14.3914C72.3523 14.3914 71.626 13.6719 71.626 12.7827C71.626 11.8934 72.3523 11.174 73.25 11.174C74.1476 11.174 74.8739 11.8934 74.8739 12.7827C74.8739 13.6719 74.1476 14.3914 73.25 14.3914Z" fill="#222222"/>
<path d="M96.4665 12.6453C96.136 12.5644 95.7402 12.524 95.2791 12.524H91.8232C91.2927 12.524 90.8602 12.6655 90.5297 12.9444C90.1829 13.2354 90.0034 13.6275 90.0034 14.0762C90.0034 14.7795 90.3706 15.1311 90.6766 15.3009C91.0398 15.503 91.5376 15.6 92.1904 15.6H94.0836V17.1521C93.5654 17.3987 93.0472 17.5968 92.5413 17.7382C91.966 17.8999 91.3417 17.9808 90.6848 17.9808C89.3628 17.9808 88.3672 17.5927 87.645 16.7924C86.9187 15.988 86.5474 14.7997 86.5474 13.2637C86.5474 12.5483 86.6453 11.8935 86.8371 11.3114C87.0248 10.7455 87.2941 10.2605 87.645 9.87648C87.9877 9.49653 88.4121 9.20146 88.8976 8.99936C89.3914 8.79726 89.9667 8.69216 90.6032 8.69216C91.2397 8.69216 91.7212 8.77705 92.1006 8.94277C92.4801 9.10849 92.782 9.31059 92.9942 9.54503C93.239 9.81181 93.545 10.216 93.9245 10.7738C94.104 11.0042 94.3325 11.1861 94.5977 11.3114C94.8629 11.4367 95.1445 11.5014 95.4301 11.5014C95.9442 11.5014 96.393 11.3316 96.7643 11.0002C97.1438 10.6606 97.3437 10.2241 97.3437 9.73501C97.3437 9.31464 97.205 8.86597 96.9153 8.35667C96.6419 7.87567 96.2339 7.41892 95.7035 6.99855C95.1771 6.57818 94.4876 6.23056 93.6593 5.95975C92.8351 5.69297 91.8844 5.55554 90.8276 5.55554C89.5505 5.55554 88.3876 5.73339 87.3716 6.08909C86.3434 6.44883 85.4539 6.9743 84.7358 7.65336C84.0095 8.33646 83.4546 9.17721 83.0833 10.1554C82.7161 11.1174 82.5325 12.1926 82.5325 13.3445C82.5325 14.4965 82.7242 15.6 83.1037 16.558C83.4872 17.524 84.0422 18.3607 84.7562 19.0438C85.4702 19.7229 86.3434 20.2483 87.3512 20.604C88.3468 20.9557 89.4607 21.1336 90.6644 21.1336C91.6885 21.1336 92.6515 21.0204 93.5287 20.8021C94.3978 20.5838 95.3158 20.2281 96.2502 19.7512C96.597 19.5733 96.8867 19.3834 97.1152 19.1853C97.3764 18.9589 97.5641 18.6962 97.6661 18.4052C97.7599 18.1384 97.8048 17.807 97.8048 17.3906V14.6744C97.8048 14.0802 97.6865 13.6275 97.4417 13.3001C97.1928 12.9646 96.8663 12.7463 96.4624 12.6493L96.4665 12.6453Z" fill="#222222"/>
<path d="M110.033 8.52643C109.846 8.06563 109.695 7.69377 109.572 7.41891C109.438 7.11575 109.274 6.82877 109.083 6.562C108.866 6.26693 108.585 6.0244 108.238 5.84251C107.887 5.65658 107.455 5.55957 106.957 5.55957C106.459 5.55957 106.035 5.65658 105.684 5.84251C105.337 6.02845 105.051 6.27501 104.835 6.57816C104.643 6.84898 104.46 7.19255 104.292 7.59271L100.053 17.7382C99.8899 18.1222 99.7756 18.4132 99.7022 18.6356C99.6206 18.8862 99.5757 19.1368 99.5757 19.3793C99.5757 19.8482 99.7756 20.2645 100.171 20.6202C100.551 20.9638 101 21.1376 101.502 21.1376C102.101 21.1376 102.55 20.9516 102.84 20.5919C103.068 20.3049 103.325 19.7956 103.627 19.0398L104.227 17.5159H109.703L110.303 19.0034V19.0155C110.405 19.2378 110.519 19.4925 110.658 19.7835C110.809 20.1109 110.951 20.3534 111.098 20.5232C111.257 20.7132 111.453 20.8627 111.686 20.9719C111.918 21.081 112.192 21.1376 112.502 21.1376C113.032 21.1376 113.497 20.9557 113.873 20.6C114.256 20.2362 114.452 19.8199 114.452 19.3631C114.452 18.9751 114.293 18.4335 113.954 17.6655L110.033 8.53451V8.52643ZM107.018 14.3914C106.12 14.3914 105.394 13.6719 105.394 12.7827C105.394 11.8934 106.12 11.174 107.018 11.174C107.916 11.174 108.642 11.8934 108.642 12.7827C108.642 13.6719 107.916 14.3914 107.018 14.3914Z" fill="#222222"/>
<path d="M125.102 5.55957C124.502 5.55957 124.016 5.75763 123.657 6.14162C123.306 6.51753 123.127 7.06321 123.127 7.75844V15.596C123.127 17.9282 121.997 17.9282 121.572 17.9282C121.176 17.9282 120.879 17.8554 120.691 17.7059C120.483 17.5442 120.34 17.3583 120.254 17.14C120.148 16.8651 120.038 16.4852 119.924 16.0123C119.793 15.4626 119.601 15.0584 119.34 14.7795C119.042 14.4642 118.622 14.3025 118.088 14.3025C117.553 14.3025 117.104 14.4642 116.749 14.7795C116.382 15.1069 116.194 15.5717 116.194 16.1578C116.194 16.6226 116.268 17.1198 116.419 17.6291C116.566 18.1343 116.762 18.5911 117.002 18.9872C117.467 19.7431 118.092 20.2968 118.855 20.6364C119.593 20.9638 120.515 21.1295 121.593 21.1295C122.796 21.1295 123.837 20.891 124.69 20.4181C125.563 19.9331 126.199 19.25 126.583 18.3769C126.803 17.8757 126.95 17.3704 127.011 16.8773C127.072 16.4084 127.101 15.8344 127.101 15.1756V7.75844C127.101 7.05917 126.917 6.51349 126.558 6.13758C126.191 5.75359 125.701 5.55957 125.098 5.55957H125.102Z" fill="#222222"/>
<path d="M143.932 17.6574L140.011 8.52643C139.823 8.06563 139.672 7.69377 139.55 7.41891C139.415 7.11575 139.252 6.82877 139.06 6.562C138.844 6.26693 138.562 6.0244 138.215 5.84251C137.865 5.65658 137.432 5.55957 136.934 5.55957C136.436 5.55957 136.012 5.65658 135.661 5.84251C135.314 6.02845 135.029 6.27501 134.813 6.57816C134.621 6.84898 134.437 7.19255 134.27 7.59271L130.03 17.7382C129.867 18.1222 129.753 18.4132 129.68 18.6356C129.598 18.8862 129.553 19.1368 129.553 19.3793C129.553 19.8482 129.753 20.2645 130.149 20.6202C130.528 20.9638 130.977 21.1376 131.479 21.1376C132.079 21.1376 132.528 20.9516 132.817 20.5919C133.046 20.3049 133.303 19.7956 133.605 19.0398L134.205 17.5159H139.68L140.28 19.0034V19.0155C140.382 19.2378 140.496 19.4925 140.635 19.7835C140.786 20.1109 140.929 20.3534 141.076 20.5232C141.235 20.7132 141.435 20.8627 141.663 20.9719C141.896 21.081 142.169 21.1376 142.479 21.1376C143.01 21.1376 143.471 20.9557 143.85 20.6C144.234 20.2362 144.43 19.8199 144.43 19.3631C144.43 18.9751 144.271 18.4335 143.932 17.6655V17.6574ZM136.991 14.3914C136.094 14.3914 135.367 13.6719 135.367 12.7827C135.367 11.8934 136.094 11.174 136.991 11.174C137.889 11.174 138.615 11.8934 138.615 12.7827C138.615 13.6719 137.889 14.3914 136.991 14.3914Z" fill="#222222"/>
<path d="M2.0442 25C0.913973 25 0 24.0946 0 22.9749C0 21.8553 0.913973 20.9499 2.0442 20.9499C6.18156 20.9499 9.54775 17.6152 9.54775 13.5166V8.99756C9.54775 7.87792 10.4617 6.9725 11.592 6.9725C12.7222 6.9725 13.6361 7.87792 13.6361 8.99756V13.5166C13.6361 19.8464 8.43793 25 2.0442 25Z" fill="#9D9D9D"/>
<path d="M21.1397 25C22.2699 25 23.1839 24.0946 23.1839 22.9749C23.1839 21.8553 22.2699 20.9499 21.1397 20.9499C17.0023 20.9499 13.6361 17.6152 13.6361 13.5166V8.99756C13.6361 7.87792 12.7222 6.9725 11.5919 6.9725C10.4617 6.9725 9.54773 7.87792 9.54773 8.99756V13.5166C9.54773 19.8464 14.746 25 21.1397 25Z" fill="#222222"/>
<path d="M11.5919 5.2304C13.0499 5.2304 14.2319 4.05953 14.2319 2.6152C14.2319 1.17086 13.0499 0 11.5919 0C10.134 0 8.95203 1.17086 8.95203 2.6152C8.95203 4.05953 10.134 5.2304 11.5919 5.2304Z" fill="#222222"/>
<path d="M40.125 25C41.2553 25 42.1692 24.0946 42.1692 22.9749C42.1692 21.8553 41.2553 20.9499 40.125 20.9499C35.9877 20.9499 32.6215 17.6152 32.6215 13.5166V8.99756C32.6215 7.87792 31.7075 6.9725 30.5773 6.9725C29.4471 6.9725 28.5331 7.87792 28.5331 8.99756V13.5166C28.5331 19.8464 33.7313 25 40.125 25Z" fill="#9D9D9D"/>
<path d="M30.5773 5.2304C32.0353 5.2304 33.2172 4.05953 33.2172 2.6152C33.2172 1.17086 32.0353 0 30.5773 0C29.1193 0 27.9374 1.17086 27.9374 2.6152C27.9374 4.05953 29.1193 5.2304 30.5773 5.2304Z" fill="#222222"/>
<path d="M30.5773 6.9725C29.4471 6.9725 28.5331 7.87792 28.5331 8.99756V13.5166C28.5331 16.7785 26.4032 19.5513 23.4451 20.5537C24.0938 21.1641 24.5059 22.021 24.5059 22.9749C24.5059 23.561 24.3509 24.1107 24.0816 24.5917C28.9942 23.2619 32.6215 18.7995 32.6215 13.5166V8.99756C32.6215 7.87792 31.7075 6.9725 30.5773 6.9725Z" fill="#222222"/>
</svg>
