<svg width="30" height="30" viewBox="0 0 30 30" fill="none" xmlns="http://www.w3.org/2000/svg">
<g clip-path="url(#clip0_313_14552)">
<path d="M17.4438 10.8061C15.2125 12.3748 13.1938 12.7186 11.8563 12.7186C11.275 12.7186 10.7813 12.6561 10.4 12.5811V14.2311H17.4438V10.7998V10.8061Z" fill="#FF4755"/>
<path d="M19.4625 8.49414C19.1937 8.49414 18.9812 8.71289 18.9812 8.97539V21.0191C18.9812 21.2879 19.2 21.5004 19.4625 21.5004C19.725 21.5004 19.9437 21.2816 19.9437 21.0191V8.98164C19.9437 8.71289 19.725 8.50039 19.4625 8.50039V8.49414Z" fill="#DADADA"/>
<path d="M17.4438 19.2064V15.7627H10.4V17.4252C10.8688 17.3377 11.3563 17.2877 11.8563 17.2877C13.1938 17.2877 15.2125 17.6314 17.4438 19.2002V19.2064Z" fill="#FF4755"/>
<path d="M4.51245 13.8627V16.1377C4.51245 17.4689 5.5937 18.5502 6.92495 18.5502H8.8687V11.4502H6.92495C5.5937 11.4502 4.51245 12.5314 4.51245 13.8627Z" fill="#DADADA"/>
<path d="M27.2188 21.3621C28.25 19.3809 28.775 17.2434 28.775 14.9996C28.7812 7.39961 22.6 1.22461 15 1.22461C7.4 1.22461 1.21875 7.39961 1.21875 14.9996C1.21875 22.5996 7.4 28.7809 15 28.7809C17.2375 28.7809 19.3813 28.2559 21.3625 27.2246C21.4688 27.1684 21.5938 27.1371 21.7188 27.1371C21.7687 27.1371 21.825 27.1371 21.875 27.1559L28.5562 28.5621L27.1562 21.8809C27.1187 21.7059 27.1438 21.5246 27.225 21.3684L27.2188 21.3621ZM21.475 21.0246C21.475 22.1371 20.5687 23.0434 19.4562 23.0434C18.3437 23.0434 17.5125 22.2121 17.4437 21.1621C15.2 19.2496 13.1562 18.8496 11.825 18.8496C11.2062 18.8496 10.7125 18.9371 10.3937 19.0121V25.3434C10.3937 25.5996 10.2688 25.8371 10.0563 25.9809C9.93125 26.0684 9.78125 26.1121 9.625 26.1121C9.53125 26.1121 9.43125 26.0934 9.34375 26.0559C8.325 25.6496 7.35625 25.1434 6.46875 24.5434C6.25625 24.3996 6.13125 24.1621 6.13125 23.9059V20.0059C4.3125 19.6371 2.975 18.0184 2.975 16.1434V13.8684C2.975 11.6934 4.74375 9.91836 6.925 9.91836H9.63125C10.0562 9.91836 10.4 10.2621 10.4 10.6871V11.0184C10.7188 11.0996 11.2188 11.1871 11.8438 11.1871C13.1625 11.1871 15.2 10.7809 17.45 8.86211C17.525 7.79336 18.4 6.96836 19.4625 6.96836C20.525 6.96836 21.4812 7.87461 21.4812 8.98711V21.0309L21.475 21.0246ZM24.2937 18.2496C24.1625 18.5059 23.9 18.6621 23.6125 18.6621C23.4937 18.6621 23.3687 18.6309 23.2562 18.5746C23.075 18.4809 22.9375 18.3184 22.8813 18.1246C22.8188 17.9309 22.8375 17.7184 22.9375 17.5434C23.6688 16.1434 23.6688 13.8684 22.9375 12.4746C22.8438 12.2934 22.825 12.0871 22.8875 11.8934C22.95 11.6996 23.0813 11.5371 23.2625 11.4434C23.3687 11.3871 23.4937 11.3559 23.6187 11.3559C23.9062 11.3559 24.1688 11.5121 24.3 11.7684C25.2563 13.5871 25.2563 16.4371 24.3 18.2621L24.2937 18.2496ZM25.8875 19.9559C25.7625 19.9559 25.6375 19.9246 25.5312 19.8684C25.35 19.7746 25.2188 19.6121 25.1562 19.4184C25.0938 19.2246 25.1125 19.0121 25.2125 18.8371C26.3188 16.7246 26.3188 13.2934 25.2125 11.1809C25.1187 10.9996 25.1 10.7934 25.1625 10.5934C25.225 10.3996 25.3563 10.2371 25.5375 10.1434C25.6437 10.0871 25.7687 10.0559 25.8937 10.0559C26.1812 10.0559 26.4375 10.2121 26.575 10.4684C27.9062 13.0184 27.9062 17.0059 26.575 19.5496C26.4438 19.8059 26.1812 19.9621 25.8937 19.9621L25.8875 19.9559Z" fill="#FFF2DC"/>
<path d="M7.6687 23.4875C8.04995 23.725 8.44995 23.9562 8.8687 24.1625V20.0938H7.6687V23.4937V23.4875Z" fill="#FF4755"/>
<path d="M30 15C30 6.73125 23.2687 0 15 0C6.73125 0 0 6.73125 0 15C0 23.2687 6.73125 30 15 30C17.35 30 19.6937 29.4375 21.7812 28.3813L29.45 29.9938C29.45 29.9938 29.5125 30 29.5438 30C29.6625 30 29.7812 29.9563 29.8625 29.8688C29.9688 29.7625 30.0187 29.6063 29.9875 29.4563L28.375 21.7875C29.4375 19.6938 29.9938 17.3563 29.9938 15.0063L30 15ZM28.9563 28.9563L21.8062 27.4562C21.7 27.4312 21.5938 27.45 21.5 27.5C19.475 28.5562 17.2875 29.0938 14.9937 29.0938C7.23125 29.0938 0.90625 22.7687 0.90625 15C0.90625 7.23125 7.23125 0.9125 15 0.9125C22.7687 0.9125 29.0938 7.23125 29.0938 15C29.0938 17.2938 28.5562 19.4813 27.5 21.5063C27.45 21.6 27.4375 21.7063 27.4562 21.8125L28.9563 28.9563Z" fill="#222222"/>
<path d="M19.4625 7.27539C18.525 7.27539 17.7562 8.03789 17.7562 8.98164V9.00664C14.1375 12.1566 11.0062 11.5379 10.0875 11.2504V10.6816C10.0875 10.4316 9.88123 10.2254 9.63123 10.2254H6.92498C4.91873 10.2254 3.28748 11.8566 3.28748 13.8629V16.1379C3.28748 17.9816 4.66873 19.5004 6.44373 19.7379V23.9004C6.44373 24.0504 6.51873 24.1941 6.64373 24.2754C7.51873 24.8629 8.46873 25.3629 9.46248 25.7566C9.51873 25.7754 9.57498 25.7879 9.63123 25.7879C9.71873 25.7879 9.81248 25.7629 9.88748 25.7066C10.0125 25.6254 10.0875 25.4816 10.0875 25.3316V18.7629C11.0125 18.4879 14.1687 17.8816 17.7562 21.0066V21.0191C17.7562 21.9566 18.5187 22.7254 19.4625 22.7254C20.4062 22.7254 21.1687 21.9629 21.1687 21.0191V8.98164C21.1687 8.04414 20.4062 7.27539 19.4625 7.27539ZM9.18123 24.6504C8.54373 24.3629 7.93748 24.0316 7.35623 23.6566V19.7754H9.18123V24.6504ZM9.18123 11.5691V18.8629H6.92498C5.41873 18.8629 4.19998 17.6379 4.19998 16.1379V13.8629C4.19998 12.3566 5.42498 11.1379 6.92498 11.1379H9.18123V11.5691ZM17.7625 19.8316C15.475 18.0504 13.3812 17.6129 11.8625 17.6129C11.1187 17.6129 10.5125 17.7191 10.0937 17.8254V15.4566H17.7625V19.8316ZM17.7625 14.5504H10.0937V12.1941C11.3625 12.5191 14.35 12.8441 17.7625 10.1879V14.5504ZM20.2625 21.0254C20.2625 21.4629 19.9062 21.8191 19.4687 21.8191C19.0312 21.8191 18.675 21.4629 18.675 21.0254V8.98164C18.675 8.54414 19.0312 8.18789 19.4687 8.18789C19.9062 8.18789 20.2625 8.54414 20.2625 8.98164V21.0254Z" fill="#222222"/>
<path d="M25.6812 10.4128C25.4562 10.5315 25.375 10.8003 25.4875 11.0253C26.6375 13.219 26.6375 16.7815 25.4875 18.9753C25.3687 19.2003 25.4562 19.469 25.6812 19.5878C25.75 19.6253 25.8187 19.6378 25.8937 19.6378C26.0562 19.6378 26.2187 19.5503 26.3 19.394C27.5937 16.9315 27.5937 13.069 26.3 10.6003C26.1812 10.3815 25.9062 10.294 25.6875 10.4065L25.6812 10.4128Z" fill="#222222"/>
<path d="M23.4062 11.7064C23.1812 11.8251 23.1 12.1001 23.2125 12.3189C23.9875 13.7939 23.9875 16.2001 23.2125 17.6814C23.0937 17.9064 23.1812 18.1751 23.4062 18.2939C23.475 18.3314 23.5437 18.3439 23.6187 18.3439C23.7812 18.3439 23.9437 18.2564 24.0187 18.1001C24.9312 16.3626 24.9312 13.6376 24.0187 11.9001C23.9 11.6751 23.625 11.5876 23.4062 11.7064Z" fill="#222222"/>
</g>
<defs>
<clipPath id="clip0_313_14552">
<rect width="30" height="30" fill="white"/>
</clipPath>
</defs>
</svg>
