<svg width="34" height="30" viewBox="0 0 34 30" fill="none" xmlns="http://www.w3.org/2000/svg">
<g clip-path="url(#clip0_313_14460)">
<path d="M33.0408 13.487C33.3294 13.487 33.5617 13.7193 33.5617 14.0079C33.5617 14.2965 33.3294 14.5288 33.0408 14.5288C31.4148 14.5288 30.0915 15.8521 30.0915 17.4851C30.0915 17.7667 29.8522 18.006 29.5706 18.006C29.2891 18.006 29.0497 17.7667 29.0497 17.4851C29.0497 15.8521 27.7194 14.5288 26.0934 14.5288C25.8048 14.5288 25.5725 14.2965 25.5725 14.0079C25.5725 13.7193 25.8048 13.487 26.0934 13.487C27.7194 13.487 29.0497 12.1566 29.0497 10.5306C29.0497 10.2421 29.282 10.0098 29.5706 10.0098C29.8592 10.0098 30.0915 10.2421 30.0915 10.5306C30.0915 12.1566 31.4148 13.487 33.0408 13.487ZM31.0699 14.0079C30.4435 13.6489 29.9226 13.128 29.5706 12.5086C29.2116 13.128 28.6908 13.6489 28.0713 14.0079C28.6908 14.3669 29.2116 14.8807 29.5706 15.5072C29.9226 14.8807 30.4435 14.3669 31.0699 14.0079Z" fill="#222222"/>
<path d="M29.5706 12.5156C29.9225 13.1351 30.4434 13.6559 31.0699 14.0149C30.4434 14.3739 29.9225 14.8878 29.5706 15.5142C29.2116 14.8878 28.6907 14.3739 28.0713 14.0149C28.6907 13.6559 29.2116 13.1351 29.5706 12.5156Z" fill="#FF4755"/>
<path d="M26.8044 21.3065C27.093 21.3065 27.3252 21.5388 27.3252 21.8274C27.3252 22.116 27.093 22.3483 26.8044 22.3483C25.1784 22.3483 23.855 23.6716 23.855 25.2976C23.855 25.5862 23.6157 25.8185 23.3342 25.8185C23.0526 25.8185 22.8133 25.5862 22.8133 25.2976C22.8133 24.4881 22.4824 23.7631 21.9545 23.2211C20.7438 25.5862 19.0474 27.5219 16.8865 28.9579C15.8588 29.6547 14.6692 29.9926 13.4937 29.9926C12.3182 29.9926 11.1357 29.6477 10.108 28.9649C8.15818 27.6698 6.59554 25.9734 5.40595 23.918C4.86395 24.453 4.51905 25.1991 4.51905 26.0226C4.51905 26.3112 4.28676 26.5435 3.99816 26.5435C3.70957 26.5435 3.47728 26.3112 3.47728 26.0226C3.47728 24.3966 2.15396 23.0733 0.527962 23.0733C0.239365 23.0733 0.00708008 22.834 0.00708008 22.5524C0.00708008 22.2709 0.239365 22.0316 0.527962 22.0316C2.15396 22.0316 3.47728 20.7012 3.47728 19.0752C3.47728 18.8218 3.66733 18.6106 3.89258 18.5614C3.92777 18.5543 3.96297 18.5543 3.99816 18.5543C4.28676 18.5543 4.51905 18.7866 4.51905 19.0752C4.51905 20.7012 5.84941 22.0316 7.4754 22.0316C7.764 22.0316 7.99629 22.2638 7.99629 22.5524C7.99629 22.841 7.764 23.0733 7.4754 23.0733C7.06011 23.0733 6.65185 23.1648 6.28582 23.3267C7.39094 25.2624 8.86208 26.8744 10.6781 28.0851C12.3886 29.2254 14.5988 29.2254 16.3022 28.0851C18.3506 26.7195 19.9484 24.8753 21.0887 22.6158C20.7086 22.4469 20.3004 22.3413 19.8569 22.3413C19.5683 22.3413 19.336 22.1019 19.336 21.8204C19.336 21.5388 19.5683 21.2995 19.8569 21.2995C21.4829 21.2995 22.8133 19.9691 22.8133 18.3431C22.8133 18.0546 23.0456 17.8223 23.3342 17.8223C23.6228 17.8223 23.855 18.0546 23.855 18.3431C23.855 19.9691 25.1784 21.2995 26.8044 21.2995V21.3065ZM24.8335 21.8274C24.207 21.4684 23.6861 20.9476 23.3342 20.3211C22.9752 20.9476 22.4543 21.4684 21.8278 21.8274C21.8841 21.8556 21.9404 21.8978 21.9897 21.933H21.9968C21.9968 21.933 22.039 21.9682 22.0742 21.9823C22.588 22.3272 23.0244 22.7777 23.3342 23.3267C23.6861 22.7003 24.207 22.1794 24.8335 21.8274ZM5.33556 22.6651C5.38484 22.6299 5.44115 22.5876 5.49746 22.5595C4.87099 22.2005 4.35011 21.6796 3.99113 21.0602C3.63918 21.6796 3.1183 22.2005 2.49183 22.5595C3.1183 22.9185 3.63918 23.4323 3.99113 24.0588C4.30788 23.5168 4.73725 23.0592 5.2511 22.7143C5.27221 22.7003 5.28629 22.6862 5.30741 22.6721C5.31445 22.6651 5.32149 22.6721 5.32853 22.6651H5.33556Z" fill="#222222"/>
<path d="M24.0802 8.383C24.58 10.3398 24.5448 12.4656 23.9746 14.5421C23.9817 14.8096 23.9887 15.5064 23.8902 16.4989C23.862 16.7664 23.6368 16.9705 23.3693 16.9705H23.32C23.0384 16.9424 22.8273 16.689 22.8554 16.4004C22.954 15.4079 22.9399 14.7321 22.9329 14.5421C22.9258 14.4506 22.8836 13.8875 22.6654 13.078C22.1023 11.0015 20.4481 7.36235 15.556 6.34171C14.2116 6.06015 12.7897 6.06015 11.4453 6.34171C6.56026 7.36235 4.88499 11.0015 4.33596 13.0709C4.11775 13.8804 4.07551 14.4506 4.06848 14.535C4.06144 14.5702 4.0192 15.5416 4.20222 16.9846C4.23741 17.2732 4.04032 17.5336 3.75172 17.5759H3.68133C3.42089 17.5759 3.19565 17.3788 3.16045 17.1183C2.99152 15.7739 3.00559 14.8166 3.01263 14.5491C2.44248 12.4656 2.40728 10.3398 2.90705 8.383C3.68837 5.33514 5.39884 3.01932 7.97509 1.48483C11.3327 -0.500152 15.6687 -0.500152 19.0192 1.48483C21.6025 3.01228 23.3059 5.33514 24.0872 8.383H24.0802ZM23.3622 11.9306C23.4397 10.8044 23.3411 9.69928 23.0666 8.64344C22.3557 5.87714 20.8141 3.77249 18.4842 2.39286C16.9709 1.49187 15.2322 1.04138 13.4936 1.04138C11.755 1.04138 10.0234 1.49187 8.51005 2.39286C6.17312 3.77249 4.63159 5.87714 3.92066 8.64344C3.65318 9.69225 3.54759 10.7974 3.62502 11.9306C4.47673 9.57962 6.49691 6.30651 11.2271 5.32106C12.7123 5.00431 14.282 5.00431 15.7672 5.32106C20.5044 6.30651 22.5246 9.57962 23.3693 11.9306H23.3622Z" fill="#222222"/>
<path d="M23.3341 20.3213C23.686 20.9478 24.2069 21.4686 24.8334 21.8276C24.2069 22.1796 23.686 22.7005 23.3341 23.3269C23.0173 22.7849 22.588 22.3274 22.0741 21.9825C22.046 21.9684 22.0319 21.9473 21.9967 21.9332H21.9897C21.9404 21.898 21.8841 21.8558 21.8278 21.8276C22.4542 21.4686 22.9751 20.9478 23.3341 20.3213Z" fill="#FF4755"/>
<path d="M23.0667 8.64406C23.3412 9.69286 23.4397 10.798 23.3623 11.9312C22.5106 9.58024 20.4974 6.30713 15.7602 5.32167C14.275 5.00492 12.7053 5.00492 11.2201 5.32167C6.48993 6.30713 4.46271 9.58024 3.61803 11.9312C3.54061 10.805 3.64619 9.6999 3.91367 8.64406C4.6246 5.87775 6.16613 3.7731 8.50307 2.39347C10.0164 1.49248 11.748 1.04199 13.4866 1.04199C15.2253 1.04199 16.9639 1.49248 18.4773 2.39347C20.8071 3.7731 22.3487 5.87775 23.0596 8.64406H23.0667Z" fill="#DADADA"/>
<path d="M23.32 16.964C23.0384 16.9359 22.8273 16.6824 22.8554 16.3939C22.954 15.4014 22.9399 14.7256 22.9328 14.5356C22.9258 14.4441 22.8836 13.8809 22.6654 13.0715C22.1022 10.995 20.4481 7.35584 15.556 6.33519C14.2116 6.05363 12.7897 6.05363 11.4453 6.33519C6.56025 7.35584 4.88498 10.995 4.33594 13.0644C4.11773 13.8739 4.0755 14.4441 4.06846 14.5285C4.06142 14.5637 4.01919 15.5351 4.2022 16.9781C4.2374 17.2667 4.04031 17.5271 3.75171 17.5694L3.89249 18.5618C3.92768 18.5548 3.96288 18.5548 3.99807 18.5548C4.28667 18.5548 4.51895 18.7871 4.51895 19.0757C4.51895 20.7017 5.84932 22.032 7.47531 22.032C7.76391 22.032 7.9962 22.2643 7.9962 22.5529C7.9962 22.8415 7.76391 23.0738 7.47531 23.0738C7.06001 23.0738 6.65176 23.1653 6.28573 23.3272C7.39085 25.2629 8.86199 26.8748 10.678 28.0855C12.3885 29.2259 14.5987 29.2259 16.3022 28.0855C18.3505 26.72 19.9483 24.8758 21.0886 22.6163C20.7085 22.4473 20.3003 22.3418 19.8568 22.3418C19.5682 22.3418 19.3359 22.1024 19.3359 21.8209C19.3359 21.5393 19.5682 21.3 19.8568 21.3C21.4828 21.3 22.8132 19.9696 22.8132 18.3436C22.8132 18.055 23.0455 17.8228 23.3341 17.8228V16.964H23.32ZM5.84228 13.7331C5.70854 13.6064 5.65223 13.4305 5.68742 13.2545C5.70854 13.163 5.75781 13.0785 5.8282 12.994C5.92674 12.8885 8.26368 10.5586 12.3392 12.9025C12.5011 13.0011 12.5997 13.1771 12.5997 13.3601C12.5997 13.4516 12.5786 13.536 12.5293 13.6205C12.4307 13.7824 12.2548 13.8809 12.0717 13.8809C11.9802 13.8809 11.8958 13.8598 11.8113 13.8035C8.43965 11.8608 6.59544 13.6979 6.58137 13.712C6.37724 13.9232 6.04641 13.9302 5.84228 13.7261V13.7331ZM14.5495 19.9767L14.7747 19.8781C15.0422 19.7725 15.3519 19.8922 15.4645 20.1597C15.5771 20.4272 15.4504 20.7369 15.183 20.8354L14.9507 20.934C14.4791 21.1311 13.9863 21.2226 13.4936 21.2226C13.0009 21.2226 12.5082 21.124 12.0366 20.934L11.8113 20.8354C11.5438 20.7298 11.4171 20.4272 11.5297 20.1597C11.6353 19.8922 11.938 19.7725 12.2055 19.8781L12.4307 19.9767C13.1206 20.2512 13.8667 20.2512 14.5495 19.9767ZM6.77142 16.0841C6.56025 15.887 6.54617 15.5633 6.74326 15.345C6.94035 15.1268 7.26414 15.1128 7.48235 15.3099C8.3763 16.1334 9.60108 16.415 10.7695 16.0841L11.2975 15.9363C11.572 15.8519 11.8676 16.0137 11.938 16.2953C12.0225 16.5698 11.8606 16.8584 11.579 16.9358L11.0581 17.0837C10.6428 17.2033 10.2205 17.2596 9.80521 17.2596C8.70009 17.2596 7.62313 16.8514 6.77846 16.0771L6.77142 16.0841ZM16.5767 24.8758C15.7672 25.46 14.9296 25.9809 13.4866 25.9809C12.0436 25.9809 11.213 25.46 10.4035 24.8758C10.1642 24.7068 10.1149 24.3831 10.2839 24.1437C10.4457 23.9114 10.7766 23.8622 11.0159 24.0311C11.7268 24.545 12.3603 24.9321 13.4866 24.9321C14.6128 24.9321 15.2463 24.545 15.9643 24.0311C16.1966 23.8622 16.5274 23.9114 16.6893 24.1437C16.8582 24.3831 16.809 24.7068 16.5767 24.8758ZM20.2017 16.0841C19.3571 16.8514 18.2731 17.2667 17.175 17.2667C16.7597 17.2667 16.3374 17.2104 15.9221 17.0907L15.4012 16.9429C15.1266 16.8584 14.9577 16.5769 15.0422 16.3023C15.1196 16.0208 15.4082 15.8589 15.6827 15.9434L16.2106 16.0912C17.3721 16.422 18.6039 16.1334 19.5049 15.3169C19.716 15.1198 20.0469 15.1409 20.244 15.3521C20.4411 15.5703 20.4199 15.8941 20.2088 16.0912L20.2017 16.0841ZM21.145 13.7331C20.9338 13.9373 20.61 13.9302 20.4059 13.7261C20.3214 13.6416 18.5124 11.8889 15.1689 13.8106C15.0844 13.8598 15 13.888 14.9084 13.888C14.7325 13.888 14.5565 13.7894 14.458 13.6275C14.4087 13.5431 14.3805 13.4516 14.3805 13.3601C14.3805 13.1841 14.4791 13.0081 14.641 12.9096C18.7236 10.5656 21.0534 12.9025 21.152 13.0011C21.2013 13.0503 21.2365 13.1137 21.2646 13.17C21.342 13.3671 21.2928 13.5853 21.145 13.7402V13.7331Z" fill="#FFF2DC" stroke="white" stroke-width="0.25" stroke-miterlimit="10"/>
<path d="M21.2717 13.1703C21.3491 13.3674 21.2998 13.5856 21.152 13.7405C20.9408 13.9446 20.617 13.9376 20.4129 13.7334C20.3284 13.649 18.5194 11.8963 15.1759 13.8179C15.0915 13.8672 15.007 13.8953 14.9155 13.8953C14.7395 13.8953 14.5635 13.7968 14.465 13.6349C14.4157 13.5504 14.3876 13.4589 14.3876 13.3674C14.3876 13.1914 14.4861 13.0155 14.648 12.9169C18.7306 10.5729 21.0605 12.9099 21.159 13.0084C21.2083 13.0577 21.2435 13.121 21.2717 13.1774V13.1703Z" fill="#222222"/>
<path d="M20.2441 15.345C20.4412 15.5633 20.42 15.887 20.2089 16.0841C19.3642 16.8514 18.2802 17.2667 17.1821 17.2667C16.7668 17.2667 16.3445 17.2104 15.9292 17.0907L15.4083 16.9429C15.1338 16.8584 14.9649 16.5769 15.0493 16.3023C15.1268 16.0208 15.4153 15.8589 15.6899 15.9434L16.2178 16.0912C17.3792 16.422 18.611 16.1334 19.512 15.3169C19.7232 15.1198 20.054 15.1409 20.2511 15.3521L20.2441 15.345Z" fill="#222222"/>
<path d="M16.6964 24.1435C16.8653 24.3828 16.8161 24.7066 16.5838 24.8756C15.7743 25.4598 14.9367 25.9807 13.4937 25.9807C12.0507 25.9807 11.2201 25.4598 10.4106 24.8756C10.1713 24.7066 10.122 24.3828 10.291 24.1435C10.4528 23.9112 10.7837 23.862 11.023 24.0309C11.7339 24.5447 12.3674 24.9319 13.4937 24.9319C14.6199 24.9319 15.2534 24.5447 15.9714 24.0309C16.2037 23.862 16.5345 23.9112 16.6964 24.1435Z" fill="#222222"/>
<path d="M15.4646 20.1664C15.5772 20.4339 15.4505 20.7436 15.183 20.8422L14.9507 20.9407C14.4791 21.1378 13.9864 21.2293 13.4937 21.2293C13.0009 21.2293 12.5082 21.1308 12.0366 20.9407L11.8113 20.8422C11.5439 20.7366 11.4172 20.4339 11.5298 20.1664C11.6354 19.8989 11.938 19.7793 12.2055 19.8849L12.4308 19.9834C13.1206 20.2579 13.8667 20.2579 14.5495 19.9834L14.7747 19.8849C15.0422 19.7793 15.3519 19.8989 15.4646 20.1664Z" fill="#222222"/>
<path d="M12.5997 13.3596C12.5997 13.4511 12.5786 13.5356 12.5294 13.62C12.4308 13.7819 12.2548 13.8805 12.0718 13.8805C11.9803 13.8805 11.8959 13.8594 11.8114 13.8031C8.43973 11.8603 6.59553 13.6975 6.58145 13.7115C6.37732 13.9227 6.04649 13.9298 5.84236 13.7256C5.70862 13.5989 5.65231 13.4229 5.6875 13.247C5.70862 13.1555 5.75789 13.071 5.82828 12.9865C5.92682 12.881 8.26376 10.5511 12.3393 12.895C12.5012 12.9936 12.5997 13.1695 12.5997 13.3526V13.3596Z" fill="#222222"/>
<path d="M11.9381 16.2952C12.0226 16.5698 11.8607 16.8584 11.5791 16.9358L11.0582 17.0836C10.6429 17.2033 10.2206 17.2596 9.80529 17.2596C8.70018 17.2596 7.62322 16.8513 6.77855 16.077C6.56738 15.8799 6.5533 15.5562 6.75039 15.3379C6.94748 15.1197 7.27127 15.1057 7.48948 15.3027C8.38343 16.1263 9.6082 16.4079 10.7767 16.077L11.3046 15.9292C11.5791 15.8447 11.8747 16.0066 11.9451 16.2882L11.9381 16.2952Z" fill="#222222"/>
<path d="M5.49737 22.5598C5.44106 22.588 5.38475 22.6302 5.33548 22.6654C5.32844 22.6725 5.3214 22.6654 5.31436 22.6725C5.29324 22.6865 5.27916 22.7006 5.25805 22.7147C4.7442 23.0596 4.30779 23.5101 3.99808 24.0591C3.64613 23.4327 3.12525 22.9188 2.49878 22.5598C3.12525 22.2009 3.64613 21.68 3.99808 21.0605C4.35706 21.68 4.87794 22.2009 5.50441 22.5598H5.49737Z" fill="#FF4755"/>
</g>
<defs>
<clipPath id="clip0_313_14460">
<rect width="33.5617" height="30" fill="white"/>
</clipPath>
</defs>
</svg>
