<svg width="31" height="30" viewBox="0 0 31 30" fill="none" xmlns="http://www.w3.org/2000/svg">
<g clip-path="url(#clip0_313_14488)">
<path d="M11.0593 1.35547L3.71375 4.09822L9.30013 9.59633L16.6456 6.85358L11.0593 1.35547ZM10.7818 7.43365C10.7314 7.68586 10.5738 7.91285 10.3531 8.05786C10.1892 8.16505 10 8.2218 9.80454 8.2218C9.73518 8.2218 9.66583 8.21549 9.59647 8.20288C9.33796 8.14614 9.11097 7.98851 8.96595 7.76783C8.82724 7.54715 8.7768 7.27602 8.83354 7.01751C8.89029 6.759 9.04161 6.53201 9.26229 6.38699C9.41362 6.28611 9.59647 6.23567 9.79193 6.23567C10.1387 6.23567 10.4603 6.40591 10.6368 6.68334C10.7818 6.91032 10.826 7.18145 10.7755 7.43365H10.7818ZM11.0971 4.5648C10.9332 4.67199 10.7503 4.72243 10.5549 4.72243C10.4855 4.72243 10.4161 4.71612 10.3531 4.70351C10.0946 4.64677 9.86759 4.48914 9.72257 4.26846C9.58386 4.04778 9.53342 3.77665 9.59016 3.51814C9.6406 3.26594 9.79823 3.03895 10.0126 2.89393C10.1702 2.79305 10.3531 2.7363 10.5422 2.7363C10.889 2.7363 11.2106 2.90654 11.3934 3.18397C11.5385 3.40465 11.5889 3.67577 11.5322 3.93428C11.4754 4.1928 11.3241 4.41978 11.1034 4.5648H11.0971Z" fill="#FF4755"/>
<path d="M6.80324 17.617L7.68597 13.4745L8.26604 10.7507L7.30766 9.81119L2.76163 5.34082L1.29883 12.2135L6.79694 17.6233L6.80324 17.617ZM3.5813 11.2172C3.63805 10.9587 3.79568 10.7317 4.01636 10.593C4.17399 10.4921 4.36314 10.4354 4.5586 10.4354C4.62796 10.4354 4.69731 10.4417 4.76037 10.4543C5.01888 10.5111 5.24586 10.6687 5.38458 10.8894C5.5296 11.1101 5.57373 11.3812 5.52329 11.6334C5.46655 11.8919 5.31522 12.1189 5.09454 12.2576C4.93061 12.3648 4.74776 12.4152 4.5523 12.4152C4.48294 12.4152 4.41358 12.4089 4.34423 12.3963C4.08571 12.3396 3.85873 12.1819 3.72001 11.9676C3.57499 11.7469 3.52455 11.4758 3.5813 11.2172Z" fill="#FFF2DC"/>
<path d="M13.7705 17.8125L14.5208 24.7986L21.4313 28.2286L20.681 21.2425L13.7705 17.8125ZM14.2245 20.9083C14.0858 20.694 14.0353 20.4165 14.0921 20.1643C14.1488 19.9121 14.3001 19.6851 14.5208 19.5401C14.6785 19.4392 14.8613 19.3888 15.0505 19.3888C15.3972 19.3888 15.7188 19.559 15.8953 19.8365C16.0341 20.0634 16.0845 20.3346 16.0341 20.5868C15.9773 20.839 15.826 21.066 15.6053 21.211C15.4414 21.3182 15.2522 21.3749 15.0631 21.3749C14.9937 21.3749 14.9244 21.3686 14.855 21.356C14.5902 21.2993 14.3632 21.1416 14.2245 20.9209V20.9083ZM16.4124 24.1177C16.3556 24.3699 16.2043 24.6032 15.9836 24.7419C15.8197 24.8491 15.6305 24.9058 15.4414 24.9058C15.372 24.9058 15.3027 24.8995 15.2333 24.8806C14.9811 24.8302 14.7541 24.6662 14.6091 24.4455C14.4704 24.2249 14.4199 23.9537 14.4704 23.7015C14.5208 23.443 14.6785 23.216 14.8991 23.071C15.0505 22.9701 15.2333 22.9197 15.4288 22.9197C15.7756 22.9197 16.0971 23.0899 16.2737 23.3674C16.4124 23.588 16.4628 23.8592 16.4124 24.1177ZM18.3733 23.6196C18.2598 23.8592 18.058 24.0357 17.8058 24.124C17.6986 24.1618 17.5851 24.1807 17.4716 24.1807C17.4023 24.1807 17.3392 24.1744 17.2699 24.1618C16.9294 24.0924 16.652 23.8465 16.5385 23.5187C16.3619 23.0017 16.6331 22.4342 17.1501 22.2576C17.2573 22.2198 17.3645 22.2009 17.4779 22.2009C17.8941 22.2009 18.2724 22.4657 18.4111 22.8629C18.4994 23.1151 18.4868 23.38 18.3733 23.6196ZM18.6822 23.0206C18.5372 22.7999 18.4931 22.5288 18.5435 22.2703C18.6003 22.0117 18.7579 21.7848 18.9723 21.6397C19.1236 21.5389 19.3064 21.4884 19.5019 21.4884C19.8487 21.4884 20.1703 21.6587 20.3468 21.9361C20.4918 22.1568 20.5423 22.4342 20.4855 22.6864C20.4288 22.9449 20.2711 23.1719 20.0505 23.3169C19.8928 23.4178 19.6974 23.4745 19.5082 23.4745C19.4389 23.4745 19.3695 23.4682 19.3064 23.4556C19.0479 23.3989 18.8209 23.2413 18.6822 23.0269V23.0206ZM20.8638 26.2236C20.8071 26.4821 20.6558 26.7091 20.4351 26.8541C20.2774 26.9613 20.0883 27.0117 19.8928 27.0117C19.8235 27.0117 19.7541 27.0054 19.6848 26.9865C19.4262 26.9298 19.193 26.7721 19.0542 26.5515C18.9155 26.3308 18.8651 26.0597 18.9218 25.8075C18.9786 25.5552 19.1299 25.322 19.3506 25.1769C19.5082 25.0761 19.6848 25.0256 19.8802 25.0256C20.227 25.0256 20.5486 25.1959 20.7314 25.4733C20.8701 25.694 20.9206 25.9651 20.8701 26.2236H20.8638Z" fill="#DADADA"/>
<path d="M21.3052 19.8239L24.3002 17.4279L27.4275 14.9311L20.4036 11.4443L14.2812 16.3371L21.3052 19.8239ZM22.1312 18.6827C22.0744 18.9412 21.9168 19.1682 21.6961 19.3069C21.5385 19.4141 21.3557 19.4708 21.1539 19.4708C21.0845 19.4708 21.0152 19.4645 20.9458 19.4519C20.6873 19.3952 20.4603 19.2375 20.3216 19.0168C20.1829 18.8025 20.1261 18.5313 20.1829 18.2728C20.2396 18.0143 20.3973 17.7873 20.6116 17.6423C20.763 17.5414 20.9458 17.491 21.1413 17.491C21.4818 17.491 21.8096 17.6612 21.9862 17.9387C22.1312 18.153 22.1816 18.4305 22.1249 18.689L22.1312 18.6827ZM20.9584 16.6209C20.9206 16.6209 20.8891 16.6209 20.8575 16.6209C20.7882 16.6209 20.7125 16.6146 20.6432 16.5957C20.2207 16.5074 19.9118 16.1606 19.8676 15.7319C19.8361 15.4733 19.9118 15.2148 20.082 15.0068C20.2459 14.7987 20.4855 14.6726 20.7504 14.6411C20.7882 14.6411 20.8197 14.6411 20.8575 14.6411C21.3683 14.6411 21.7907 15.0194 21.8475 15.5301C21.9042 16.0723 21.507 16.5641 20.9647 16.6272L20.9584 16.6209ZM20.0063 11.9551C20.1577 11.8542 20.3405 11.8037 20.536 11.8037C20.8828 11.8037 21.2043 11.974 21.3809 12.2514C21.5196 12.4658 21.57 12.7432 21.5196 13.0017C21.4628 13.2602 21.3115 13.4872 21.0908 13.6322C20.9269 13.7394 20.744 13.7962 20.5486 13.7962C20.4792 13.7962 20.4099 13.7899 20.3405 13.7709C20.0883 13.7205 19.8613 13.5566 19.7163 13.3359C19.5776 13.1152 19.5272 12.8441 19.5776 12.5919C19.6343 12.3334 19.7857 12.1064 20.0063 11.9614V11.9551Z" fill="#FFF2DC"/>
<path d="M27.4843 16.866L22.2131 21.0779L22.9634 28.064L28.9912 23.2469L28.2409 16.2607L27.4843 16.866ZM23.1022 22.03C22.9634 21.8093 22.913 21.5382 22.9634 21.2797C23.0202 21.0211 23.1715 20.7942 23.3922 20.6491C23.5435 20.5483 23.7264 20.4978 23.9218 20.4978C24.2686 20.4978 24.5902 20.6681 24.773 20.9455C24.9117 21.1599 24.9622 21.431 24.9117 21.6895C24.855 21.948 24.6974 22.1813 24.4767 22.32C24.3254 22.4209 24.1362 22.4776 23.9408 22.4776C23.8714 22.4776 23.802 22.4713 23.7327 22.4524C23.4742 22.3957 23.2472 22.2443 23.1085 22.0174L23.1022 22.03ZM25.2901 25.233C25.2333 25.4915 25.0757 25.7248 24.855 25.8635C24.6974 25.9644 24.5145 26.0211 24.3128 26.0211C24.2434 26.0211 24.174 26.0148 24.111 26.0022C23.8525 25.9455 23.6255 25.7879 23.4868 25.5672C23.3481 25.3591 23.2976 25.0817 23.3481 24.8232C23.4048 24.5646 23.5624 24.3314 23.7831 24.1926C23.9344 24.0918 24.111 24.0413 24.3065 24.0413C24.6532 24.0413 24.9748 24.2116 25.1513 24.489C25.2964 24.7034 25.3468 24.9808 25.2901 25.2393V25.233ZM26.2358 19.6781C26.0908 19.4638 26.0404 19.1863 26.0971 18.9278C26.1539 18.6693 26.3115 18.4423 26.5259 18.2973C26.6772 18.1964 26.86 18.146 27.0492 18.146C27.3897 18.146 27.7175 18.3162 27.8941 18.5937C28.0391 18.8143 28.0832 19.0855 28.0328 19.344C27.9761 19.6025 27.8247 19.8295 27.6041 19.9745C27.4401 20.0817 27.2573 20.1321 27.0618 20.1321C26.9925 20.1321 26.9231 20.1258 26.8537 20.1132C26.6015 20.0565 26.3682 19.8988 26.2295 19.6844L26.2358 19.6781ZM28.4174 22.8812C28.3607 23.1397 28.2094 23.3667 27.9887 23.5054C27.8247 23.6126 27.6356 23.6693 27.4464 23.6693C27.3771 23.6693 27.3077 23.663 27.2447 23.6504C26.9925 23.5937 26.7592 23.436 26.6204 23.2153C26.4754 22.9947 26.4313 22.7235 26.4817 22.465C26.5385 22.2065 26.6898 21.9795 26.9105 21.8345C27.0681 21.7336 27.251 21.6832 27.4401 21.6832C27.7869 21.6832 28.1085 21.8534 28.285 22.1309C28.4237 22.3515 28.4742 22.6227 28.4237 22.8812H28.4174Z" fill="#FF4755"/>
<path d="M10.454 17.4783L7.88775 18.4367L9.50818 10.839L17.4338 7.87554L16.9357 10.2211C16.8852 10.467 17.0429 10.7129 17.2888 10.7633C17.5347 10.8137 17.7806 10.6561 17.831 10.4102L18.5057 7.24502C18.512 7.20719 18.5183 7.16305 18.512 7.12522C18.512 7.11261 18.512 7.1 18.5057 7.08739C18.5057 7.06217 18.4994 7.03695 18.493 7.00542C18.493 6.99281 18.4804 6.9802 18.4741 6.96759C18.4615 6.94237 18.4552 6.92346 18.4426 6.89824C18.4363 6.88562 18.4237 6.87301 18.4111 6.8604C18.3985 6.84779 18.3922 6.82888 18.3796 6.81627L11.57 0.132788C11.4439 0.0066845 11.2547 -0.0311465 11.0908 0.0319052L2.14374 3.36734C2.14374 3.36734 2.11222 3.38626 2.09961 3.39256C2.087 3.39887 2.06808 3.40517 2.05547 3.41778C2.03655 3.43039 2.01764 3.44931 1.99872 3.46192C1.98611 3.47453 1.9735 3.48083 1.9672 3.49344C1.94828 3.51236 1.93567 3.53758 1.92306 3.5628C1.92306 3.57541 1.91045 3.58172 1.90415 3.59433C1.88523 3.63216 1.87262 3.66999 1.86632 3.70782L0.0125951 12.3711C-0.0189307 12.5224 0.0252055 12.6864 0.138699 12.7936L6.94828 19.4897H6.96089C6.96089 19.4897 6.9672 19.5086 6.9735 19.5086C6.99872 19.5338 7.03025 19.5464 7.06178 19.559C7.08069 19.5653 7.0933 19.5779 7.11222 19.5905C7.16266 19.6095 7.2194 19.6221 7.27615 19.6221C7.32029 19.6221 7.36442 19.6221 7.40856 19.6032C7.40856 19.6032 7.42117 19.6032 7.42748 19.5968H7.44009L10.7881 18.3421C11.0277 18.2538 11.1475 17.989 11.0593 17.7494C10.971 17.5098 10.7062 17.39 10.4666 17.4783H10.454ZM11.1349 0.990291L17.2194 6.9739L9.22445 9.96255L3.13996 3.97894L11.1349 0.990291ZM6.99242 18.2475L0.958371 12.3144L2.5788 4.71034L7.53466 9.58424L8.61285 10.6435L7.99494 13.5376L6.99242 18.2412V18.2475Z" fill="#222222"/>
<path d="M29.319 14.7289C29.319 14.6911 29.3064 14.6469 29.2875 14.6154C29.2875 14.6028 29.2748 14.5902 29.2685 14.5839C29.2559 14.5587 29.2433 14.5334 29.2307 14.5145C29.2244 14.5019 29.2118 14.4893 29.1992 14.4767C29.1866 14.4578 29.1677 14.4389 29.1487 14.4262C29.1361 14.4136 29.1235 14.4073 29.1046 14.3947C29.092 14.3884 29.0794 14.3758 29.0605 14.3632L20.5044 10.1198C20.3467 10.0378 20.1513 10.0631 20.0126 10.1703L12.5535 16.1286C12.5535 16.1286 12.5283 16.1539 12.5157 16.1665C12.5031 16.1791 12.4905 16.1917 12.4842 16.2043C12.4716 16.2232 12.459 16.2421 12.4463 16.2674C12.44 16.28 12.4274 16.2926 12.4211 16.3052C12.4085 16.3304 12.4022 16.3556 12.3959 16.3808C12.3959 16.3935 12.3896 16.4061 12.3833 16.4187C12.3833 16.4565 12.377 16.4943 12.3833 16.5385L13.3291 25.3468C13.348 25.5044 13.4426 25.6368 13.5813 25.7062L22.1374 29.9496C22.1374 29.9496 22.1437 29.9496 22.15 29.9496C22.15 29.9496 22.1626 29.9559 22.1689 29.9622C22.2257 29.9874 22.2887 30 22.3455 30C22.3959 30 22.44 29.9937 22.4905 29.9748C22.5031 29.9748 22.522 29.9622 22.5346 29.9496C22.5598 29.937 22.5851 29.9307 22.6103 29.9117C22.6103 29.9117 22.6166 29.9054 22.6229 29.8991H22.6355L30.0945 23.9344C30.2143 23.8336 30.2837 23.6822 30.2648 23.5246L29.319 14.7163V14.7289ZM20.3656 11.0782L28.0138 14.8739L24.4955 17.6797L21.3429 20.2018L13.6948 16.4061L20.3656 11.0782ZM14.2244 25.0063L13.3984 17.2825L20.9772 21.0404L21.7906 28.6129L21.8095 28.7705L14.2307 25.0126L14.2244 25.0063ZM22.7175 28.6696V28.6129L21.8915 20.9458L27.295 16.6268L28.4993 15.6621L29.3253 23.3922L22.7175 28.6759V28.6696Z" fill="#222222"/>
<path d="M10.4098 4.39463C10.5801 4.43246 10.7692 4.39463 10.9205 4.30005C11.0656 4.20548 11.179 4.04785 11.2169 3.8713C11.2547 3.70106 11.2169 3.51191 11.1223 3.36058C10.9268 3.05793 10.4855 2.96336 10.1828 3.15882C10.0378 3.2597 9.93062 3.41102 9.89279 3.58757C9.85496 3.76411 9.89279 3.95327 9.98737 4.09829C10.0819 4.24961 10.2396 4.3568 10.4161 4.39463H10.4098Z" fill="#222222"/>
<path d="M9.6658 7.89463C9.83604 7.93246 10.0252 7.89463 10.1765 7.80005C10.3215 7.69917 10.435 7.54785 10.4729 7.3713C10.5107 7.19476 10.4729 7.01191 10.3783 6.86058C10.1828 6.55793 9.74146 6.46336 9.43881 6.65882C9.29379 6.75339 9.18661 6.91102 9.14877 7.08757C9.11094 7.26411 9.14877 7.44696 9.24335 7.59829C9.33793 7.74961 9.49556 7.8568 9.6721 7.89463H9.6658Z" fill="#222222"/>
<path d="M14.7415 9.85511C14.5902 9.95599 14.483 10.1073 14.4452 10.2839C14.4073 10.4604 14.4452 10.6433 14.5397 10.7946C14.6343 10.9459 14.7919 11.0531 14.9685 11.0909C15.1387 11.1288 15.3279 11.0909 15.4792 10.9963C15.6305 10.8955 15.7377 10.7441 15.7756 10.5676C15.8134 10.391 15.7756 10.2082 15.681 10.0569C15.4855 9.75422 15.0378 9.65965 14.7415 9.85511Z" fill="#222222"/>
<path d="M13.1652 13.6074C13.4174 13.33 13.3922 12.9012 13.1148 12.649C12.8373 12.3968 12.4086 12.422 12.1627 12.6995C11.9105 12.9769 11.9357 13.4056 12.2131 13.6578C12.3014 13.7398 12.4149 13.7902 12.5221 13.8155C12.7554 13.8659 13.0013 13.7902 13.1652 13.6074Z" fill="#222222"/>
<path d="M9.84238 15.316C9.69736 15.4106 9.58386 15.5682 9.55234 15.7448C9.51451 15.9213 9.55234 16.1105 9.64692 16.2555C9.7478 16.4068 9.89912 16.514 10.0757 16.5519C10.2459 16.5897 10.4351 16.5519 10.5864 16.4573C10.7377 16.3627 10.8449 16.2051 10.8827 16.0285C10.9206 15.852 10.8827 15.6691 10.7882 15.5178C10.5927 15.2152 10.1513 15.1206 9.84868 15.316H9.84238Z" fill="#222222"/>
<path d="M4.69107 10.7567C4.51452 10.7189 4.33167 10.7567 4.18035 10.8513C4.02902 10.9458 3.92183 11.1035 3.884 11.2737C3.84617 11.4503 3.884 11.6331 3.97858 11.7844C4.07316 11.9358 4.23079 12.0366 4.40733 12.0745C4.58388 12.1123 4.76673 12.0745 4.91805 11.9799C5.06938 11.8853 5.17656 11.7277 5.20809 11.5511C5.24592 11.3746 5.20809 11.1917 5.11351 11.0404C5.01893 10.8891 4.86131 10.7819 4.68476 10.7441L4.69107 10.7567Z" fill="#222222"/>
<path d="M20.9206 13.3674C21.0656 13.2729 21.1791 13.1152 21.2106 12.9387C21.2484 12.7621 21.2106 12.573 21.116 12.428C20.9206 12.1253 20.4792 12.0307 20.1766 12.2262C20.0315 12.3208 19.9181 12.4784 19.8802 12.655C19.8424 12.8315 19.8802 13.0143 19.9748 13.1657C20.0757 13.317 20.227 13.4242 20.4035 13.462C20.5801 13.4998 20.7629 13.462 20.9143 13.3674H20.9206Z" fill="#222222"/>
<path d="M20.9268 16.3119C21.2988 16.2741 21.5699 15.9399 21.5321 15.5616C21.4943 15.1896 21.1601 14.9247 20.7818 14.9626C20.4098 15.0004 20.145 15.3346 20.1828 15.7066C20.2143 16.0029 20.435 16.2362 20.7124 16.2993C20.7818 16.3119 20.8511 16.3182 20.9268 16.3119Z" fill="#222222"/>
<path d="M21.8222 18.6193C21.8601 18.4428 21.8222 18.2536 21.7276 18.1086C21.5322 17.806 21.0908 17.7114 20.7945 17.9069C20.6432 18.0077 20.536 18.1591 20.4981 18.3356C20.4603 18.5122 20.4981 18.695 20.5927 18.8463C20.6873 18.9977 20.8449 19.1048 21.0152 19.1427C21.1917 19.1805 21.3746 19.1427 21.5259 19.0481C21.6772 18.9535 21.7844 18.7959 21.8222 18.6193Z" fill="#222222"/>
<path d="M24.3064 22.0559C24.4577 21.9613 24.5649 21.8037 24.6027 21.6272C24.6406 21.4506 24.6027 21.2678 24.5082 21.1164C24.3127 20.8138 23.8713 20.7192 23.5687 20.9147C23.4237 21.0093 23.3102 21.1669 23.2787 21.3434C23.2408 21.52 23.2787 21.7028 23.3732 21.8541C23.4741 22.0055 23.6254 22.1127 23.802 22.1505C23.9785 22.1883 24.1614 22.1505 24.3127 22.0559H24.3064Z" fill="#222222"/>
<path d="M23.9533 24.4518C23.802 24.5464 23.6948 24.704 23.657 24.8805C23.6191 25.0571 23.657 25.2399 23.7515 25.3913C23.8461 25.5426 24.0037 25.6498 24.174 25.6876C24.3505 25.7254 24.5334 25.6876 24.6847 25.593C24.836 25.4984 24.9432 25.3408 24.981 25.1643C25.0189 24.9877 24.981 24.7986 24.8865 24.6536C24.691 24.3509 24.2496 24.2563 23.9533 24.4518Z" fill="#222222"/>
<path d="M27.4401 19.7043C27.5851 19.6098 27.6986 19.4521 27.7364 19.2756C27.7742 19.1054 27.7364 18.9162 27.6418 18.7649C27.4464 18.4622 27.005 18.3677 26.7024 18.5631C26.551 18.6577 26.4438 18.8153 26.4123 18.9919C26.3745 19.1684 26.4123 19.3576 26.5069 19.5026C26.6078 19.6539 26.7591 19.7611 26.9357 19.7989C27.1059 19.8368 27.295 19.7989 27.4464 19.7043H27.4401Z" fill="#222222"/>
<path d="M27.0807 22.1002C26.9356 22.1948 26.8221 22.3524 26.7906 22.529C26.7528 22.7055 26.7906 22.8884 26.8852 23.0397C26.9861 23.191 27.1374 23.2982 27.3139 23.336C27.4905 23.3739 27.6733 23.336 27.8247 23.2415C27.9697 23.1469 28.0832 22.9893 28.1147 22.8127C28.1525 22.6362 28.1147 22.447 28.0201 22.302C27.8247 21.9993 27.3833 21.9048 27.0807 22.1002Z" fill="#222222"/>
<path d="M15.4288 20.9457C15.5801 20.8448 15.6873 20.6935 15.7251 20.5169C15.763 20.3404 15.7251 20.1576 15.6306 20.0062C15.4351 19.7036 14.9874 19.6153 14.6911 19.8045C14.5398 19.9053 14.4326 20.0567 14.3947 20.2332C14.3569 20.4098 14.3947 20.5989 14.4893 20.7439C14.5839 20.8953 14.7415 21.0024 14.9181 21.0403C15.0946 21.0781 15.2775 21.0403 15.4288 20.9457Z" fill="#222222"/>
<path d="M15.0694 23.3356C14.9244 23.4302 14.8109 23.5878 14.773 23.7643C14.7352 23.9346 14.773 24.1237 14.8676 24.275C14.9685 24.4264 15.1198 24.5336 15.2964 24.5714C15.4729 24.6092 15.6558 24.5714 15.8071 24.4768C15.9521 24.3822 16.0656 24.2246 16.0971 24.0481C16.135 23.8715 16.0971 23.6824 16.0025 23.5373C15.8071 23.2347 15.3657 23.1401 15.0631 23.3356H15.0694Z" fill="#222222"/>
<path d="M17.2509 22.5538C16.8978 22.6799 16.715 23.0645 16.8348 23.4176C16.9167 23.6509 17.1122 23.8085 17.3329 23.859C17.4464 23.8842 17.5725 23.8779 17.6986 23.8337C18.0517 23.7076 18.2345 23.323 18.1147 22.9699C17.9886 22.6168 17.604 22.4277 17.2509 22.5538Z" fill="#222222"/>
<path d="M19.8801 23.0461C20.0315 22.9453 20.1386 22.7939 20.1765 22.6174C20.2143 22.4408 20.1765 22.258 20.0819 22.1067C19.8864 21.804 19.4451 21.7095 19.1487 21.9049C18.9974 22.0058 18.8902 22.1571 18.8524 22.3337C18.8146 22.5102 18.8524 22.6931 18.947 22.8444C19.0415 22.9894 19.1992 23.1029 19.3757 23.1407C19.546 23.1786 19.7351 23.1407 19.8801 23.0461Z" fill="#222222"/>
<path d="M19.5271 25.442C19.3758 25.5429 19.2686 25.6942 19.2308 25.8708C19.193 26.0473 19.2308 26.2302 19.3254 26.3815C19.42 26.5328 19.5776 26.64 19.7541 26.6778C19.9307 26.7157 20.1135 26.6778 20.2649 26.5833C20.4099 26.4887 20.5234 26.331 20.5549 26.1545C20.5927 25.978 20.5549 25.7951 20.4603 25.6438C20.2649 25.3411 19.8172 25.2466 19.5208 25.442H19.5271Z" fill="#222222"/>
</g>
<defs>
<clipPath id="clip0_313_14488">
<rect width="30.2648" height="30" fill="white"/>
</clipPath>
</defs>
</svg>
