<svg width="37" height="30" viewBox="0 0 37 30" fill="none" xmlns="http://www.w3.org/2000/svg">
<g clip-path="url(#clip0_313_14515)">
<path d="M20.5323 6.16016H15.7871V7.60567H20.5323V6.16016Z" fill="#DADADA"/>
<path d="M20.5323 9.45996H15.7871V10.9055H20.5323V9.45996Z" fill="#DADADA"/>
<path d="M20.5323 2.85352H15.7871V4.29903H20.5323V2.85352Z" fill="#FFF2DC"/>
<path d="M26.8517 6.16089H22.3941V13.2144C22.3941 13.729 21.9779 14.1452 21.4632 14.1452C20.9486 14.1452 20.5324 13.729 20.5324 13.2144V12.7679H15.7871V13.2144C15.7871 13.729 15.3709 14.1452 14.8563 14.1452C14.3416 14.1452 13.9254 13.729 13.9254 13.2144V6.16089H9.46777L1.84668 28.5171H34.4804L26.8593 6.15332L26.8517 6.16089ZM7.04597 15.2048C7.22004 15.0307 7.45465 14.9323 7.7044 14.9323C7.95415 14.9323 8.18876 15.0307 8.36283 15.2048C8.5823 15.4243 8.88502 15.5529 9.20289 15.5529C9.52075 15.5529 9.8159 15.4318 10.0429 15.2048C10.6181 14.6296 11.3825 14.3193 12.1923 14.3193C13.0021 14.3193 13.7665 14.6372 14.3416 15.2048C14.5687 15.4243 14.8638 15.5529 15.1817 15.5529C15.4996 15.5529 15.7947 15.4318 16.0142 15.2048C16.5894 14.6296 17.3537 14.3117 18.1635 14.3117C18.9733 14.3117 19.7377 14.6296 20.3129 15.2048C20.5324 15.4243 20.8351 15.5529 21.1529 15.5529C21.4708 15.5529 21.766 15.4318 21.993 15.2048C22.5682 14.6296 23.3326 14.3117 24.1423 14.3117C24.9521 14.3117 25.7165 14.6296 26.2917 15.2048C26.5112 15.4243 26.8139 15.5529 27.1317 15.5529C27.4496 15.5529 27.7448 15.4318 27.9718 15.2048C28.1459 15.0307 28.3805 14.9323 28.6302 14.9323C28.88 14.9323 29.1146 15.0307 29.2887 15.2048C29.4627 15.3788 29.5611 15.6135 29.5611 15.8632C29.5611 16.113 29.4627 16.3476 29.2887 16.5216C28.7135 17.0968 27.9491 17.4147 27.1393 17.4147C26.3295 17.4147 25.5651 17.0968 24.99 16.5216C24.7705 16.3022 24.4678 16.1735 24.1499 16.1735C23.832 16.1735 23.5369 16.2946 23.3098 16.5216C22.7347 17.0968 21.9703 17.4147 21.1605 17.4147C20.3507 17.4147 19.5863 17.0968 19.0112 16.5216C18.7917 16.3022 18.489 16.1735 18.1711 16.1735C17.8532 16.1735 17.5581 16.2946 17.331 16.5216C16.7559 17.0968 15.9915 17.4147 15.1817 17.4147C14.3719 17.4147 13.6075 17.0968 13.0324 16.5216C12.8053 16.3022 12.5102 16.1735 12.1923 16.1735C11.8744 16.1735 11.5793 16.2946 11.3598 16.5216C10.7846 17.0968 10.0202 17.4147 9.21045 17.4147C8.40067 17.4147 7.63629 17.0968 7.06111 16.5216C6.69784 16.1584 6.69784 15.5681 7.06111 15.2048H7.04597ZM5.41883 20.1619C5.5929 19.9878 5.82751 19.8894 6.07725 19.8894C6.327 19.8894 6.56161 19.9878 6.73568 20.1619C7.00813 20.4343 7.39411 20.5857 7.80278 20.5857C8.21146 20.5857 8.60501 20.4268 8.86989 20.1619C9.50561 19.5262 10.3532 19.178 11.2538 19.178C12.1545 19.178 13.0021 19.5262 13.6378 20.1619C13.9254 20.4495 14.3038 20.6008 14.7049 20.6008C15.106 20.6008 15.492 20.4419 15.772 20.1619C16.4077 19.5262 17.2554 19.178 18.156 19.178C19.0566 19.178 19.9042 19.5262 20.5399 20.1619C20.8124 20.4343 21.1983 20.5857 21.607 20.5857C22.0157 20.5857 22.4092 20.4268 22.6741 20.1619C23.3098 19.5262 24.1575 19.178 25.0581 19.178C25.9587 19.178 26.8063 19.5262 27.442 20.1619C27.7296 20.4495 28.108 20.6008 28.5091 20.6008C28.9103 20.6008 29.2962 20.4419 29.5762 20.1619C29.7503 19.9878 29.9849 19.8894 30.2347 19.8894C30.4844 19.8894 30.719 19.9878 30.8931 20.1619C31.2564 20.5252 31.2564 21.1155 30.8931 21.4787C30.2574 22.1145 29.4097 22.4626 28.5091 22.4626C27.6085 22.4626 26.7609 22.1145 26.1252 21.4787C25.8376 21.1912 25.4592 21.0398 25.0581 21.0398C24.657 21.0398 24.271 21.1987 23.991 21.4787C23.3553 22.1145 22.5076 22.4702 21.607 22.4702C20.7064 22.4702 19.8588 22.122 19.2231 21.4787C18.9506 21.2063 18.5646 21.0549 18.156 21.0549C17.7473 21.0549 17.3537 21.2063 17.0889 21.4787C16.4531 22.1145 15.6055 22.4626 14.7049 22.4626C13.8043 22.4626 12.9567 22.1145 12.3209 21.4787C12.0334 21.1912 11.655 21.0398 11.2538 21.0398C10.8527 21.0398 10.4668 21.1987 10.1867 21.4787C9.55102 22.1145 8.70339 22.4702 7.80278 22.4702C6.90218 22.4702 6.05455 22.122 5.41883 21.4787C5.05556 21.1155 5.05556 20.5252 5.41883 20.1619ZM29.9547 27.5181C28.9632 27.5181 28.0324 27.1321 27.3361 26.4359C26.988 26.0877 26.5187 25.891 26.0268 25.891C25.5349 25.891 25.0657 26.0802 24.7175 26.4359C24.0213 27.1321 23.0904 27.5181 22.099 27.5181C21.1075 27.5181 20.1766 27.1321 19.4804 26.4359C19.1322 26.0877 18.663 25.891 18.1711 25.891C17.6792 25.891 17.2099 26.0802 16.8618 26.4359C16.1656 27.1321 15.2271 27.5181 14.2357 27.5181C13.2443 27.5181 12.3134 27.1321 11.6095 26.4359C11.2614 26.0877 10.7922 25.891 10.3003 25.891C9.80833 25.891 9.33911 26.0802 8.99098 26.4359C8.29471 27.1321 7.36383 27.5181 6.37241 27.5181C5.38099 27.5181 4.45011 27.1321 3.74628 26.4359C3.57221 26.2618 3.47382 26.0272 3.47382 25.7774C3.47382 25.5277 3.57221 25.2931 3.74628 25.119C3.92034 24.9449 4.15495 24.8466 4.4047 24.8466C4.65445 24.8466 4.88906 24.9449 5.06313 25.119C5.41126 25.4671 5.88048 25.6563 6.37241 25.6563C6.86434 25.6563 7.33356 25.4671 7.68169 25.119C8.38553 24.4152 9.31641 24.0292 10.3003 24.0292C11.2841 24.0292 12.2226 24.4152 12.9188 25.119C13.267 25.4671 13.7362 25.6563 14.2281 25.6563C14.72 25.6563 15.1893 25.4671 15.5374 25.119C16.2412 24.4152 17.1721 24.0292 18.156 24.0292C19.1398 24.0292 20.0783 24.4152 20.7821 25.119C21.1302 25.4671 21.5995 25.6563 22.0914 25.6563C22.5833 25.6563 23.0525 25.4671 23.4007 25.119C24.1045 24.4152 25.0354 24.0292 26.0268 24.0292C27.0182 24.0292 27.9491 24.4152 28.6454 25.119C28.9935 25.4671 29.4627 25.6563 29.9547 25.6563C30.4466 25.6563 30.9158 25.4671 31.2639 25.119C31.438 24.9449 31.6726 24.8466 31.9224 24.8466C32.1721 24.8466 32.4067 24.9449 32.5808 25.119C32.7549 25.2931 32.8532 25.5277 32.8532 25.7774C32.8532 26.0272 32.7549 26.2618 32.5808 26.4359C31.877 27.1321 30.9461 27.5181 29.9547 27.5181Z" fill="#DADADA"/>
<path d="M36.2965 29.2735L28.0397 5.0555C27.964 4.82846 27.7521 4.68466 27.5175 4.68466H22.0155V0.552472C22.0155 0.249748 21.7657 0 21.463 0C21.1603 0 20.9105 0.249748 20.9105 0.552472V1.3774H15.4085V0.552472C15.4085 0.249748 15.1588 0 14.8561 0C14.5533 0 14.3036 0.249748 14.3036 0.552472V4.67709H8.80157C8.56696 4.67709 8.35505 4.82846 8.27937 5.04793L0.0301254 29.2735C-0.0304195 29.44 -0.00014707 29.6292 0.105807 29.773C0.21176 29.9168 0.378259 30 0.552325 30H35.7743C35.9484 30 36.1225 29.9168 36.2208 29.773C36.3268 29.6292 36.3495 29.44 36.2965 29.2735ZM15.4085 2.47477H20.9105V4.67709H15.4085V2.47477ZM15.4085 5.77447H20.9105V7.97679H15.4085V5.77447ZM15.4085 9.07417H20.9105V11.2765H15.4085V9.07417ZM1.3167 28.8951L9.20268 5.78204H14.3112V13.2139C14.3112 13.5166 14.5609 13.7664 14.8636 13.7664C15.1664 13.7664 15.4161 13.5166 15.4161 13.2139V12.389H20.9181V13.2139C20.9181 13.5166 21.1679 13.7664 21.4706 13.7664C21.7733 13.7664 22.0231 13.5166 22.0231 13.2139V5.78204H27.1315L35.0099 28.9026H1.3167V28.8951Z" fill="#222222"/>
<path d="M22.2578 15.4768C21.6448 16.0823 20.6534 16.0823 20.0479 15.4768C19.0111 14.44 17.3234 14.44 16.279 15.4768C15.6736 16.0899 14.6821 16.0823 14.0691 15.4768C13.0323 14.44 11.3446 14.44 10.3002 15.4768C9.69474 16.0823 8.70332 16.0823 8.0903 15.4768C7.87839 15.2649 7.52269 15.2649 7.31079 15.4768C7.09888 15.6887 7.09888 16.0444 7.31079 16.2564C8.34762 17.2932 10.0353 17.2932 11.0797 16.2564C11.6852 15.6433 12.6766 15.6509 13.2896 16.2564C13.8118 16.7786 14.4929 17.0359 15.1741 17.0359C15.8552 17.0359 16.5363 16.7786 17.0585 16.2564C17.664 15.6509 18.663 15.6509 19.2684 16.2564C20.3052 17.2932 21.9929 17.2932 23.0373 16.2564C23.6428 15.6509 24.6418 15.6509 25.2472 16.2564C26.284 17.2932 27.9793 17.2932 29.0161 16.2564C29.228 16.0444 29.228 15.6963 29.0161 15.4768C28.8042 15.2574 28.4561 15.2649 28.2366 15.4768C27.6236 16.0823 26.6397 16.0823 26.0267 15.4768C24.9899 14.44 23.3022 14.44 22.2578 15.4768Z" fill="#222222"/>
<path d="M27.1847 20.4259C26.0192 19.2604 24.1196 19.2604 22.9541 20.4259C22.2427 21.1448 20.994 21.1448 20.2826 20.4259C19.1171 19.2604 17.2175 19.2604 16.052 20.4259C15.3179 21.16 14.1146 21.1675 13.3805 20.4259C12.215 19.2604 10.3154 19.2604 9.14991 20.4259C8.4385 21.1448 7.18977 21.1448 6.47836 20.4259C6.26646 20.214 5.91832 20.214 5.69885 20.4259C5.48694 20.6378 5.48694 20.9859 5.69885 21.2054C6.26646 21.773 7.0157 22.0833 7.81035 22.0833C8.605 22.0833 9.36181 21.773 9.92185 21.2054C10.656 20.4713 11.8593 20.4713 12.5934 21.2054C13.7589 22.3709 15.6585 22.3709 16.824 21.2054C17.5354 20.494 18.7841 20.494 19.4955 21.2054C20.0631 21.773 20.8124 22.0833 21.607 22.0833C22.4017 22.0833 23.1585 21.773 23.7261 21.2054C24.4602 20.4713 25.6635 20.4713 26.3976 21.2054C27.5631 22.3709 29.4627 22.3709 30.6282 21.2054C30.8401 20.9935 30.8401 20.6454 30.6282 20.4259C30.4163 20.2064 30.0682 20.214 29.8487 20.4259C29.1146 21.16 27.9113 21.16 27.1772 20.4259H27.1847Z" fill="#222222"/>
<path d="M28.3804 25.3835C27.7523 24.7554 26.9122 24.4072 26.0267 24.4072C25.1413 24.4072 24.3012 24.7554 23.6731 25.3835C22.8027 26.2538 21.3875 26.2538 20.5172 25.3835C19.889 24.7554 19.0489 24.4072 18.1635 24.4072C17.278 24.4072 16.4379 24.7554 15.8098 25.3835C14.9395 26.2538 13.5242 26.2538 12.6539 25.3835C12.0257 24.7554 11.1857 24.4072 10.3002 24.4072C9.41474 24.4072 8.57468 24.7554 7.94652 25.3835C7.07619 26.2538 5.66095 26.2538 4.79062 25.3835C4.57871 25.1716 4.23058 25.1716 4.0111 25.3835C3.7992 25.5954 3.7992 25.9436 4.0111 26.163C5.31282 27.4572 7.42432 27.4572 8.71847 26.163C9.14228 25.7392 9.70232 25.5122 10.2926 25.5122C10.883 25.5122 11.4506 25.7468 11.8668 26.163C13.1685 27.4572 15.28 27.4572 16.5742 26.163C16.998 25.7392 17.558 25.5122 18.1483 25.5122C18.7387 25.5122 19.3063 25.7468 19.7225 26.163C21.0242 27.4572 23.1357 27.4572 24.4299 26.163C24.8537 25.7392 25.4137 25.5122 26.004 25.5122C26.5944 25.5122 27.162 25.7468 27.5782 26.163C28.2291 26.8139 29.0767 27.1393 29.9319 27.1393C30.7871 27.1393 31.6347 26.8139 32.2856 26.163C32.4975 25.9511 32.4975 25.5954 32.2856 25.3835C32.0737 25.1716 31.7255 25.1716 31.5061 25.3835C30.6357 26.2538 29.2205 26.2538 28.3502 25.3835H28.3804Z" fill="#222222"/>
</g>
<defs>
<clipPath id="clip0_313_14515">
<rect width="36.3269" height="30" fill="white"/>
</clipPath>
</defs>
</svg>
