<svg width="30" height="30" viewBox="0 0 30 30" fill="none" xmlns="http://www.w3.org/2000/svg">
<g clip-path="url(#clip0_313_14525)">
<path d="M18.6313 20.8066H15.7688V28.7816H18.6313V20.8066Z" fill="#FFF2DC"/>
<path d="M14.2375 20.8066H11.375V28.7816H14.2375V20.8066Z" fill="#FFF2DC"/>
<path d="M14.2375 14.1934H11.375V19.2684H14.2375V14.1934Z" fill="#DADADA"/>
<path d="M15 6.04961C16.3313 6.04961 17.4125 4.96836 17.4125 3.63711C17.4125 2.30586 16.3313 1.22461 15 1.22461C13.6688 1.22461 12.5875 2.30586 12.5875 3.63711C12.5875 4.96836 13.6688 6.04961 15 6.04961ZM12.8375 3.63711C12.8375 3.21211 13.1813 2.86836 13.6063 2.86836H14.2375V2.23711C14.2375 1.81211 14.5813 1.46836 15.0063 1.46836C15.4313 1.46836 15.775 1.81211 15.775 2.23711V2.86836H16.4063C16.8313 2.86836 17.175 3.21211 17.175 3.63711C17.175 4.06211 16.8313 4.40586 16.4063 4.40586H15.775V5.03711C15.775 5.46211 15.4313 5.80586 15.0063 5.80586C14.5813 5.80586 14.2375 5.46211 14.2375 5.03711V4.40586H13.6063C13.1813 4.40586 12.8375 4.06211 12.8375 3.63711Z" fill="#FF4755"/>
<path d="M9.8437 14.1934H6.9812V19.2684H9.8437V14.1934Z" fill="#DADADA"/>
<path d="M2.86877 26.6504C2.86877 26.2254 3.21252 25.8816 3.63752 25.8816H9.83752V20.8066H6.97502V24.8316C6.97502 25.2566 6.63127 25.6004 6.20627 25.6004C5.78127 25.6004 5.43752 25.2566 5.43752 24.8316V20.8066H3.63127C3.20627 20.8066 2.86252 20.4629 2.86252 20.0379C2.86252 19.6129 3.20627 19.2691 3.63127 19.2691H5.43752V14.1941H3.63127C3.20627 14.1941 2.86252 13.8504 2.86252 13.4254C2.86252 13.0004 3.20627 12.6566 3.63127 12.6566H5.43752V8.63164C5.43752 8.20664 5.78127 7.86289 6.20627 7.86289C6.63127 7.86289 6.97502 8.20664 6.97502 8.63164V12.6566H9.83752V8.63164C9.83752 8.20664 10.1813 7.86289 10.6063 7.86289C11.0313 7.86289 11.375 8.20664 11.375 8.63164V12.6566H14.2375V8.63164C14.2375 8.20664 14.5813 7.86289 15.0063 7.86289C15.4313 7.86289 15.775 8.20664 15.775 8.63164V12.6566H18.6375V8.63164C18.6375 8.20664 18.9813 7.86289 19.4063 7.86289C19.8313 7.86289 20.175 8.20664 20.175 8.63164V12.6566H23.0375V8.63164C23.0375 8.20664 23.3813 7.86289 23.8063 7.86289C24.2313 7.86289 24.575 8.20664 24.575 8.63164V12.6566H26.3813C26.8063 12.6566 27.15 13.0004 27.15 13.4254C27.15 13.8504 26.8063 14.1941 26.3813 14.1941H24.575V19.2691H26.3813C26.8063 19.2691 27.15 19.6129 27.15 20.0379C27.15 20.4629 26.8063 20.8066 26.3813 20.8066H24.575V24.8316C24.575 25.2566 24.2313 25.6004 23.8063 25.6004C23.3813 25.6004 23.0375 25.2566 23.0375 24.8316V20.8066H20.175V25.8816H26.375C26.8 25.8816 27.1438 26.2254 27.1438 26.6504C27.1438 27.0754 26.8 27.4191 26.375 27.4191H20.175V28.7816H27.4313V7.58789H2.58752V28.7754H9.83752V27.4129H3.63752C3.21252 27.4129 2.86877 27.0691 2.86877 26.6441V26.6504Z" fill="#DADADA"/>
<path d="M23.025 14.1934H20.1625V19.2684H23.025V14.1934Z" fill="#DADADA"/>
<path d="M18.6313 14.1934H15.7688V19.2684H18.6313V14.1934Z" fill="#DADADA"/>
<path d="M29.5438 29.0875H28.6375V6.81875C28.6375 6.56875 28.4312 6.3625 28.1812 6.3625H17.4C18.1562 5.69375 18.6375 4.725 18.6375 3.6375C18.6375 1.63125 17.0063 0 15 0C12.9937 0 11.3625 1.63125 11.3625 3.6375C11.3625 4.725 11.8438 5.7 12.6 6.3625H1.81875C1.56875 6.3625 1.3625 6.56875 1.3625 6.81875V29.0875H0.45625C0.20625 29.0875 0 29.2938 0 29.5438C0 29.7938 0.20625 30 0.45625 30H29.5438C29.7938 30 30 29.7938 30 29.5438C30 29.2938 29.7938 29.0875 29.5438 29.0875ZM12.275 3.6375C12.275 2.13125 13.5 0.9125 15 0.9125C16.5 0.9125 17.725 2.1375 17.725 3.6375C17.725 5.1375 16.5 6.3625 15 6.3625C13.5 6.3625 12.275 5.1375 12.275 3.6375ZM10.1562 19.5812H6.66875V13.8812H10.1562V19.5812ZM14.55 29.0875H11.0625V20.4875H14.55V29.0875ZM14.55 19.5812H11.0625V13.8812H14.55V19.5812ZM18.9438 29.0875H15.4562V20.4875H18.9438V29.0875ZM18.9438 19.5812H15.4562V13.8812H18.9438V19.5812ZM27.7312 29.0875H19.85V27.1H26.3625C26.6125 27.1 26.8188 26.8938 26.8188 26.6438C26.8188 26.3938 26.6125 26.1875 26.3625 26.1875H19.85V20.4875H23.3375V24.825C23.3375 25.075 23.5437 25.2812 23.7938 25.2812C24.0438 25.2812 24.25 25.075 24.25 24.825V20.4875H26.3687C26.6187 20.4875 26.825 20.2812 26.825 20.0312C26.825 19.7812 26.6187 19.575 26.3687 19.575H24.25V13.875H26.3687C26.6187 13.875 26.825 13.6687 26.825 13.4187C26.825 13.1687 26.6187 12.9625 26.3687 12.9625H24.25V8.625C24.25 8.375 24.0438 8.16875 23.7938 8.16875C23.5437 8.16875 23.3375 8.375 23.3375 8.625V12.9625H19.85V8.625C19.85 8.375 19.6438 8.16875 19.3938 8.16875C19.1438 8.16875 18.9375 8.375 18.9375 8.625V12.9625H15.45V8.625C15.45 8.375 15.2437 8.16875 14.9937 8.16875C14.7437 8.16875 14.5375 8.375 14.5375 8.625V12.9625H11.05V8.625C11.05 8.375 10.8438 8.16875 10.5938 8.16875C10.3438 8.16875 10.1375 8.375 10.1375 8.625V12.9625H6.65V8.625C6.65 8.375 6.44375 8.16875 6.19375 8.16875C5.94375 8.16875 5.7375 8.375 5.7375 8.625V12.9625H3.61875C3.36875 12.9625 3.1625 13.1687 3.1625 13.4187C3.1625 13.6687 3.36875 13.875 3.61875 13.875H5.7375V19.575H3.61875C3.36875 19.575 3.1625 19.7812 3.1625 20.0312C3.1625 20.2812 3.36875 20.4875 3.61875 20.4875H5.7375V24.825C5.7375 25.075 5.94375 25.2812 6.19375 25.2812C6.44375 25.2812 6.65 25.075 6.65 24.825V20.4875H10.1375V26.1875H3.6375C3.3875 26.1875 3.18125 26.3938 3.18125 26.6438C3.18125 26.8938 3.3875 27.1 3.6375 27.1H10.15V29.0875H2.275V7.275H27.725V29.0875H27.7312ZM19.85 19.5812V13.8812H23.3375V19.5812H19.85Z" fill="#222222"/>
<path d="M13.6 4.08789H14.5438V5.03164C14.5438 5.28164 14.75 5.48789 15 5.48789C15.25 5.48789 15.4563 5.28164 15.4563 5.03164V4.08789H16.4C16.65 4.08789 16.8563 3.88164 16.8563 3.63164C16.8563 3.38164 16.65 3.17539 16.4 3.17539H15.4563V2.23164C15.4563 1.98164 15.25 1.77539 15 1.77539C14.75 1.77539 14.5438 1.98164 14.5438 2.23164V3.17539H13.6C13.35 3.17539 13.1438 3.38164 13.1438 3.63164C13.1438 3.88164 13.35 4.08789 13.6 4.08789Z" fill="#222222"/>
</g>
<defs>
<clipPath id="clip0_313_14525">
<rect width="30" height="30" fill="white"/>
</clipPath>
</defs>
</svg>
