<svg width="30" height="30" viewBox="0 0 30 30" fill="none" xmlns="http://www.w3.org/2000/svg">
<g clip-path="url(#clip0_313_14564)">
<path d="M23.4437 23.6436H19.4187H10.5812H6.55623H3.14373L1.75623 26.1373H28.2437L26.8562 23.6436H23.4437Z" fill="#DADADA"/>
<path d="M18.8937 17.3754L20.6625 16.1191C20.7937 16.0254 20.9437 15.9754 21.1062 15.9754H26.5375V11.0566H17.3187V15.9754H18.1187C18.5437 15.9754 18.8875 16.3191 18.8875 16.7441V17.3754H18.8937Z" fill="#FF4755"/>
<path d="M21.225 2.66914L20.8625 2.30664V3.03789H21.5875L21.225 2.66914Z" fill="#DADADA"/>
<path d="M18.5687 19.4812C18.4374 19.575 18.2812 19.625 18.125 19.625C18 19.625 17.8812 19.5938 17.775 19.5375C17.5187 19.4062 17.3625 19.1437 17.3625 18.8562V17.5125H16.5625C16.1375 17.5125 15.7937 17.1687 15.7937 16.7437V10.2875C15.7937 9.8625 16.1375 9.51875 16.5625 9.51875H22.6812V4.56875H20.1C19.675 4.56875 19.3312 4.225 19.3312 3.8V1.21875H7.32495V22.1062H22.6749V17.5063H21.35L18.5687 19.4812ZM20.4562 6.29375C20.8812 6.29375 21.2249 6.6375 21.2249 7.0625C21.2249 7.4875 20.8812 7.83125 20.4562 7.83125H14.7375C14.3125 7.83125 13.9687 7.4875 13.9687 7.0625C13.9687 6.6375 14.3125 6.29375 14.7375 6.29375H20.4562ZM9.7187 3.06875H15.075C15.5 3.06875 15.8437 3.4125 15.8437 3.8375C15.8437 4.2625 15.5 4.60625 15.075 4.60625H9.7187C9.2937 4.60625 8.94995 4.2625 8.94995 3.8375C8.94995 3.4125 9.2937 3.06875 9.7187 3.06875ZM9.7187 6.29375H12.5937C13.0187 6.29375 13.3625 6.6375 13.3625 7.0625C13.3625 7.4875 13.0187 7.83125 12.5937 7.83125H9.7187C9.2937 7.83125 8.94995 7.4875 8.94995 7.0625C8.94995 6.6375 9.2937 6.29375 9.7187 6.29375ZM9.7187 9.51875H14.4875C14.9125 9.51875 15.2562 9.8625 15.2562 10.2875C15.2562 10.7125 14.9125 11.0563 14.4875 11.0563H9.7187C9.2937 11.0563 8.94995 10.7125 8.94995 10.2875C8.94995 9.8625 9.2937 9.51875 9.7187 9.51875ZM9.7187 12.7437H14.2625C14.6875 12.7437 15.0312 13.0875 15.0312 13.5125C15.0312 13.9375 14.6875 14.2812 14.2625 14.2812H9.7187C9.2937 14.2812 8.94995 13.9375 8.94995 13.5125C8.94995 13.0875 9.2937 12.7437 9.7187 12.7437ZM9.7187 15.9687H14.3562C14.7812 15.9687 15.125 16.3125 15.125 16.7375C15.125 17.1625 14.7812 17.5063 14.3562 17.5063H9.7187C9.2937 17.5063 8.94995 17.1625 8.94995 16.7375C8.94995 16.3125 9.2937 15.9687 9.7187 15.9687ZM16.0562 20.7312H9.7187C9.2937 20.7312 8.94995 20.3875 8.94995 19.9625C8.94995 19.5375 9.2937 19.1937 9.7187 19.1937H16.0562C16.4812 19.1937 16.825 19.5375 16.825 19.9625C16.825 20.3875 16.4812 20.7312 16.0562 20.7312Z" fill="#FFF2DC"/>
<path d="M1.81875 28.7752H28.1812C28.5125 28.7752 28.775 28.5064 28.775 28.1814V27.6689H1.21875V28.1814C1.21875 28.5127 1.4875 28.7752 1.8125 28.7752H1.81875Z" fill="#DADADA"/>
<path d="M25.5812 5.51211H25.8812C26.4187 5.51211 26.8562 5.94961 26.8562 6.48086V8.08711C26.8562 8.33711 27.0625 8.54336 27.3125 8.54336C27.5625 8.54336 27.7687 8.33711 27.7687 8.08711V6.48086C27.7687 5.44336 26.925 4.59961 25.8875 4.59961H25.5875C25.3375 4.59961 25.1312 4.80586 25.1312 5.05586C25.1312 5.30586 25.3375 5.51211 25.5875 5.51211H25.5812Z" fill="#222222"/>
<path d="M30 26.8937C30 26.8438 29.9875 26.7937 29.9688 26.75C29.9688 26.7375 29.9625 26.725 29.9562 26.7125C29.9562 26.7063 29.9562 26.6937 29.9438 26.6812L27.7687 22.7563V18.9438C27.7687 18.6938 27.5625 18.4875 27.3125 18.4875C27.0625 18.4875 26.8563 18.6938 26.8563 18.9438V22.4187H23.9V17.1938H27.3125C27.5625 17.1938 27.7687 16.9875 27.7687 16.7375V10.2812C27.7687 10.0312 27.5625 9.825 27.3125 9.825H23.9V3.8C23.9 3.8 23.9 3.78125 23.9 3.775C23.9 3.7375 23.8875 3.69375 23.875 3.65625C23.875 3.64375 23.8687 3.625 23.8625 3.6125C23.8375 3.5625 23.8125 3.51875 23.775 3.48125L20.4125 0.13125C20.375 0.09375 20.325 0.0625 20.2812 0.04375C20.2688 0.0375 20.25 0.03125 20.2375 0.025C20.2 0.0125 20.1625 0.00625 20.125 0C20.1125 0 20.1063 0 20.0938 0H6.55625C6.30625 0 6.1 0.20625 6.1 0.45625V22.4187H3.14375V6.48125C3.14375 5.94375 3.58125 5.5125 4.11875 5.5125H4.41875C4.66875 5.5125 4.875 5.30625 4.875 5.05625C4.875 4.80625 4.66875 4.6 4.41875 4.6H4.11875C3.08125 4.6 2.2375 5.44375 2.2375 6.48125V22.7563L0.05625 26.6812C0.05625 26.6812 0.05 26.7 0.04375 26.7125C0.04375 26.725 0.03125 26.7375 0.03125 26.75C0.0125 26.8 0 26.85 0 26.9V28.1875C0 29.1875 0.8125 30.0062 1.81875 30.0062H28.1812C29.1875 30.0062 30 29.1875 30 28.1875V26.9V26.8937ZM26.8563 10.7438V16.2875H21.1125C21.0187 16.2875 20.925 16.3188 20.85 16.3687L18.5875 17.975V16.7438C18.5875 16.4937 18.3813 16.2875 18.1313 16.2875H17.0187V10.7438H26.8625H26.8563ZM20.55 1.55L21.45 2.45L22.35 3.35H20.55V1.55ZM7.0125 0.90625H19.6375V3.8C19.6375 4.05 19.8438 4.25625 20.0938 4.25625H22.9875V9.8375H16.5562C16.3062 9.8375 16.1 10.0437 16.1 10.2937V16.75C16.1 17 16.3062 17.2063 16.5562 17.2063H17.6688V18.8625C17.6688 19.0312 17.7625 19.1875 17.9125 19.2687C17.9813 19.3 18.05 19.3188 18.1187 19.3188C18.2125 19.3188 18.3062 19.2875 18.3813 19.2375L21.2438 17.2063H22.975V22.4312H7.0125V0.90625ZM2.95625 23.3313H27.0438L28.775 26.45H1.225L2.95625 23.3313ZM29.0875 28.1812C29.0875 28.6812 28.6812 29.0875 28.1812 29.0875H1.81875C1.31875 29.0875 0.9125 28.6812 0.9125 28.1812V27.3563H29.0875V28.1812Z" fill="#222222"/>
<path d="M9.7187 4.2875H15.075C15.325 4.2875 15.5312 4.08125 15.5312 3.83125C15.5312 3.58125 15.325 3.375 15.075 3.375H9.7187C9.4687 3.375 9.26245 3.58125 9.26245 3.83125C9.26245 4.08125 9.4687 4.2875 9.7187 4.2875Z" fill="#222222"/>
<path d="M14.2875 7.0627C14.2875 7.3127 14.4937 7.51895 14.7437 7.51895H20.4625C20.7125 7.51895 20.9187 7.3127 20.9187 7.0627C20.9187 6.8127 20.7125 6.60645 20.4625 6.60645H14.7437C14.4937 6.60645 14.2875 6.8127 14.2875 7.0627Z" fill="#222222"/>
<path d="M9.7187 7.51895H12.5937C12.8437 7.51895 13.05 7.3127 13.05 7.0627C13.05 6.8127 12.8437 6.60645 12.5937 6.60645H9.7187C9.4687 6.60645 9.26245 6.8127 9.26245 7.0627C9.26245 7.3127 9.4687 7.51895 9.7187 7.51895Z" fill="#222222"/>
<path d="M9.7187 10.7436H14.4875C14.7375 10.7436 14.9437 10.5373 14.9437 10.2873C14.9437 10.0373 14.7375 9.83105 14.4875 9.83105H9.7187C9.4687 9.83105 9.26245 10.0373 9.26245 10.2873C9.26245 10.5373 9.4687 10.7436 9.7187 10.7436Z" fill="#222222"/>
<path d="M9.7187 13.9691H14.2625C14.5125 13.9691 14.7187 13.7629 14.7187 13.5129C14.7187 13.2629 14.5125 13.0566 14.2625 13.0566H9.7187C9.4687 13.0566 9.26245 13.2629 9.26245 13.5129C9.26245 13.7629 9.4687 13.9691 9.7187 13.9691Z" fill="#222222"/>
<path d="M9.7187 17.1996H14.3562C14.6062 17.1996 14.8125 16.9934 14.8125 16.7434C14.8125 16.4934 14.6062 16.2871 14.3562 16.2871H9.7187C9.4687 16.2871 9.26245 16.4934 9.26245 16.7434C9.26245 16.9934 9.4687 17.1996 9.7187 17.1996Z" fill="#222222"/>
<path d="M16.5125 19.9689C16.5125 19.7189 16.3062 19.5127 16.0562 19.5127H9.7187C9.4687 19.5127 9.26245 19.7189 9.26245 19.9689C9.26245 20.2189 9.4687 20.4252 9.7187 20.4252H16.0562C16.3062 20.4252 16.5125 20.2189 16.5125 19.9689Z" fill="#222222"/>
</g>
<defs>
<clipPath id="clip0_313_14564">
<rect width="30" height="30" fill="white"/>
</clipPath>
</defs>
</svg>
