<svg width="33" height="30" viewBox="0 0 33 30" fill="none" xmlns="http://www.w3.org/2000/svg">
<g clip-path="url(#clip0_313_14424)">
<path d="M21.4363 2.22491C20.838 1.99637 20.2263 1.80815 19.6213 1.66699C21.1539 2.99121 22.4647 4.57087 23.473 6.31185C24.2393 5.86148 24.9653 5.33717 25.6307 4.75236C25.4896 4.62464 25.3417 4.51037 25.2073 4.40282C24.804 4.68514 24.3267 4.83975 23.8427 4.83975C22.5118 4.83975 21.4295 3.75751 21.4295 2.42657C21.4295 2.35935 21.4295 2.29885 21.4363 2.23163V2.22491Z" fill="#DADADA"/>
<path d="M18.7609 7.97224C19.8969 7.79747 20.9859 7.48826 22.0009 7.05133C20.8514 5.0818 19.2718 3.35427 17.4098 2.0166V6.72868C18.0013 6.9505 18.492 7.40087 18.7609 7.97224Z" fill="#DADADA"/>
<path d="M9.70642 6.31174C10.708 4.56403 12.0188 2.97766 13.5447 1.66016C11.7701 2.07019 10.0829 2.83649 8.59058 3.91873C8.69141 4.1876 8.73847 4.4632 8.73847 4.7388C8.73847 5.0144 8.68469 5.29672 8.58386 5.5656C8.98046 5.85464 9.35016 6.10336 9.70642 6.31174Z" fill="#DADADA"/>
<path d="M14.4051 7.97884C14.674 7.40076 15.1647 6.95039 15.7562 6.72856V2.00977C13.8943 3.34071 12.328 5.06825 11.1719 7.05122C12.1802 7.48142 13.2691 7.79063 14.3984 7.97212L14.4051 7.97884Z" fill="#DADADA"/>
<path d="M4.3356 14.1762H7.38736C7.50163 11.9579 8.02594 9.81364 8.94685 7.78362C8.48303 7.51474 8.0125 7.19881 7.5218 6.8291C7.15881 7.0442 6.74877 7.15175 6.32529 7.15175C6.04969 7.15175 5.77409 7.09798 5.50522 7.00387C4.26166 8.72469 3.42814 10.7278 3.09204 12.8251C3.66341 13.0939 4.1205 13.5846 4.3356 14.1762Z" fill="#DADADA"/>
<path d="M19.9574 18.7676C21.2883 18.7676 22.3706 19.8498 22.3706 21.1807C22.3706 21.2278 22.3706 21.2748 22.3706 21.3152C22.505 21.369 22.6327 21.4227 22.7537 21.4765C23.5604 19.6817 24.0242 17.7862 24.1384 15.8301H17.4165V20.2195C17.5241 20.2195 17.6383 20.2329 17.7526 20.2464C18.129 19.3591 18.9827 18.7743 19.9641 18.7743L19.9574 18.7676Z" fill="#DADADA"/>
<path d="M26.8003 5.9082C26.0071 6.62073 25.14 7.24587 24.2325 7.7769C24.3871 8.11972 24.535 8.48943 24.6896 8.90619C25.9668 8.96668 26.9885 10.022 26.9885 11.3126C26.9885 12.1999 26.5046 13.0066 25.7315 13.43C25.7584 13.6989 25.7719 13.9409 25.7853 14.1762H30.2352C30.0537 11.1177 28.8371 8.20711 26.7936 5.9082H26.8003Z" fill="#DADADA"/>
<path d="M18.9021 9.63256C18.6937 10.3787 18.1358 10.9837 17.4098 11.2458V14.1699H24.1384C24.1317 14.0085 24.1183 13.8405 24.0981 13.6657C22.9957 13.4439 22.1622 12.4558 22.1622 11.313C22.1622 10.5535 22.5117 9.8611 23.1167 9.40401C22.9957 9.08136 22.8814 8.79231 22.7605 8.52344C21.5371 9.06119 20.2397 9.43762 18.9021 9.63256Z" fill="#DADADA"/>
<path d="M25.7853 15.8231C25.671 18.0414 25.1467 20.1857 24.2258 22.2157C25.1467 22.7467 26.0071 23.3719 26.8071 24.0844C27.3919 23.4256 27.9229 22.6929 28.3867 21.9065C28.0036 21.4696 27.7817 20.9049 27.7817 20.3201C27.7817 19.0698 28.7362 18.0414 29.9529 17.9204C30.1075 17.2213 30.2084 16.5155 30.2487 15.8164H25.792L25.7853 15.8231Z" fill="#DADADA"/>
<path d="M23.4663 23.6885C22.4647 25.4362 21.1539 27.0226 19.6213 28.3401C21.8463 27.8359 23.8965 26.7873 25.6307 25.2547C24.9586 24.6632 24.2326 24.1321 23.4663 23.6885Z" fill="#DADADA"/>
<path d="M21.7051 22.8273C21.248 23.3113 20.6229 23.5869 19.9574 23.5869C18.8886 23.5869 17.961 22.8811 17.6518 21.8795C17.5644 21.8795 17.4837 21.8661 17.4098 21.8594V27.9831C19.2718 26.6521 20.838 24.9246 21.9942 22.9416C21.9 22.9013 21.8059 22.8677 21.7051 22.8273Z" fill="#DADADA"/>
<path d="M6.36562 24.0913C6.79583 23.7082 7.25292 23.3385 7.7369 23.0024C7.71001 22.8612 7.69657 22.7335 7.69657 22.5991C7.69657 21.9672 7.952 21.3622 8.40237 20.9119C7.80412 19.2583 7.4613 17.5509 7.38064 15.8301H4.3356C4.11378 16.4216 3.66341 16.9123 3.09204 17.1812C3.5088 19.7691 4.63136 22.1487 6.36562 24.0981V24.0913Z" fill="#DADADA"/>
<path d="M14.264 9.61911C12.9129 9.41746 11.6222 9.04775 10.419 8.52344C9.61239 10.3182 9.14857 12.2138 9.0343 14.1699H10.4594C10.8022 13.2221 11.6962 12.5835 12.7179 12.5835C13.7397 12.5835 14.6337 13.2221 14.9765 14.1699H15.7562V11.2458C15.0235 10.9769 14.4656 10.372 14.2572 9.61911H14.264Z" fill="#DADADA"/>
<path d="M7.54199 25.2548C9.27625 26.7874 11.3332 27.8427 13.5648 28.3401C12.4154 27.352 11.4004 26.2227 10.5265 24.9657C10.3854 24.9926 10.2509 25.006 10.1165 25.006C9.54513 25.006 9.00737 24.8044 8.57717 24.4414C8.19402 24.717 7.85792 24.9859 7.54871 25.2548H7.54199Z" fill="#DADADA"/>
<path d="M10.4594 15.8232H9.02759C9.10153 17.3021 9.39057 18.7674 9.89472 20.1925C9.96194 20.1925 10.0359 20.1858 10.1031 20.1858C10.7686 20.1858 11.3937 20.4614 11.8508 20.9454C13.1347 20.5286 14.4455 20.2799 15.7562 20.2127V15.83H14.9765C14.6337 16.7778 13.7397 17.4163 12.7179 17.4163C11.6962 17.4163 10.8022 16.7778 10.4594 15.83V15.8232Z" fill="#DADADA"/>
<path d="M15.763 27.9832V21.8662C14.674 21.9334 13.5918 22.1351 12.523 22.4645C12.523 22.5048 12.523 22.5518 12.523 22.5989C12.523 23.1703 12.3214 23.708 11.9584 24.1449C13.0204 25.6439 14.2976 26.9278 15.763 27.9832Z" fill="#DADADA"/>
<path d="M6.32537 5.50549C6.74213 5.50549 7.08495 5.16267 7.08495 4.74591C7.08495 4.32915 6.74213 3.98633 6.32537 3.98633C5.90861 3.98633 5.5658 4.32915 5.5658 4.74591C5.5658 5.16267 5.90861 5.50549 6.32537 5.50549Z" fill="#FFF2DC"/>
<path d="M24.5754 12.0729C24.9989 12.0729 25.335 11.73 25.335 11.3133C25.335 10.8965 24.9921 10.5537 24.5754 10.5537C24.1586 10.5537 23.8158 10.8965 23.8158 11.3133C23.8158 11.73 24.1586 12.0729 24.5754 12.0729Z" fill="#FFF2DC"/>
<path d="M19.1979 21.1736C19.1979 21.5904 19.5407 21.9332 19.9575 21.9332C20.3742 21.9332 20.717 21.5904 20.717 21.1736C20.717 20.7569 20.3742 20.4141 19.9575 20.4141C19.5407 20.4141 19.1979 20.7569 19.1979 21.1736Z" fill="#FFF2DC"/>
<path d="M2.07708 15.7633C2.49384 15.7633 2.83666 15.4205 2.83666 15.0037C2.83666 14.587 2.49384 14.2441 2.07708 14.2441C1.66032 14.2441 1.3175 14.587 1.3175 15.0037C1.3175 15.4205 1.66032 15.7633 2.07708 15.7633Z" fill="#FFF2DC"/>
<path d="M23.8427 1.65332C23.4259 1.65332 23.0831 1.99614 23.0831 2.4129C23.0831 2.82966 23.4259 3.17248 23.8427 3.17248C24.2595 3.17248 24.6023 2.82966 24.6023 2.4129C24.6023 1.99614 24.2595 1.65332 23.8427 1.65332Z" fill="#FFF2DC"/>
<path d="M15.8235 8.98712C15.8235 9.40388 16.1663 9.7467 16.5831 9.7467C16.9998 9.7467 17.3426 9.40388 17.3426 8.98712C17.3426 8.57036 16.9998 8.22754 16.5831 8.22754C16.1663 8.22754 15.8235 8.57036 15.8235 8.98712Z" fill="#FFF2DC"/>
<path d="M30.1882 19.5605C29.7714 19.5605 29.4286 19.9034 29.4286 20.3201C29.4286 20.7369 29.7714 21.0797 30.1882 21.0797C30.6049 21.0797 30.9477 20.7369 30.9477 20.3201C30.9477 19.9034 30.6049 19.5605 30.1882 19.5605Z" fill="#FFF2DC"/>
<path d="M10.1098 23.359C10.5333 23.359 10.8694 23.0162 10.8694 22.5994C10.8694 22.1827 10.5266 21.8398 10.1098 21.8398C9.69304 21.8398 9.35022 22.1827 9.35022 22.5994C9.35022 23.0162 9.69304 23.359 10.1098 23.359Z" fill="#FFF2DC"/>
<path d="M13.4842 14.9969C13.4842 14.5801 13.1414 14.2373 12.7247 14.2373C12.3079 14.2373 11.9651 14.5801 11.9651 14.9969C11.9651 15.4136 12.3079 15.7565 12.7247 15.7565C13.1414 15.7565 13.4842 15.4136 13.4842 14.9969Z" fill="#FFF2DC"/>
<path d="M31.1629 18.4988C31.4318 17.3762 31.5864 16.2066 31.5864 14.9966C31.5864 10.8694 29.9126 7.13197 27.2171 4.42303C27.2104 4.40959 27.2037 4.39615 27.1969 4.38942C27.1835 4.3827 27.1701 4.37598 27.1633 4.36926C26.7264 3.93905 26.2626 3.54246 25.7786 3.16603C25.8727 2.93076 25.9265 2.68205 25.9265 2.41317C25.9265 1.27045 24.9922 0.336097 23.8494 0.336097C23.1974 0.336097 22.626 0.638584 22.2429 1.10912C20.4952 0.403316 18.5861 0 16.5897 0C13.1884 0 10.056 1.14273 7.53528 3.05176C7.19246 2.80977 6.78242 2.66189 6.33206 2.66189C5.18933 2.66189 4.25498 3.58951 4.25498 4.73897C4.25498 5.18933 4.40286 5.60609 4.65157 5.94891C3.12569 7.95205 2.10396 10.3451 1.7477 12.9532C0.766293 13.1145 0.00671387 13.9682 0.00671387 14.9966C0.00671387 16.0251 0.759571 16.8721 1.73425 17.0401C2.18462 20.3473 3.71722 23.3117 5.96235 25.5702C5.96907 25.577 5.97579 25.5904 5.98251 25.6039C5.98924 25.6106 6.00268 25.6173 6.01612 25.624C8.73179 28.3262 12.4625 29.9933 16.583 29.9933H16.5897C20.7103 29.9933 24.4477 28.3195 27.1566 25.624C27.1701 25.6173 27.1768 25.6106 27.1902 25.6039C27.1969 25.5971 27.2037 25.5837 27.2104 25.5702C28.1649 24.609 28.985 23.5133 29.6505 22.3235C29.8252 22.3706 30 22.4042 30.1815 22.4042C31.3242 22.4042 32.2586 21.4699 32.2586 20.3271C32.2586 19.5339 31.8082 18.855 31.1494 18.5055L31.1629 18.4988ZM30.5982 14.5059H25.4694C25.456 14.0757 25.4224 13.6455 25.382 13.222C26.1282 12.9061 26.6592 12.1667 26.6592 11.3063C26.6592 10.1636 25.7248 9.22922 24.5821 9.22922C24.5418 9.22922 24.5014 9.23594 24.4611 9.24266C24.2662 8.69818 24.0511 8.15371 23.7956 7.6294C24.8846 7.03115 25.8996 6.29173 26.8205 5.43132C29.0589 7.83106 30.4705 11.0038 30.5915 14.5059H30.5982ZM19.9641 19.097C19.0231 19.097 18.2366 19.7289 17.9812 20.5893C17.6787 20.5624 17.3829 20.5422 17.0804 20.5288V15.4873H24.488C24.4073 17.7392 23.8629 19.9238 22.9218 21.9135C22.6193 21.7723 22.3168 21.6446 22.0076 21.5304C22.0278 21.4161 22.0412 21.3018 22.0412 21.1808C22.0412 20.0381 21.1069 19.1037 19.9641 19.1037V19.097ZM21.0598 21.1741C21.0598 21.7791 20.5691 22.2698 19.9641 22.2698C19.3592 22.2698 18.8685 21.7791 18.8685 21.1741C18.8685 20.5691 19.3592 20.0784 19.9641 20.0784C20.5691 20.0784 21.0598 20.5691 21.0598 21.1741ZM17.0804 14.5059V10.9971C17.8803 10.8022 18.492 10.1501 18.6332 9.33005C20.1322 9.12839 21.5774 8.70491 22.9352 8.07304C23.1638 8.5503 23.3587 9.03428 23.5335 9.52498C22.9218 9.88797 22.5118 10.5467 22.5118 11.3063C22.5118 12.3952 23.352 13.2758 24.4208 13.3632C24.4611 13.7396 24.488 14.1161 24.5014 14.4992H17.0872L17.0804 14.5059ZM23.4864 11.3063C23.4864 10.7013 23.9771 10.2106 24.5821 10.2106C25.1871 10.2106 25.6778 10.7013 25.6778 11.3063C25.6778 11.9113 25.1871 12.402 24.5821 12.402C23.9771 12.402 23.4864 11.9113 23.4864 11.3063ZM23.8494 1.3175C24.4544 1.3175 24.9451 1.8082 24.9451 2.41317C24.9451 3.01815 24.4544 3.50885 23.8494 3.50885C23.2444 3.50885 22.7537 3.01815 22.7537 2.41317C22.7537 1.8082 23.2444 1.3175 23.8494 1.3175ZM21.8127 2.00986C21.7858 2.1443 21.7723 2.27874 21.7723 2.4199C21.7723 3.56263 22.7067 4.49697 23.8494 4.49697C24.3737 4.49697 24.851 4.29532 25.214 3.97266C25.5299 4.22138 25.8458 4.47009 26.1416 4.74569C25.2879 5.53888 24.3536 6.21779 23.352 6.76899C22.1421 4.57092 20.4548 2.62828 18.3778 1.1024C19.581 1.257 20.7237 1.57293 21.8127 2.01658V2.00986ZM17.0804 1.378C19.3592 2.88371 21.201 4.90029 22.4781 7.21264C21.2413 7.784 19.9171 8.16043 18.5525 8.34864C18.3307 7.66973 17.7728 7.15214 17.0804 6.97737V1.378ZM8.17387 3.81134C10.0695 2.38629 12.328 1.41833 14.7883 1.1024C12.7246 2.62156 11.0441 4.57092 9.83418 6.77571C9.2561 6.45978 8.7049 6.08335 8.17387 5.68004C8.31503 5.39771 8.40913 5.08178 8.40913 4.74569C8.40913 4.40959 8.32175 4.09366 8.18059 3.81806L8.17387 3.81134ZM16.099 1.378V6.97737C15.3999 7.14542 14.8487 7.66973 14.6269 8.34864C13.2624 8.16043 11.9449 7.784 10.708 7.21264C11.9852 4.88685 13.827 2.87027 16.099 1.37127V1.378ZM6.32533 3.64329C6.93031 3.64329 7.42101 4.13399 7.42101 4.73897C7.42101 5.34394 6.93031 5.83464 6.32533 5.83464C5.72036 5.83464 5.22966 5.34394 5.22966 4.73897C5.22966 4.13399 5.72036 3.64329 6.32533 3.64329ZM5.39771 6.5875C5.68003 6.72866 5.98924 6.81604 6.32533 6.81604C6.7757 6.81604 7.19246 6.66816 7.53528 6.41945C8.12681 6.86982 8.73851 7.28658 9.38381 7.64284C8.3688 9.77369 7.78399 12.1062 7.71005 14.5127H4.08693C3.91888 13.8136 3.39457 13.2624 2.71565 13.0406C3.05175 10.6408 3.99954 8.44275 5.39098 6.5875H5.39771ZM0.974673 14.9966C0.974673 14.3917 1.46537 13.901 2.07035 13.901C2.67532 13.901 3.16602 14.3917 3.16602 14.9966C3.16602 15.6016 2.67532 16.0923 2.07035 16.0923C1.46537 16.0923 0.974673 15.6016 0.974673 14.9966ZM2.72238 16.9594C3.39457 16.7376 3.91888 16.1797 4.08693 15.4873H7.70333C7.75038 17.3896 8.13353 19.2449 8.79228 20.9993C8.32847 21.3825 8.03271 21.9471 8.03271 22.5924C8.03271 22.7806 8.06631 22.9621 8.11337 23.1369C7.49495 23.5604 6.90342 24.0376 6.3455 24.5552C4.42303 22.4983 3.13241 19.87 2.72238 16.9527V16.9594ZM7.03786 25.2543C7.52856 24.7972 8.05959 24.3872 8.59735 24.0108C8.97378 24.4141 9.51153 24.6695 10.1098 24.6695C10.3047 24.6695 10.4862 24.6359 10.6677 24.5821C11.7768 26.2223 13.1683 27.6877 14.8017 28.8976C11.8239 28.5145 9.1351 27.2037 7.04458 25.2476L7.03786 25.2543ZM9.01411 22.5991C9.01411 21.9942 9.50481 21.5035 10.1098 21.5035C10.7148 21.5035 11.2055 21.9942 11.2055 22.5991C11.2055 23.2041 10.7148 23.6948 10.1098 23.6948C9.50481 23.6948 9.01411 23.2041 9.01411 22.5991ZM16.099 28.622C14.2639 27.4121 12.7246 25.866 11.5214 24.1116C11.9247 23.7352 12.1869 23.1974 12.1869 22.5991C12.1869 22.4714 12.1734 22.3504 12.1465 22.2294C13.4103 21.8127 14.7345 21.5572 16.0923 21.5102V28.622H16.099ZM16.099 20.5355C14.5933 20.5826 13.1347 20.8649 11.7499 21.3354C11.3668 20.8447 10.782 20.5221 10.1165 20.5221C9.96862 20.5221 9.82746 20.5355 9.6863 20.5691C9.08133 18.9491 8.73851 17.2418 8.69145 15.4941H10.7215C10.9433 16.4015 11.7567 17.0804 12.7313 17.0804C13.706 17.0804 14.5194 16.4015 14.7412 15.4941H16.1057V20.5355H16.099ZM11.6289 15.0034C11.6289 14.3984 12.1196 13.9077 12.7246 13.9077C13.3296 13.9077 13.8203 14.3984 13.8203 15.0034C13.8203 15.6083 13.3296 16.099 12.7246 16.099C12.1196 16.099 11.6289 15.6083 11.6289 15.0034ZM16.099 14.5127H14.7345C14.5127 13.6052 13.6993 12.9263 12.7246 12.9263C11.7499 12.9263 10.9366 13.6052 10.7148 14.5127H8.69145C8.77212 12.2608 9.3166 10.0762 10.2644 8.08649C11.6155 8.71163 13.0607 9.12167 14.553 9.32333C14.6874 10.1501 15.3058 10.8089 16.1057 11.0038V14.5127H16.099ZM16.5897 10.0896C15.9848 10.0896 15.4941 9.59892 15.4941 8.99395C15.4941 8.38898 15.9848 7.89827 16.5897 7.89827C17.1947 7.89827 17.6854 8.38898 17.6854 8.99395C17.6854 9.59892 17.1947 10.0896 16.5897 10.0896ZM17.0804 21.5102C17.3628 21.5169 17.6451 21.5438 17.9274 21.5707C18.1089 22.5252 18.9559 23.2579 19.9641 23.2579C20.6363 23.2579 21.2346 22.9285 21.611 22.4311C21.9001 22.5454 22.1891 22.6596 22.4714 22.7874C21.1943 25.1132 19.3524 27.1297 17.0804 28.6287V21.5102ZM18.3912 28.9043C20.4548 27.3852 22.1353 25.4358 23.3453 23.231C24.3468 23.7822 25.2812 24.4611 26.1416 25.2543C24.0511 27.2037 21.369 28.5145 18.3912 28.8976V28.9043ZM26.834 24.5687C25.9063 23.7015 24.8846 22.9621 23.7956 22.3639C24.8107 20.233 25.3955 17.9005 25.4694 15.4941H30.605C30.5714 16.4419 30.4369 17.3628 30.2285 18.2568C30.2218 18.2568 30.2084 18.2568 30.2017 18.2568C29.0589 18.2568 28.1246 19.1911 28.1246 20.3339C28.1246 20.9388 28.3934 21.4833 28.8102 21.8665C28.259 22.8479 27.6003 23.7553 26.834 24.5754V24.5687ZM30.1949 21.4295C29.59 21.4295 29.0993 20.9388 29.0993 20.3339C29.0993 19.7289 29.59 19.2382 30.1949 19.2382C30.7999 19.2382 31.2906 19.7289 31.2906 20.3339C31.2906 20.9388 30.7999 21.4295 30.1949 21.4295Z" fill="#222222"/>
</g>
<defs>
<clipPath id="clip0_313_14424">
<rect width="32.2653" height="30" fill="white"/>
</clipPath>
</defs>
</svg>
