<svg width="33" height="30" viewBox="0 0 33 30" fill="none" xmlns="http://www.w3.org/2000/svg">
<g clip-path="url(#clip0_313_14537)">
<path d="M9.94813 10.624H4.23352V14.6209H9.94813V10.624Z" fill="#DADADA"/>
<path d="M1.7245 19.3616V18.8477H1.31873V19.6457H1.43369C1.58924 19.6457 1.71773 19.5172 1.71773 19.3616H1.7245Z" fill="#FFF2DC"/>
<path d="M24.583 20.8496C23.3725 20.8496 22.3918 21.8302 22.3918 23.0408C22.3918 24.2513 23.3725 25.2319 24.583 25.2319C25.7936 25.2319 26.7742 24.2513 26.7742 23.0408C26.7742 21.8302 25.7936 20.8496 24.583 20.8496ZM24.583 23.9267C24.0961 23.9267 23.6971 23.5277 23.6971 23.0408C23.6971 22.5538 24.0961 22.1548 24.583 22.1548C25.0699 22.1548 25.4689 22.5538 25.4689 23.0408C25.4689 23.5277 25.0699 23.9267 24.583 23.9267Z" fill="#FFF2DC"/>
<path d="M7.87866 20.8496C6.66811 20.8496 5.6875 21.8302 5.6875 23.0408C5.6875 24.2513 6.66811 25.2319 7.87866 25.2319C9.08921 25.2319 10.0698 24.2513 10.0698 23.0408C10.0698 21.8302 9.08921 20.8496 7.87866 20.8496ZM7.87866 23.9267C7.39174 23.9267 6.99273 23.5277 6.99273 23.0408C6.99273 22.5538 7.39174 22.1548 7.87866 22.1548C8.36559 22.1548 8.7646 22.5538 8.7646 23.0408C8.7646 23.5277 8.36559 23.9267 7.87866 23.9267Z" fill="#FFF2DC"/>
<path d="M30.6425 19.6525H31.1362V18.8545H30.2367V19.2535C30.2367 19.4767 30.4193 19.6525 30.6357 19.6525H30.6425Z" fill="#FFF2DC"/>
<path d="M17.9351 11.2327C17.5226 10.8404 16.9748 10.624 16.4067 10.624H14.5199V14.6209H21.5127L17.9351 11.2327Z" fill="#DADADA"/>
<path d="M28.5866 19.2533V18.0225C28.5866 17.5626 28.9586 17.1907 29.4184 17.1907H30.9874C30.7304 16.6496 30.1826 16.2845 29.5537 16.2777H13.688C13.2282 16.2777 12.8562 15.9057 12.8562 15.4459V10.6172H11.5983V15.4459C11.5983 15.9057 11.2264 16.2777 10.7665 16.2777H3.40176C2.94188 16.2777 2.56993 15.9057 2.56993 15.4459V10.6172H2.25207C1.7381 10.6172 1.32556 11.0365 1.32556 11.5437V17.1839H2.5564C3.01627 17.1839 3.38823 17.5559 3.38823 18.0157V19.3616C3.38823 20.4368 2.51582 21.3093 1.44053 21.3093H1.32556V21.5865C1.32556 21.945 1.61636 22.229 1.96803 22.229H4.13214C4.51086 20.4774 6.07308 19.1925 7.87876 19.1925C9.68444 19.1925 11.2467 20.4774 11.6254 22.229H20.8229C21.2016 20.4774 22.7638 19.1925 24.5695 19.1925C26.3752 19.1925 27.9374 20.4774 28.3161 22.229H30.4802C30.8386 22.229 31.1227 21.9382 31.1227 21.5798V21.3025H30.629C29.4928 21.3025 28.5663 20.376 28.5663 19.2398L28.5866 19.2533ZM16.1903 18.8543H13.6475C13.1876 18.8543 12.8156 18.4824 12.8156 18.0225C12.8156 17.5626 13.1876 17.1907 13.6475 17.1907H16.1903C16.6502 17.1907 17.0221 17.5626 17.0221 18.0225C17.0221 18.4824 16.6502 18.8543 16.1903 18.8543Z" fill="#FF4755"/>
<path d="M7.87872 22.4932C7.57439 22.4932 7.33093 22.7366 7.33093 23.041C7.33093 23.3453 7.57439 23.5887 7.87872 23.5887C8.18305 23.5887 8.42651 23.3453 8.42651 23.041C8.42651 22.7366 8.18305 22.4932 7.87872 22.4932Z" fill="#222222"/>
<path d="M29.5537 14.9593H24.6168C24.0825 14.9593 23.5821 14.7564 23.1966 14.3913L18.8481 10.2727C18.1853 9.64373 17.3197 9.29883 16.4134 9.29883H2.25203C1.00766 9.29883 0 10.3065 0 11.5509V21.5869C0 22.669 0.87917 23.5549 1.96799 23.5549H4.41614C4.66637 25.2524 6.11362 26.5576 7.87872 26.5576C9.64382 26.5576 11.0911 25.2456 11.3413 23.5549H21.1136C21.3638 25.2524 22.8111 26.5576 24.5762 26.5576C26.3413 26.5576 27.7885 25.2456 28.0388 23.5549H30.4869C31.569 23.5549 32.4549 22.669 32.4549 21.5869V17.8741C32.4549 16.2646 31.1497 14.9593 29.5469 14.9593H29.5537ZM14.1817 10.2862H16.4067C17.0627 10.2862 17.6916 10.5364 18.165 10.9895L22.358 14.9593H14.1749V10.2862H14.1817ZM3.8954 10.2862H10.2795V14.9593H3.8954V10.2862ZM0.980613 18.5098H2.06267V19.3619C2.06267 19.7069 1.78539 19.9841 1.44049 19.9841H0.987376V18.5098H0.980613ZM7.87872 25.5702C6.48557 25.5702 5.34941 24.4341 5.34941 23.0409C5.34941 21.6478 6.48557 20.5116 7.87872 20.5116C9.27187 20.5116 10.408 21.6478 10.408 23.0409C10.408 24.4341 9.27187 25.5702 7.87872 25.5702ZM24.5762 25.5702C23.183 25.5702 22.0469 24.4341 22.0469 23.0409C22.0469 21.6478 23.183 20.5116 24.5762 20.5116C25.9693 20.5116 27.1055 21.6478 27.1055 23.0409C27.1055 24.4341 25.9693 25.5702 24.5762 25.5702ZM31.4743 21.5802C31.4743 22.1212 31.0347 22.5608 30.4937 22.5608H28.0455C27.8088 20.8498 26.3548 19.5243 24.5762 19.5243C22.7976 19.5243 21.3436 20.8498 21.1069 22.5608H11.3413C11.1046 20.8498 9.65059 19.5243 7.87196 19.5243C6.09333 19.5243 4.63931 20.8498 4.40262 22.5608H1.96799C1.42696 22.5608 0.987376 22.1212 0.987376 21.5802V20.9647H1.44049C2.32642 20.9647 3.05005 20.2411 3.05005 19.3552V18.0094C3.05005 17.7389 2.82687 17.5157 2.55636 17.5157H0.980613V11.5373C0.980613 10.8408 1.54869 10.2727 2.24527 10.2727H2.90126V15.4395C2.90126 15.71 3.12444 15.9332 3.39495 15.9332H10.7732C11.0437 15.9332 11.2669 15.71 11.2669 15.4395V10.2727H13.2011V15.4395C13.2011 15.71 13.4243 15.9332 13.6948 15.9332H29.5604C30.5072 15.9332 31.2849 16.623 31.454 17.5225H29.4252C29.1546 17.5225 28.9315 17.7456 28.9315 18.0161V19.247C28.9315 20.1938 29.7024 20.9715 30.656 20.9715H31.4878V21.5869L31.4743 21.5802ZM31.4743 19.9841H30.6425C30.2367 19.9841 29.9053 19.6527 29.9053 19.247V18.5098H31.4811V19.9841H31.4743Z" fill="#222222"/>
<path d="M24.5829 23.5956C24.8855 23.5956 25.1307 23.3503 25.1307 23.0478C25.1307 22.7453 24.8855 22.5 24.5829 22.5C24.2804 22.5 24.0352 22.7453 24.0352 23.0478C24.0352 23.3503 24.2804 23.5956 24.5829 23.5956Z" fill="#222222"/>
<path d="M16.1902 17.5293H13.6474C13.3769 17.5293 13.1537 17.7525 13.1537 18.023C13.1537 18.2935 13.3769 18.5167 13.6474 18.5167H16.1902C16.4607 18.5167 16.6839 18.2935 16.6839 18.023C16.6839 17.7525 16.4607 17.5293 16.1902 17.5293Z" fill="#222222"/>
<path d="M20.7552 0H0.493688C0.223174 0 0 0.223174 0 0.493688C0 0.764202 0.223174 0.987376 0.493688 0.987376H20.7552C26.6659 0.987376 31.4811 5.79576 31.4811 11.7133V12.6262C31.4811 12.8968 31.7042 13.1199 31.9748 13.1199C32.2453 13.1199 32.4684 12.8968 32.4684 12.6262V11.7133C32.4617 5.25473 27.2069 0 20.7552 0Z" fill="#222222"/>
<path d="M31.968 29.0195H0.493688C0.223174 29.0195 0 29.2427 0 29.5132C0 29.7837 0.223174 30.0069 0.493688 30.0069H31.968C32.2385 30.0069 32.4617 29.7837 32.4617 29.5132C32.4617 29.2427 32.2385 29.0195 31.968 29.0195Z" fill="#222222"/>
</g>
<defs>
<clipPath id="clip0_313_14537">
<rect width="32.4617" height="30" fill="white"/>
</clipPath>
</defs>
</svg>
