<svg width="24" height="34" viewBox="0 0 24 34" fill="none" xmlns="http://www.w3.org/2000/svg">
<g clip-path="url(#clip0_3003_33537)">
<path d="M12.2116 31.5292C12.1317 31.7403 12.0615 31.9373 12 32.1189C11.9385 31.9373 11.8683 31.7403 11.7884 31.5292C11.323 30.2999 10.5284 28.5911 9.20809 26.6541C8.36475 25.4169 7.38136 24.2692 6.39262 23.1519C6.21379 22.9498 6.03494 22.7489 5.85666 22.5486C5.04429 21.636 4.24388 20.7368 3.51151 19.8022C1.73168 17.531 0.4 15.1067 0.4 11.9776C0.4 5.68309 5.59492 0.4 12 0.4C18.4073 0.4 23.6 5.58411 23.6 11.9776C23.6 15.1067 22.2683 17.531 20.4885 19.8022C19.7561 20.7368 18.9557 21.636 18.1433 22.5486C17.9651 22.7489 17.7862 22.9498 17.6074 23.1519C16.6186 24.2692 15.6352 25.4169 14.7919 26.6541C13.4716 28.5911 12.677 30.2999 12.2116 31.5292Z" fill="#6DACDE" stroke="#0D4D97" stroke-width="0.8" stroke-linejoin="round"/>
<path d="M19.247 13.2313C19.9404 9.23678 17.2583 5.43751 13.2563 4.74538C9.25436 4.05326 5.44799 6.73037 4.75457 10.7249C4.06115 14.7194 6.74327 18.5187 10.7452 19.2108C14.7472 19.9029 18.5536 17.2258 19.247 13.2313Z" fill="white"/>
<path d="M6.51132 15.6492C6.18771 15.6492 5.92603 15.3849 5.92603 15.058C5.92603 14.7311 6.18771 14.4668 6.51132 14.4668C7.69593 14.4668 8.65974 13.4933 8.65974 12.2968V10.9775C8.65974 10.6507 8.92143 10.3864 9.24504 10.3864C9.56864 10.3864 9.83033 10.6507 9.83033 10.9775V12.2968C9.83033 14.1447 8.34198 15.6492 6.51132 15.6492V15.6492Z" fill="#6DACDE"/>
<path d="M11.9788 15.6492C12.3024 15.6492 12.5641 15.3849 12.5641 15.058C12.5641 14.7311 12.3024 14.4668 11.9788 14.4668C10.7942 14.4668 9.83038 13.4933 9.83038 12.2968V10.9775C9.83038 10.6507 9.56869 10.3864 9.24509 10.3864C8.92148 10.3864 8.65979 10.6507 8.65979 10.9775V12.2968C8.65979 14.1447 10.1481 15.6492 11.9788 15.6492V15.6492Z" fill="#0D4D96"/>
<path d="M9.245 9.87776C9.66245 9.87776 10.0009 9.53595 10.0009 9.1143C10.0009 8.69265 9.66245 8.35083 9.245 8.35083C8.82755 8.35083 8.48914 8.69265 8.48914 9.1143C8.48914 9.53595 8.82755 9.87776 9.245 9.87776Z" fill="#0D4D96"/>
<path d="M17.4147 15.6492C17.7383 15.6492 18 15.3849 18 15.058C18 14.7311 17.7383 14.4668 17.4147 14.4668C16.2301 14.4668 15.2663 13.4933 15.2663 12.2968V10.9775C15.2663 10.6507 15.0046 10.3864 14.681 10.3864C14.3574 10.3864 14.0957 10.6507 14.0957 10.9775V12.2968C14.0957 14.1447 15.5841 15.6492 17.4147 15.6492V15.6492Z" fill="#6DACDE"/>
<path d="M14.6808 9.87776C15.0982 9.87776 15.4366 9.53595 15.4366 9.1143C15.4366 8.69265 15.0982 8.35083 14.6808 8.35083C14.2633 8.35083 13.9249 8.69265 13.9249 9.1143C13.9249 9.53595 14.2633 9.87776 14.6808 9.87776Z" fill="#0D4D96"/>
<path d="M14.681 10.3864C14.3574 10.3864 14.0957 10.6507 14.0957 10.9775V12.2968C14.0957 13.2491 13.4859 14.0585 12.6389 14.3512C12.8247 14.5294 12.9427 14.7795 12.9427 15.058C12.9427 15.2291 12.8983 15.3896 12.8212 15.53C14.2277 15.1418 15.2663 13.8391 15.2663 12.2968V10.9775C15.2663 10.6507 15.0046 10.3864 14.681 10.3864V10.3864Z" fill="#0D4D96"/>
</g>
<defs>
<clipPath id="clip0_3003_33537">
<rect width="24" height="33.6" fill="white"/>
</clipPath>
</defs>
</svg>
