<svg width="14" height="14" viewBox="0 0 14 14" fill="none" xmlns="http://www.w3.org/2000/svg">
<g clip-path="url(#clip0_1013_26753)">
<path d="M2.33333 1.16602H11.6667C11.8214 1.16602 11.9697 1.22747 12.0791 1.33687C12.1885 1.44627 12.25 1.59464 12.25 1.74935V12.9937C12.25 13.0424 12.2379 13.0903 12.2147 13.133C12.1915 13.1758 12.158 13.2121 12.1171 13.2386C12.0763 13.2651 12.0295 13.281 11.981 13.2848C11.9325 13.2885 11.8838 13.2801 11.8393 13.2603L7 11.1002L2.16067 13.2597C2.11628 13.2795 2.06763 13.2879 2.01916 13.2842C1.97068 13.2804 1.92391 13.2646 1.8831 13.2382C1.84229 13.2118 1.80874 13.1755 1.7855 13.1328C1.76225 13.0901 1.75005 13.0423 1.75 12.9937V1.74935C1.75 1.59464 1.81146 1.44627 1.92085 1.33687C2.03025 1.22747 2.17862 1.16602 2.33333 1.16602ZM7 7.87435L8.71442 8.7756L8.38717 6.86693L9.77375 5.51477L7.85692 5.23593L7 3.49935L6.1425 5.23593L4.22625 5.51477L5.61283 6.86693L5.28617 8.7756L7 7.87435Z" fill="#BEBEBE"/>
</g>
<defs>
<clipPath id="clip0_1013_26753">
<rect width="14" height="14" fill="white"/>
</clipPath>
</defs>
</svg>
