<svg width="28" height="29" viewBox="0 0 28 29" fill="none" xmlns="http://www.w3.org/2000/svg">
<path fill-rule="evenodd" clip-rule="evenodd" d="M15.5225 26.6589L14 25.7726L17.5 19.5686H22.75C23.7165 19.5686 24.5 18.775 24.5 17.7961V7.16063C24.5 6.18166 23.7165 5.38805 22.75 5.38805H5.25C4.2835 5.38805 3.5 6.18166 3.5 7.16063V17.7961C3.5 18.775 4.2835 19.5686 5.25 19.5686H13.125V21.3412H5.25C3.317 21.3412 1.75 19.754 1.75 17.7961V7.16063C1.75 5.2027 3.317 3.61548 5.25 3.61548H22.75C24.683 3.61548 26.25 5.2027 26.25 7.16063V17.7961C26.25 19.754 24.683 21.3412 22.75 21.3412H18.515L15.5225 26.6589ZM21 8.93335H7V10.7059H21V8.93335ZM15.75 14.251H7V16.0236H15.75V14.251Z" fill="#BBBBBB"/>
</svg>
