<svg width="28" height="29" viewBox="0 0 28 29" fill="none" xmlns="http://www.w3.org/2000/svg">
<path fill-rule="evenodd" clip-rule="evenodd" d="M12.25 17.9558L9.10875 14.774L7.875 16.0236L12.25 20.4551L20.125 12.4785L18.8913 11.22L12.25 17.9558ZM21.875 4.50188H19.25V3.61559C19.25 2.63663 18.4665 1.84302 17.5 1.84302H10.5C9.5335 1.84302 8.75 2.63663 8.75 3.61559V4.50188H6.125C5.1585 4.50188 4.375 5.29549 4.375 6.27445V24.8865C4.375 25.8654 5.1585 26.659 6.125 26.659H21.875C22.8415 26.659 23.625 25.8654 23.625 24.8865V6.27445C23.625 5.29549 22.8415 4.50188 21.875 4.50188ZM10.5 3.61584H17.5V7.16099H10.5V3.61584ZM6.125 24.8866H21.875V6.2746H19.25V8.93346H8.75V6.2746H6.125V24.8866Z" fill="#BBBBBB"/>
</svg>
