<svg width="12" height="13" viewBox="0 0 12 13" fill="none" xmlns="http://www.w3.org/2000/svg">
<path d="M6.00061 0.745605C6.229 0.745605 6.43758 0.875265 6.53866 1.08007L7.98607 4.01285L11.2226 4.48315C11.4486 4.51599 11.6364 4.6743 11.707 4.8915C11.7775 5.10871 11.7187 5.34715 11.5551 5.50657L9.21316 7.78942L9.76602 11.0129C9.80463 11.238 9.71209 11.4655 9.52733 11.5997C9.34256 11.7339 9.0976 11.7517 8.89545 11.6454L6.00061 10.1235L3.10578 11.6454C2.90363 11.7517 2.65867 11.7339 2.4739 11.5997C2.28914 11.4655 2.1966 11.238 2.23521 11.0129L2.78807 7.78942L0.446103 5.50657C0.282559 5.34715 0.223701 5.10871 0.294276 4.8915C0.364851 4.6743 0.552619 4.51599 0.778631 4.48315L4.01515 4.01285L5.46257 1.08007C5.56365 0.875265 5.77223 0.745605 6.00061 0.745605Z" fill="#084A8E"/>
</svg>
