<svg width="32" height="32" viewBox="0 0 32 32" fill="none" xmlns="http://www.w3.org/2000/svg">
<g clip-path="url(#clip0_1013_22247)">
<path d="M16 32C24.8366 32 32 24.8366 32 16C32 7.16344 24.8366 0 16 0C7.16344 0 0 7.16344 0 16C0 24.8366 7.16344 32 16 32Z" fill="#F0F0F0"/>
<path d="M16 0V16L4.68628 27.3137C7.58172 30.2091 11.5817 32 16 32C24.8365 32 32 24.8365 32 16C32 7.1635 16 0 16 0Z" fill="#D80027"/>
<path d="M16 0C11.5817 0 7.58172 1.79088 4.68628 4.68625C8.6119 8.61188 10.0055 10.0055 16 16H32C32 7.1635 24.8365 0 16 0Z" fill="#0052B4"/>
<path d="M10.9557 16.0023L9.00173 15.0832L10.0423 13.1908L7.92042 13.5967L7.65154 11.4531L6.17354 13.0296L4.69561 11.4531L4.42667 13.5967L2.30486 13.1907L3.34542 15.0832L1.39136 16.0023L3.34542 16.9214L2.30486 18.8139L4.42686 18.408L4.69554 20.5515L6.17354 18.975L7.65154 20.5515L7.92042 18.408L10.0422 18.8139L9.00167 16.9215L10.9557 16.0023Z" fill="#FFDA44"/>
<path d="M4.26711 6.26172L4.91736 7.17066L5.98267 6.83322L5.31905 7.73247L5.9693 8.64141L4.90892 8.28822L4.24536 9.18741L4.25367 8.06991L3.19336 7.71666L4.25886 7.37922L4.26711 6.26172Z" fill="#FFDA44"/>
<path d="M4.26711 22.8125L4.91736 23.7214L5.98267 23.3839L5.31905 24.2832L5.9693 25.1922L4.90892 24.839L4.24536 25.7382L4.25367 24.6207L3.19336 24.2674L4.25886 23.93L4.26711 22.8125Z" fill="#FFDA44"/>
<path d="M13.5417 14.5391L12.8915 15.448L11.8262 15.1104L12.4898 16.0097L11.8395 16.9188L12.8999 16.5655L13.5635 17.4647L13.5552 16.3472L14.6155 15.994L13.55 15.6566L13.5417 14.5391Z" fill="#FFDA44"/>
</g>
<defs>
<clipPath id="clip0_1013_22247">
<rect width="32" height="32" fill="white"/>
</clipPath>
</defs>
</svg>
