<svg width="20" height="20" viewBox="0 0 20 20" fill="none" xmlns="http://www.w3.org/2000/svg">
<path d="M2.91675 16.6654C2.58341 16.6654 2.29175 16.5404 2.04175 16.2904C1.79175 16.0404 1.66675 15.7487 1.66675 15.4154V4.58203C1.66675 4.2487 1.79175 3.95703 2.04175 3.70703C2.29175 3.45703 2.58341 3.33203 2.91675 3.33203H17.0834C17.4167 3.33203 17.7084 3.45703 17.9584 3.70703C18.2084 3.95703 18.3334 4.2487 18.3334 4.58203V15.4154C18.3334 15.7487 18.2084 16.0404 17.9584 16.2904C17.7084 16.5404 17.4167 16.6654 17.0834 16.6654H2.91675ZM10.0001 10.3737L2.91675 5.72786V15.4154H17.0834V5.72786L10.0001 10.3737ZM10.0001 9.1237L17.0001 4.58203H3.02091L10.0001 9.1237ZM2.91675 5.72786V4.58203V5.72786V15.4154V5.72786Z" fill="black"/>
</svg>
