<svg width="20" height="20" viewBox="0 0 20 20" fill="none" xmlns="http://www.w3.org/2000/svg">
<path fill-rule="evenodd" clip-rule="evenodd" d="M18.325 11.4255L8.57501 1.67554C6.65028 -0.109391 3.65871 -0.0530429 1.80257 1.8031C-0.0535769 3.65925 -0.109925 6.65081 1.67501 8.57554L3.92501 10.8255L4.98251 9.76804L2.73251 7.51804C1.82957 6.67667 1.45788 5.40954 1.76327 4.21374C2.06866 3.01794 3.00241 2.08419 4.19821 1.7788C5.39401 1.47342 6.66114 1.8451 7.50251 2.74804L17.2525 12.498C18.1554 13.3394 18.5271 14.6065 18.2217 15.8023C17.9164 16.9981 16.9826 17.9319 15.7868 18.2373C14.591 18.5427 13.3239 18.171 12.4825 17.268L7.88501 12.6705C7.40806 12.1963 7.22036 11.5036 7.39261 10.8534C7.56487 10.2032 8.07091 9.69431 8.72011 9.51839C9.36932 9.34248 10.0631 9.52627 10.54 10.0005L12.9175 12.378L13.975 11.3205C13.975 11.3205 11.56 8.89804 11.5375 8.89054C10.2087 7.66335 8.14776 7.70512 6.86975 8.98514C5.59175 10.2652 5.55323 12.3262 6.78251 13.653L11.425 18.3255C13.3497 20.1105 16.3413 20.0541 18.1974 18.198C20.0536 16.3418 20.1099 13.3503 18.325 11.4255Z" fill="#0D4D97"/>
</svg>
