<svg width="20" height="20" viewBox="0 0 20 20" fill="none" xmlns="http://www.w3.org/2000/svg">
<g clip-path="url(#clip0_591_23695)">
<path d="M10 4.63867L5.944 14.5L6.13867 14.7227L10 12.972L13.8613 14.7227L14.056 14.5L10 4.63867ZM10 20C8.61156 20 7.31067 19.736 6.09733 19.208C4.884 18.68 3.82844 17.9671 2.93067 17.0693C2.03289 16.1716 1.32 15.116 0.792 13.9027C0.264 12.6893 0 11.3884 0 10C0 8.61156 0.264 7.31067 0.792 6.09733C1.32 4.884 2.03289 3.82844 2.93067 2.93067C3.82844 2.03289 4.884 1.32 6.09733 0.792C7.31067 0.264 8.61156 0 10 0C11.3884 0 12.6893 0.264 13.9027 0.792C15.116 1.32 16.1716 2.03289 17.0693 2.93067C17.9671 3.82844 18.68 4.884 19.208 6.09733C19.736 7.31067 20 8.61156 20 10C20 11.3884 19.736 12.6893 19.208 13.9027C18.68 15.116 17.9671 16.1716 17.0693 17.0693C16.1716 17.9671 15.116 18.68 13.9027 19.208C12.6893 19.736 11.3884 20 10 20ZM10 1.22267C7.57422 1.22267 5.50489 2.07911 3.792 3.792C2.07911 5.50489 1.22267 7.57422 1.22267 10C1.22267 12.4258 2.07911 14.4951 3.792 16.208C5.50489 17.9209 7.57422 18.7773 10 18.7773C12.4258 18.7773 14.4951 17.9209 16.208 16.208C17.9209 14.4951 18.7773 12.4258 18.7773 10C18.7773 7.57422 17.9209 5.50489 16.208 3.792C14.4951 2.07911 12.4258 1.22267 10 1.22267Z" fill="#0D4D97"/>
</g>
<defs>
<clipPath id="clip0_591_23695">
<rect width="20" height="20" fill="white"/>
</clipPath>
</defs>
</svg>
