<svg width="20" height="20" viewBox="0 0 20 20" fill="none" xmlns="http://www.w3.org/2000/svg">
<path fill-rule="evenodd" clip-rule="evenodd" d="M16.25 2.51953H13.75V1.26953H12.5V2.51953H7.5V1.26953H6.25V2.51953H3.75C3.05964 2.51953 2.5 3.07918 2.5 3.76953V16.2695C2.5 16.9599 3.05964 17.5195 3.75 17.5195H16.25C16.9404 17.5195 17.5 16.9599 17.5 16.2695V3.76953C17.5 3.07918 16.9404 2.51953 16.25 2.51953ZM16.25 16.2695H3.75V7.51953H16.25V16.2695ZM16.25 6.26953H3.75V3.76953H6.25V5.01953H7.5V3.76953H12.5V5.01953H13.75V3.76953H16.25V6.26953Z" fill="black"/>
</svg>
