<svg width="20" height="20" viewBox="0 0 20 20" fill="none" xmlns="http://www.w3.org/2000/svg">
<path fill-rule="evenodd" clip-rule="evenodd" d="M13.375 7.5H17.125V8.75H2.875L3.9375 15.625H9V16.875H3.9375C3.3125 16.875 2.75 16.4375 2.6875 15.8125L1.5 8.25V8.125C1.5 7.75 1.75 7.5 2.125 7.5H5.875V5C5.875 3.9375 6.6875 3.125 7.75 3.125H11.5C12.5625 3.125 13.375 3.9375 13.375 5V7.5ZM7.75 4.375C7.375 4.375 7.125 4.625 7.125 5V7.5H12.125V5C12.125 4.625 11.875 4.375 11.5 4.375H7.75ZM10.625 15H13.125V17.5H10.625V15ZM17.5 15H15V17.5H17.5V15ZM10.625 10.625H13.125V13.125H10.625V10.625ZM17.5 10.625H15V13.125H17.5V10.625Z" fill="black"/>
</svg>
