<svg width="16" height="16" viewBox="0 0 16 16" fill="none" xmlns="http://www.w3.org/2000/svg">
<g clip-path="url(#clip0_1308_31493)">
<path d="M9.36636 3.9987C10.0175 4.12574 10.616 4.4442 11.0851 4.91332C11.5542 5.38244 11.8726 5.98087 11.9997 6.63203M9.36636 1.33203C10.7192 1.48232 11.9808 2.08815 12.9439 3.05004C13.907 4.01192 14.5144 5.2727 14.6664 6.62536M6.81768 9.24074C6.01663 8.43969 5.3841 7.53393 4.9201 6.56752C4.88019 6.48439 4.86024 6.44283 4.84491 6.39023C4.79042 6.20333 4.82956 5.97383 4.9429 5.81554C4.97479 5.771 5.0129 5.73289 5.0891 5.65669C5.32217 5.42361 5.43871 5.30708 5.5149 5.18989C5.80223 4.74797 5.80223 4.17825 5.5149 3.73632C5.43871 3.61913 5.32218 3.5026 5.0891 3.26953L4.95919 3.13961C4.6049 2.78532 4.42775 2.60817 4.23749 2.51194C3.85912 2.32056 3.41228 2.32056 3.0339 2.51194C2.84365 2.60817 2.6665 2.78532 2.31221 3.13961L2.20712 3.2447C1.85403 3.59779 1.67749 3.77433 1.54266 4.01435C1.39305 4.28069 1.28547 4.69435 1.28638 4.99983C1.2872 5.27513 1.3406 5.46328 1.44741 5.83957C2.02139 7.86184 3.10437 9.77008 4.69636 11.3621C6.28835 12.9541 8.19659 14.037 10.2189 14.611C10.5951 14.7178 10.7833 14.7712 11.0586 14.772C11.3641 14.7729 11.7777 14.6654 12.0441 14.5158C12.2841 14.3809 12.4606 14.2044 12.8137 13.8513L12.9188 13.7462C13.2731 13.3919 13.4503 13.2148 13.5465 13.0245C13.7379 12.6461 13.7379 12.1993 13.5465 11.8209C13.4503 11.6307 13.2731 11.4535 12.9188 11.0992L12.7889 10.9693C12.5558 10.7362 12.4393 10.6197 12.3221 10.5435C11.8802 10.2562 11.3105 10.2562 10.8685 10.5435C10.7513 10.6197 10.6348 10.7362 10.4017 10.9693C10.3255 11.0455 10.2874 11.0836 10.2429 11.1155C10.0846 11.2289 9.85509 11.268 9.66819 11.2135C9.6156 11.1982 9.57403 11.1782 9.49091 11.1383C8.52449 10.6743 7.61873 10.0418 6.81768 9.24074Z" stroke="white" stroke-width="1.2" stroke-linecap="round" stroke-linejoin="round"/>
</g>
<defs>
<clipPath id="clip0_1308_31493">
<rect width="16" height="16" fill="white"/>
</clipPath>
</defs>
</svg>
