<svg width="32" height="32" viewBox="0 0 32 32" fill="none" xmlns="http://www.w3.org/2000/svg">
<g clip-path="url(#clip0_1013_22244)">
<path d="M16 32C24.8366 32 32 24.8366 32 16C32 7.16344 24.8366 0 16 0C7.16344 0 0 7.16344 0 16C0 24.8366 7.16344 32 16 32Z" fill="#D80027"/>
<path d="M8.75625 9.73438L10.1375 13.9844H14.6062L10.9937 16.6156L12.375 20.8656L8.75625 18.2406L5.1375 20.8656L6.525 16.6156L2.90625 13.9844H7.375L8.75625 9.73438Z" fill="#FFDA44"/>
<path d="M18.9687 24.7797L17.9125 23.4797L16.35 24.0859L17.2562 22.6797L16.2 21.3734L17.8187 21.8047L18.7312 20.3984L18.8187 22.0734L20.4437 22.5047L18.875 23.1047L18.9687 24.7797Z" fill="#FFDA44"/>
<path d="M21.0687 20.9672L21.5687 19.3672L20.2 18.3984L21.875 18.3734L22.3687 16.7734L22.9125 18.3609L24.5875 18.3422L23.2437 19.3422L23.7812 20.9297L22.4125 19.9609L21.0687 20.9672Z" fill="#FFDA44"/>
<path d="M23.9 11.743L23.1625 13.2492L24.3625 14.418L22.7063 14.1805L21.9688 15.6805L21.6813 14.0305L20.0188 13.793L21.5063 13.0117L21.2188 11.3555L22.4188 12.5242L23.9 11.743Z" fill="#FFDA44"/>
<path d="M19.0124 7.17969L18.8874 8.84844L20.4437 9.47969L18.8124 9.87969L18.6937 11.5547L17.8124 10.1297L16.1812 10.5297L17.2624 9.24844L16.3749 7.82969L17.9312 8.46094L19.0124 7.17969Z" fill="#FFDA44"/>
</g>
<defs>
<clipPath id="clip0_1013_22244">
<rect width="32" height="32" fill="white"/>
</clipPath>
</defs>
</svg>
