<svg width="14" height="14" viewBox="0 0 14 14" fill="none" xmlns="http://www.w3.org/2000/svg">
<g clip-path="url(#clip0_591_17270)">
<path d="M2.33327 11.667V8.16699C2.33327 6.92932 2.82494 5.74233 3.70011 4.86716C4.57528 3.99199 5.76226 3.50033 6.99994 3.50033C8.23762 3.50033 9.4246 3.99199 10.2998 4.86716C11.1749 5.74233 11.6666 6.92932 11.6666 8.16699V11.667H12.2499V12.8337H1.74994V11.667H2.33327ZM3.49994 8.16699H4.66661C4.66661 7.54815 4.91244 6.95466 5.35002 6.51708C5.78761 6.07949 6.3811 5.83366 6.99994 5.83366V4.66699C6.07168 4.66699 5.18144 5.03574 4.52507 5.69212C3.86869 6.3485 3.49994 7.23873 3.49994 8.16699ZM6.41661 1.16699H7.58327V2.91699H6.41661V1.16699ZM11.5371 2.80499L12.3619 3.62983L11.1253 4.86708L10.2999 4.04224L11.5371 2.80499ZM1.63794 3.62983L2.46277 2.80499L3.70002 4.04166L2.87577 4.86766L1.63794 3.62983Z" fill="#BEBEBE"/>
</g>
<defs>
<clipPath id="clip0_591_17270">
<rect width="14" height="14" fill="white"/>
</clipPath>
</defs>
</svg>
