<svg width="20" height="20" viewBox="0 0 20 20" fill="none" xmlns="http://www.w3.org/2000/svg">
<path fill-rule="evenodd" clip-rule="evenodd" d="M16.8751 10.4737V9.51742L18.0751 8.46742C18.5318 8.06488 18.6321 7.39187 18.3126 6.87367L16.8376 4.37367C16.6145 3.98731 16.2025 3.74913 15.7563 3.74867C15.6205 3.74763 15.4854 3.76874 15.3563 3.81117L13.8376 4.32367C13.5754 4.14942 13.3019 3.99283 13.0188 3.85492L12.7001 2.27992C12.5821 1.68603 12.0555 1.26207 11.4501 1.27367H8.52509C7.9197 1.26207 7.39305 1.68603 7.27509 2.27992L6.95634 3.85492C6.6713 3.99279 6.39569 4.14939 6.13134 4.32367L4.64384 3.78617C4.5134 3.75218 4.37832 3.73952 4.24384 3.74867C3.79772 3.74913 3.38565 3.98731 3.16259 4.37367L1.68759 6.87367C1.38671 7.39055 1.49413 8.04814 1.94384 8.44242L3.12509 9.52367V10.4799L1.94384 11.5299C1.48087 11.9274 1.37256 12.6011 1.68759 13.1237L3.16259 15.6237C3.38565 16.01 3.79772 16.2482 4.24384 16.2487C4.37968 16.2497 4.51479 16.2286 4.64384 16.1862L6.16259 15.6737C6.4248 15.8479 6.69832 16.0045 6.98134 16.1424L7.30009 17.7174C7.41805 18.3113 7.9447 18.7353 8.55009 18.7237H11.5001C12.1055 18.7353 12.6321 18.3113 12.7501 17.7174L13.0688 16.1424C13.3539 16.0045 13.6295 15.848 13.8938 15.6737L15.4063 16.1862C15.5354 16.2286 15.6705 16.2497 15.8063 16.2487C16.2525 16.2482 16.6645 16.01 16.8876 15.6237L18.3126 13.1237C18.6135 12.6068 18.506 11.9492 18.0563 11.5549L16.8751 10.4737ZM6.25006 9.99866C6.25006 12.0697 7.92899 13.7487 10.0001 13.7487C10.9977 13.7588 11.9574 13.367 12.6629 12.6615C13.3684 11.956 13.7602 10.9963 13.7501 9.99866C13.7501 7.92759 12.0711 6.24866 10.0001 6.24866C7.92899 6.24866 6.25006 7.92759 6.25006 9.99866ZM8.21516 8.21375C8.68741 7.7415 9.33237 7.4831 10.0001 7.49866C10.6677 7.4831 11.3127 7.7415 11.785 8.21375C12.2572 8.68601 12.5156 9.33097 12.5001 9.99866C12.5156 10.6663 12.2572 11.3113 11.785 11.7836C11.3127 12.2558 10.6677 12.5142 10.0001 12.4987C9.33237 12.5142 8.68741 12.2558 8.21516 11.7836C7.7429 11.3113 7.48451 10.6663 7.50006 9.99866C7.48451 9.33097 7.7429 8.68601 8.21516 8.21375ZM13.6126 14.2737L15.7563 14.9987L17.2313 12.4987L15.5313 10.9549C15.6469 10.308 15.6469 9.64563 15.5313 8.99867L17.2313 7.49867L15.7563 4.99867L13.6063 5.69867C13.1028 5.27938 12.5323 4.94768 11.9188 4.71742L11.4751 2.49867H8.52509L8.08134 4.74242C7.46297 4.96633 6.88942 5.2986 6.38759 5.72367L4.24384 4.99867L2.76884 7.49867L4.46884 9.04242C4.35327 9.68938 4.35327 10.3517 4.46884 10.9987L2.76884 12.4987L4.24384 14.9987L6.39384 14.2987C6.89741 14.718 7.46785 15.0497 8.08134 15.2799L8.52509 17.4987H11.4751L11.9188 15.2549C12.5372 15.031 13.1108 14.6987 13.6126 14.2737Z" fill="black"/>
</svg>
