<svg width="16" height="16" viewBox="0 0 16 16" fill="none" xmlns="http://www.w3.org/2000/svg">
<g clip-path="url(#clip0_1104_25663)">
<path d="M12.5353 5.6633C13.1966 5.98539 13.9456 6.08075 14.6666 5.93463V13.3346C14.6666 13.5114 14.5963 13.681 14.4713 13.806C14.3463 13.9311 14.1767 14.0013 13.9999 14.0013H1.99992C1.82311 14.0013 1.65354 13.9311 1.52851 13.806C1.40349 13.681 1.33325 13.5114 1.33325 13.3346V2.66797C1.33325 2.49116 1.40349 2.32159 1.52851 2.19656C1.65354 2.07154 1.82311 2.0013 1.99992 2.0013H10.7333C10.6893 2.21664 10.6666 2.43997 10.6666 2.66797C10.6655 3.46 10.9476 4.22634 11.4619 4.82864L8.04059 7.78997L3.76459 4.15997L2.90192 5.17597L8.04859 9.54597L12.5353 5.6633ZM13.9999 4.66797C13.7373 4.66797 13.4772 4.61624 13.2346 4.51573C12.9919 4.41522 12.7714 4.2679 12.5857 4.08218C12.4 3.89646 12.2527 3.67599 12.1522 3.43334C12.0517 3.19068 11.9999 2.93061 11.9999 2.66797C11.9999 2.40532 12.0517 2.14525 12.1522 1.9026C12.2527 1.65995 12.4 1.43947 12.5857 1.25376C12.7714 1.06804 12.9919 0.920719 13.2346 0.82021C13.4772 0.7197 13.7373 0.667969 13.9999 0.667969C14.5304 0.667969 15.0391 0.878682 15.4141 1.25376C15.7892 1.62883 15.9999 2.13754 15.9999 2.66797C15.9999 3.1984 15.7892 3.70711 15.4141 4.08218C15.0391 4.45725 14.5304 4.66797 13.9999 4.66797Z" fill="#222222"/>
</g>
<defs>
<clipPath id="clip0_1104_25663">
<rect width="16" height="16" fill="white"/>
</clipPath>
</defs>
</svg>
