<svg width="16" height="16" viewBox="0 0 16 16" fill="none" xmlns="http://www.w3.org/2000/svg">
<path d="M8.54661 3.71941L7.99946 4.26775L7.45063 3.71892C6.05125 2.31954 3.78241 2.31954 2.38303 3.71892C0.983651 5.1183 0.983651 7.38714 2.38303 8.78652L7.64661 14.0501C7.84187 14.2454 8.15845 14.2454 8.35372 14.0501L13.6214 8.78554C15.0176 7.38152 15.02 5.11905 13.6204 3.71941C12.2185 2.31749 9.94853 2.31749 8.54661 3.71941ZM12.9123 8.08039L8.00016 12.9894L3.09014 8.07941C2.08128 7.07055 2.08128 5.43488 3.09014 4.42602C4.09899 3.41717 5.73467 3.41717 6.74352 4.42602L7.64849 5.33099C7.84706 5.52956 8.17019 5.52569 8.36396 5.32242L9.25372 4.42652C10.2651 3.41512 11.9019 3.41512 12.9133 4.42652C13.9224 5.43562 13.9207 7.06644 12.9123 8.08039Z" fill="black"/>
</svg>
