<svg width="20" height="20" viewBox="0 0 20 20" fill="none" xmlns="http://www.w3.org/2000/svg">
<path fill-rule="evenodd" clip-rule="evenodd" d="M7.5 2.5C9.22589 2.5 10.625 3.89911 10.625 5.625C10.625 7.35089 9.22589 8.75 7.5 8.75C5.77411 8.75 4.375 7.35089 4.375 5.625C4.375 3.89911 5.77411 2.5 7.5 2.5ZM7.5 1.25C5.08375 1.25 3.125 3.20875 3.125 5.625C3.125 8.04125 5.08375 10 7.5 10C9.91625 10 11.875 8.04125 11.875 5.625C11.875 3.20875 9.91625 1.25 7.5 1.25ZM13.75 18.75H12.5V15.625C12.5 13.8991 11.1009 12.5 9.375 12.5H5.625C3.89911 12.5 2.5 13.8991 2.5 15.625V18.75H1.25V15.625C1.25 13.2088 3.20875 11.25 5.625 11.25H9.375C11.7912 11.25 13.75 13.2088 13.75 15.625V18.75ZM13.75 2.5H20V3.75H13.75V2.5ZM13.75 5.625H20V6.875H13.75V5.625ZM13.75 8.75H18.125V10H13.75V8.75Z" fill="black"/>
</svg>
