<svg width="16" height="16" viewBox="0 0 16 16" fill="none" xmlns="http://www.w3.org/2000/svg">
<g clip-path="url(#clip0_1308_31494)">
<path d="M6.66659 9.9987L4.61641 12.0745C4.33044 12.364 4.18746 12.5088 4.06455 12.519C3.95793 12.5279 3.85353 12.485 3.78389 12.4038C3.70362 12.3102 3.70362 12.1067 3.70362 11.6997V10.6598C3.70362 10.2947 3.40463 10.0305 3.04339 9.97758V9.97758C2.16908 9.84951 1.48244 9.16287 1.35437 8.28856C1.33325 8.1444 1.33325 7.97238 1.33325 7.62833V4.53203C1.33325 3.41193 1.33325 2.85187 1.55124 2.42405C1.74299 2.04773 2.04895 1.74176 2.42527 1.55002C2.85309 1.33203 3.41315 1.33203 4.53325 1.33203H9.46659C10.5867 1.33203 11.1467 1.33203 11.5746 1.55002C11.9509 1.74176 12.2569 2.04773 12.4486 2.42405C12.6666 2.85187 12.6666 3.41193 12.6666 4.53203V7.33203M12.6666 14.6654L11.2156 13.6566C11.0117 13.5148 10.9097 13.4439 10.7987 13.3937C10.7002 13.349 10.5966 13.3166 10.4903 13.297C10.3705 13.2749 10.2463 13.2749 9.99787 13.2749H8.79992C8.05318 13.2749 7.67981 13.2749 7.3946 13.1296C7.14372 13.0017 6.93974 12.7978 6.81191 12.5469C6.66659 12.2617 6.66659 11.8883 6.66659 11.1416V9.46537C6.66659 8.71863 6.66659 8.34526 6.81191 8.06004C6.93974 7.80916 7.14372 7.60519 7.3946 7.47736C7.67981 7.33203 8.05318 7.33203 8.79992 7.33203H12.5333C13.28 7.33203 13.6534 7.33203 13.9386 7.47736C14.1895 7.60519 14.3934 7.80916 14.5213 8.06004C14.6666 8.34526 14.6666 8.71863 14.6666 9.46536V11.2749C14.6666 11.8961 14.6666 12.2068 14.5651 12.4518C14.4298 12.7785 14.1702 13.0381 13.8435 13.1734C13.5985 13.2749 13.2878 13.2749 12.6666 13.2749V14.6654Z" stroke="white" stroke-width="1.2" stroke-linecap="round" stroke-linejoin="round"/>
</g>
<defs>
<clipPath id="clip0_1308_31494">
<rect width="16" height="16" fill="white"/>
</clipPath>
</defs>
</svg>
