<svg width="32" height="32" viewBox="0 0 32 32" fill="none" xmlns="http://www.w3.org/2000/svg">
<g clip-path="url(#clip0_1013_22246)">
<path d="M16 32C24.8366 32 32 24.8366 32 16C32 7.16344 24.8366 0 16 0C7.16344 0 0 7.16344 0 16C0 24.8366 7.16344 32 16 32Z" fill="#F0F0F0"/>
<path d="M21.5652 15.9988C21.5652 17.3901 19.0736 20.8683 16 20.8683C12.9264 20.8683 10.4348 17.3901 10.4348 15.9988C10.4348 12.9252 12.9264 10.4336 16 10.4336C19.0736 10.4336 21.5652 12.9252 21.5652 15.9988Z" fill="#D80027"/>
<path d="M21.5652 16C21.5652 19.0736 19.0736 21.5652 16 21.5652C12.9264 21.5652 10.4348 19.0736 10.4348 16" fill="#0052B4"/>
<path d="M21.8984 20.918L23.3739 19.4425L24.3576 20.4262L22.8821 21.9016L21.8984 20.918Z" fill="black"/>
<path d="M19.4385 23.3789L20.9139 21.9034L21.8976 22.8871L20.4221 24.3626L19.4385 23.3789Z" fill="black"/>
<path d="M24.8496 23.8711L26.3251 22.3956L27.3087 23.3793L25.8333 24.8548L24.8496 23.8711Z" fill="black"/>
<path d="M22.3899 26.3281L23.8654 24.8527L24.849 25.8363L23.3735 27.3118L22.3899 26.3281Z" fill="black"/>
<path d="M23.374 22.3945L24.8495 20.9191L25.8331 21.9027L24.3577 23.3782L23.374 22.3945Z" fill="black"/>
<path d="M20.9148 24.8555L22.3903 23.38L23.3739 24.3637L21.8985 25.8391L20.9148 24.8555Z" fill="black"/>
<path d="M24.8562 11.082L20.9216 7.14744L21.9053 6.16379L25.8399 10.0984L24.8562 11.082Z" fill="black"/>
<path d="M20.9207 10.1016L19.4452 8.6261L20.4288 7.64248L21.9043 9.11795L20.9207 10.1016Z" fill="black"/>
<path d="M23.3799 12.5586L21.9044 11.0831L22.888 10.0995L24.3635 11.575L23.3799 12.5586Z" fill="black"/>
<path d="M23.8713 7.14844L22.3959 5.67297L23.3795 4.68932L24.855 6.16478L23.8713 7.14844Z" fill="black"/>
<path d="M26.3318 9.60938L24.8563 8.13391L25.84 7.15025L27.3154 8.62572L26.3318 9.60938Z" fill="black"/>
<path d="M5.67212 22.3906L9.6067 26.3252L8.62304 27.3089L4.68846 23.3743L5.67212 22.3906Z" fill="black"/>
<path d="M9.60645 23.375L11.0819 24.8505L10.0983 25.8341L8.62284 24.3586L9.60645 23.375Z" fill="black"/>
<path d="M7.14722 20.918L8.62268 22.3934L7.63902 23.3771L6.16356 21.9016L7.14722 20.918Z" fill="black"/>
<path d="M8.6228 19.4414L12.5574 23.376L11.5737 24.3596L7.63914 20.4251L8.6228 19.4414Z" fill="black"/>
<path d="M9.60645 5.67188L5.67186 9.60646L4.6882 8.6228L8.62279 4.68822L9.60645 5.67188Z" fill="black"/>
<path d="M11.0818 7.14453L7.1472 11.0791L6.16354 10.0955L10.0981 6.16087L11.0818 7.14453Z" fill="black"/>
<path d="M12.5586 8.62109L8.62401 12.5557L7.64039 11.5721L11.575 7.63748L12.5586 8.62109Z" fill="black"/>
</g>
<defs>
<clipPath id="clip0_1013_22246">
<rect width="32" height="32" fill="white"/>
</clipPath>
</defs>
</svg>
