<svg width="20" height="20" viewBox="0 0 20 20" fill="none" xmlns="http://www.w3.org/2000/svg">
<g clip-path="url(#clip0_591_23699)">
<path d="M10 15.3417C11.9022 13.868 13.3469 12.4382 14.3341 11.0522C15.3214 9.66696 15.815 8.33397 15.815 7.05318C15.815 5.98291 15.6177 5.07052 15.2232 4.31603C14.8278 3.56153 14.3341 2.95188 13.7423 2.48705C13.1496 2.02223 12.5168 1.68456 11.844 1.47404C11.1712 1.26353 10.5565 1.15827 10 1.15827C9.44348 1.15827 8.82881 1.26353 8.15599 1.47404C7.48317 1.68456 6.85041 2.02223 6.25771 2.48705C5.66587 2.95188 5.17224 3.56153 4.77681 4.31603C4.38225 5.07052 4.18497 5.98291 4.18497 7.05318C4.18497 8.33397 4.6786 9.66696 5.66587 11.0522C6.65313 12.4382 8.09784 13.868 10 15.3417ZM10 16.8157C7.63091 15.0785 5.87219 13.4032 4.72383 11.7898C3.57461 10.1756 3 8.59669 3 7.05318C3 5.89533 3.20633 4.87769 3.61898 4.00025C4.03249 3.12282 4.57996 2.39022 5.2614 1.80245C5.9437 1.21469 6.6975 0.767547 7.5228 0.461033C8.34896 0.153678 9.1747 0 10 0C10.8434 0 11.6734 0.153678 12.4901 0.461033C13.3068 0.767547 14.0563 1.21469 14.7386 1.80245C15.42 2.39022 15.9675 3.12282 16.381 4.00025C16.7937 4.87769 17 5.89533 17 7.05318C17 8.59669 16.4254 10.1756 15.2762 11.7898C14.1278 13.4032 12.3691 15.0785 10 16.8157ZM10 8.52596C10.4669 8.52596 10.8619 8.36807 11.185 8.05229C11.508 7.73652 11.6696 7.35085 11.6696 6.89529C11.6696 6.43889 11.508 6.0528 11.185 5.73702C10.8619 5.42125 10.4669 5.26336 10 5.26336C9.53307 5.26336 9.13808 5.42125 8.81503 5.73702C8.49197 6.0528 8.33044 6.43889 8.33044 6.89529C8.33044 7.35085 8.49197 7.73652 8.81503 8.05229C9.13808 8.36807 9.53307 8.52596 10 8.52596ZM3 20V18.8417H17V20H3Z" fill="#0D4D97"/>
</g>
<defs>
<clipPath id="clip0_591_23699">
<rect width="20" height="20" fill="white"/>
</clipPath>
</defs>
</svg>
