<svg width="14" height="12" viewBox="0 0 14 12" fill="none" xmlns="http://www.w3.org/2000/svg">
<path fill-rule="evenodd" clip-rule="evenodd" d="M12.2924 0.771667C12.2924 0.345487 11.9239 0 11.4693 0C11.0147 0 10.6462 0.345487 10.6462 0.771667V1.54333H9.82311C9.36852 1.54333 9 1.88882 9 2.315C9 2.74118 9.36852 3.08667 9.82311 3.08667H10.6462V3.85833C10.6462 4.28451 11.0147 4.63 11.4693 4.63C11.9239 4.63 12.2924 4.28451 12.2924 3.85833V3.08667H13.1156C13.5701 3.08667 13.9387 2.74118 13.9387 2.315C13.9387 1.88882 13.5701 1.54333 13.1156 1.54333L12.2924 1.54333V0.771667Z" fill="#9F9F9F"/>
<path fill-rule="evenodd" clip-rule="evenodd" d="M8.14286 3C8.14286 4.65685 6.79971 6 5.14286 6C3.486 6 2.14286 4.65685 2.14286 3C2.14286 1.34315 3.486 0 5.14286 0C6.79971 0 8.14286 1.34315 8.14286 3ZM0.0822144 11.5461C0.131853 11.8087 0.373067 12 0.654612 12H9.6311C9.91265 12 10.1542 11.8087 10.2035 11.5461C10.2582 11.2578 10.2857 10.9674 10.2857 10.6831C10.2857 9.26346 9.63227 7.91723 8.49329 6.99C8.27301 6.81116 7.94687 6.813 7.72931 6.99477C7.00218 7.60216 6.06757 7.93706 5.09845 7.93706C4.14795 7.93706 3.2273 7.61391 2.50637 7.02672C2.28571 6.84788 1.96035 6.84972 1.74201 7.03149C0.635222 7.95652 0 9.28733 0 10.6831C0 10.9674 0.0279219 11.2578 0.0822144 11.5461Z" fill="#9F9F9F"/>
</svg>
