<svg width="28" height="29" viewBox="0 0 28 29" fill="none" xmlns="http://www.w3.org/2000/svg">
<path d="M14.5 19.0414C16.4259 17.4106 17.8796 15.8429 18.8611 14.3383C19.8426 12.8338 20.3333 11.4311 20.3333 10.1304C20.3333 8.98495 20.1343 8.01426 19.7361 7.21829C19.338 6.42232 18.8472 5.77195 18.2639 5.26719C17.6806 4.76243 17.0463 4.39842 16.3611 4.17516C15.6759 3.9519 15.0556 3.84027 14.5 3.84027C13.9444 3.84027 13.3241 3.9519 12.6389 4.17516C11.9537 4.39842 11.3194 4.76243 10.7361 5.26719C10.1528 5.77195 9.66204 6.42232 9.26389 7.21829C8.86574 8.01426 8.66667 8.98495 8.66667 10.1304C8.66667 11.4311 9.15741 12.8338 10.1389 14.3383C11.1204 15.8429 12.5741 17.4106 14.5 19.0414ZM14.5 21.2545C11.963 19.2549 10.0787 17.3426 8.84722 15.5177C7.61574 13.6928 7 11.897 7 10.1304C7 8.81023 7.22685 7.65025 7.68056 6.65043C8.13426 5.65061 8.72222 4.81096 9.44444 4.13148C10.1667 3.45199 10.9722 2.94238 11.8611 2.60263C12.75 2.26289 13.6296 2.09302 14.5 2.09302C15.3704 2.09302 16.25 2.26289 17.1389 2.60263C18.0278 2.94238 18.8333 3.45199 19.5556 4.13148C20.2778 4.81096 20.8657 5.65061 21.3194 6.65043C21.7731 7.65025 22 8.81023 22 10.1304C22 11.897 21.3843 13.6928 20.1528 15.5177C18.9213 17.3426 17.037 19.2549 14.5 21.2545ZM14.5 11.9941C15.037 11.9941 15.4954 11.7951 15.875 11.3971C16.2546 10.9991 16.4444 10.5187 16.4444 9.95565C16.4444 9.39264 16.2546 8.91215 15.875 8.51417C15.4954 8.11618 15.037 7.91719 14.5 7.91719C13.963 7.91719 13.5046 8.11618 13.125 8.51417C12.7454 8.91215 12.5556 9.39264 12.5556 9.95565C12.5556 10.5187 12.7454 10.9991 13.125 11.3971C13.5046 11.7951 13.963 11.9941 14.5 11.9941ZM7 25.3897V23.6424H22V25.3897H7Z" fill="#BBBBBB"/>
</svg>
