<svg width="102" height="18" viewBox="0 0 102 18" fill="none" xmlns="http://www.w3.org/2000/svg">
<g clip-path="url(#clip0_313_11496)">
<path d="M43.2174 4.00293C42.8227 4.00293 42.5 4.13971 42.2608 4.40746C42.0303 4.66647 41.9122 5.03898 41.9122 5.51627V10.5219L38.3797 5.38531C38.2645 5.21069 38.1521 5.03898 38.0426 4.87892C37.9216 4.69848 37.8006 4.54715 37.6796 4.43074C37.547 4.29978 37.3915 4.19792 37.2186 4.12225C37.0399 4.04367 36.8296 4.00293 36.5905 4.00293C36.285 4.00293 35.994 4.08733 35.729 4.2503C35.461 4.4191 35.2622 4.64028 35.1412 4.91966C35.0461 5.15249 35 5.45224 35 5.83349V13.7028C35 14.1714 35.121 14.5439 35.363 14.8088C35.6108 15.0823 35.9393 15.2191 36.3369 15.2191C36.7345 15.2191 37.0486 15.0823 37.2993 14.8175C37.547 14.5556 37.6738 14.1801 37.6738 13.7028V8.79614L41.1083 13.8571C41.2264 14.0201 41.3417 14.183 41.4598 14.3402C41.5895 14.5148 41.7335 14.6691 41.8862 14.8C42.0534 14.9426 42.2349 15.0474 42.4279 15.1143C42.6152 15.1784 42.8284 15.2133 43.056 15.2133C43.6121 15.2133 44.5428 14.995 44.5428 13.537V5.51918C44.5428 5.04189 44.4246 4.66647 44.1884 4.40746C43.9464 4.13971 43.6179 4.00293 43.2145 4.00293H43.2174Z" fill="#0D4D96"/>
<path d="M53.8552 6.13907C53.7226 5.80729 53.616 5.53955 53.5296 5.34165C53.4345 5.12338 53.3192 4.91675 53.1838 4.72468C53.0311 4.51223 52.8323 4.33761 52.5874 4.20665C52.3396 4.07278 52.0342 4.00293 51.6827 4.00293C51.3312 4.00293 51.0315 4.07278 50.7837 4.20665C50.5388 4.34052 50.3371 4.51805 50.1844 4.73632C50.049 4.9313 49.9193 5.17868 49.8012 5.46679L46.8076 12.7716C46.6923 13.048 46.6116 13.2576 46.5598 13.4176C46.5022 13.5981 46.4705 13.7785 46.4705 13.9531C46.4705 14.2907 46.6116 14.5905 46.8911 14.8466C47.1591 15.094 47.476 15.2191 47.8304 15.2191C48.254 15.2191 48.5709 15.0852 48.7755 14.8262C48.9368 14.6196 49.1183 14.2529 49.3316 13.7087L49.7551 12.6115H53.6218L54.0453 13.6825V13.6912C54.1174 13.8513 54.198 14.0346 54.296 14.2442C54.4026 14.4799 54.5034 14.6545 54.6072 14.7767C54.7195 14.9135 54.8607 15.0212 55.0221 15.0998C55.1863 15.1784 55.3794 15.2191 55.5983 15.2191C55.9729 15.2191 56.3014 15.0881 56.5664 14.832C56.8373 14.5701 56.9756 14.2704 56.9756 13.9415C56.9756 13.6621 56.8632 13.2721 56.6241 12.7192L53.8552 6.14489V6.13907ZM51.7259 10.3619C51.092 10.3619 50.5792 9.84383 50.5792 9.20358C50.5792 8.56332 51.092 8.04529 51.7259 8.04529C52.3598 8.04529 52.8726 8.56332 52.8726 9.20358C52.8726 9.84383 52.3598 10.3619 51.7259 10.3619Z" fill="#0D4D96"/>
<path d="M68.1203 9.10461C67.8869 9.0464 67.6074 9.0173 67.2819 9.0173H64.8414C64.4669 9.0173 64.1614 9.11916 63.9281 9.31997C63.6832 9.52951 63.5564 9.8118 63.5564 10.1348C63.5564 10.6412 63.8157 10.8944 64.0318 11.0167C64.2882 11.1622 64.6397 11.232 65.1007 11.232H66.4376V12.3496C66.0717 12.5271 65.7058 12.6697 65.3485 12.7715C64.9423 12.888 64.5014 12.9462 64.0375 12.9462C63.104 12.9462 62.401 12.6668 61.891 12.0905C61.3781 11.5114 61.1159 10.6558 61.1159 9.54988C61.1159 9.03476 61.1851 8.5633 61.3205 8.14422C61.453 7.73678 61.6432 7.38755 61.891 7.11108C62.133 6.83751 62.4327 6.62506 62.7756 6.47955C63.1242 6.33403 63.5304 6.25837 63.9799 6.25837C64.4294 6.25837 64.7694 6.31948 65.0373 6.4388C65.3053 6.55812 65.5185 6.70364 65.6683 6.87243C65.8412 7.06451 66.0573 7.35554 66.3253 7.75715C66.4521 7.92304 66.6134 8.054 66.8007 8.14422C66.988 8.23444 67.1868 8.281 67.3885 8.281C67.7515 8.281 68.0685 8.15877 68.3306 7.92013C68.5986 7.67567 68.7398 7.36136 68.7398 7.00922C68.7398 6.70655 68.6418 6.38351 68.4373 6.01681C68.2442 5.67049 67.9561 5.34163 67.5815 5.03897C67.2098 4.7363 66.7229 4.48601 66.138 4.29103C65.556 4.09895 64.8846 4 64.1384 4C63.2366 4 62.4154 4.12805 61.698 4.38416C60.9719 4.64317 60.3438 5.0215 59.8367 5.51043C59.3238 6.00226 58.9319 6.6076 58.6697 7.31188C58.4104 8.00453 58.2808 8.77866 58.2808 9.60808C58.2808 10.4375 58.4162 11.232 58.6841 11.9217C58.955 12.6173 59.3468 13.2197 59.8511 13.7116C60.3553 14.2005 60.9719 14.5788 61.6835 14.8349C62.3866 15.0881 63.1732 15.2162 64.0231 15.2162C64.7463 15.2162 65.4263 15.1347 66.0458 14.9775C66.6595 14.8204 67.3078 14.5643 67.9676 14.2209C68.2125 14.0928 68.4171 13.956 68.5784 13.8134C68.7628 13.6504 68.8954 13.4613 68.9674 13.2517C69.0337 13.0597 69.0654 12.821 69.0654 12.5213V10.5656C69.0654 10.1378 68.9818 9.8118 68.8089 9.57607C68.6332 9.33452 68.4027 9.17736 68.1174 9.10752L68.1203 9.10461Z" fill="#0D4D96"/>
<path d="M77.7004 6.13907C77.5678 5.80729 77.4612 5.53955 77.3748 5.34165C77.2797 5.12338 77.1645 4.91675 77.029 4.72468C76.8763 4.51223 76.6775 4.33761 76.4326 4.20665C76.1848 4.07278 75.8794 4.00293 75.5279 4.00293C75.1764 4.00293 74.8767 4.07278 74.6289 4.20665C74.384 4.34052 74.1823 4.51805 74.0296 4.73632C73.8942 4.9313 73.7646 5.17868 73.6464 5.46679L70.6528 12.7716C70.5375 13.048 70.4569 13.2576 70.405 13.4176C70.3474 13.5981 70.3157 13.7785 70.3157 13.9531C70.3157 14.2907 70.4569 14.5905 70.7363 14.8466C71.0043 15.094 71.3212 15.2191 71.6756 15.2191C72.0992 15.2191 72.4161 15.0852 72.6207 14.8262C72.782 14.6196 72.9636 14.2529 73.1768 13.7087L73.6003 12.6115H77.467L77.8905 13.6825V13.6912C77.9626 13.8513 78.0432 14.0346 78.1412 14.2442C78.2478 14.4799 78.3487 14.6545 78.4524 14.7767C78.5648 14.9135 78.7031 15.0212 78.8673 15.0998C79.0315 15.1784 79.2246 15.2191 79.4436 15.2191C79.8181 15.2191 80.1466 15.0881 80.4117 14.832C80.6825 14.5701 80.8208 14.2704 80.8208 13.9415C80.8208 13.6621 80.7084 13.2721 80.4693 12.7192L77.7004 6.14489V6.13907ZM75.5711 10.3619C74.9372 10.3619 74.4244 9.84383 74.4244 9.20358C74.4244 8.56332 74.9372 8.04529 75.5711 8.04529C76.205 8.04529 76.7179 8.56332 76.7179 9.20358C76.7179 9.84383 76.205 10.3619 75.5711 10.3619Z" fill="#0D4D96"/>
<path d="M88.3411 4.00293C87.9175 4.00293 87.5747 4.14553 87.3211 4.42201C87.0733 4.69266 86.9466 5.08555 86.9466 5.58611V11.2291C86.9466 12.9083 86.1484 12.9083 85.8488 12.9083C85.5693 12.9083 85.359 12.856 85.2264 12.7483C85.0795 12.6319 84.9786 12.498 84.9181 12.3408C84.8432 12.1429 84.7654 11.8694 84.6848 11.5289C84.5926 11.1331 84.4571 10.8421 84.2727 10.6412C84.0624 10.4142 83.7656 10.2978 83.3882 10.2978C83.0107 10.2978 82.6938 10.4142 82.4431 10.6412C82.1838 10.877 82.0513 11.2117 82.0513 11.6336C82.0513 11.9683 82.1031 12.3263 82.2097 12.693C82.3135 13.0568 82.4518 13.3856 82.6218 13.6708C82.9502 14.2151 83.3911 14.6138 83.9299 14.8582C84.4514 15.094 85.1025 15.2133 85.8632 15.2133C86.7132 15.2133 87.4479 15.0416 88.0501 14.7011C88.6667 14.3518 89.1162 13.86 89.387 13.2314C89.5426 12.8705 89.6463 12.5067 89.6895 12.1517C89.7328 11.8141 89.7529 11.4008 89.7529 10.9265V5.58611C89.7529 5.08264 89.6233 4.68975 89.3697 4.4191C89.1104 4.14262 88.7646 4.00293 88.3382 4.00293H88.3411Z" fill="#0D4D96"/>
<path d="M101.638 12.7134L98.8692 6.13907C98.7367 5.80729 98.6301 5.53955 98.5436 5.34165C98.4485 5.12338 98.3333 4.91675 98.1979 4.72468C98.0452 4.51223 97.8464 4.33761 97.6014 4.20665C97.3537 4.07278 97.0482 4.00293 96.6967 4.00293C96.3452 4.00293 96.0456 4.07278 95.7978 4.20665C95.5529 4.34052 95.3512 4.51805 95.1985 4.73632C95.063 4.9313 94.9334 5.17868 94.8152 5.46679L91.8216 12.7716C91.7064 13.048 91.6257 13.2576 91.5738 13.4176C91.5162 13.5981 91.4845 13.7785 91.4845 13.9531C91.4845 14.2907 91.6257 14.5905 91.9052 14.8466C92.1731 15.094 92.4901 15.2191 92.8445 15.2191C93.268 15.2191 93.5849 15.0852 93.7895 14.8262C93.9509 14.6196 94.1324 14.2529 94.3456 13.7087L94.7692 12.6115H98.6358L99.0594 13.6825V13.6912C99.1314 13.8513 99.2121 14.0346 99.31 14.2442C99.4166 14.4799 99.5175 14.6545 99.6212 14.7767C99.7336 14.9135 99.8748 15.0212 100.036 15.0998C100.2 15.1784 100.393 15.2191 100.612 15.2191C100.987 15.2191 101.313 15.0881 101.58 14.832C101.851 14.5701 101.99 14.2704 101.99 13.9415C101.99 13.6621 101.877 13.2721 101.638 12.7192V12.7134ZM96.7371 10.3619C96.1032 10.3619 95.5903 9.84383 95.5903 9.20358C95.5903 8.56332 96.1032 8.04529 96.7371 8.04529C97.3709 8.04529 97.8838 8.56332 97.8838 9.20358C97.8838 9.84383 97.3709 10.3619 96.7371 10.3619Z" fill="#0D4D96"/>
<path d="M1.44352 18.0001C0.645406 18.0001 0 17.3482 0 16.542C0 15.7359 0.645406 15.084 1.44352 15.084C4.36513 15.084 6.74218 12.683 6.74218 9.73199V6.47831C6.74218 5.67216 7.38759 5.02026 8.1857 5.02026C8.98381 5.02026 9.62922 5.67216 9.62922 6.47831V9.73199C9.62922 14.2895 5.95848 18.0001 1.44352 18.0001Z" fill="#6DACDE"/>
<path d="M14.9279 18.0001C15.726 18.0001 16.3714 17.3482 16.3714 16.542C16.3714 15.7359 15.726 15.084 14.9279 15.084C12.0063 15.084 9.62922 12.683 9.62922 9.73199V6.47831C9.62922 5.67216 8.98382 5.02026 8.18571 5.02026C7.38759 5.02026 6.74219 5.67216 6.74219 6.47831V9.73199C6.74219 14.2895 10.4129 18.0001 14.9279 18.0001Z" fill="#0D4D96"/>
<path d="M8.18572 3.76589C9.21528 3.76589 10.0499 2.92286 10.0499 1.88294C10.0499 0.843022 9.21528 0 8.18572 0C7.15616 0 6.32153 0.843022 6.32153 1.88294C6.32153 2.92286 7.15616 3.76589 8.18572 3.76589Z" fill="#0D4D96"/>
<path d="M28.3344 18.0001C29.1325 18.0001 29.7779 17.3482 29.7779 16.542C29.7779 15.7359 29.1325 15.084 28.3344 15.084C25.4128 15.084 23.0357 12.683 23.0357 9.73199V6.47831C23.0357 5.67216 22.3903 5.02026 21.5922 5.02026C20.7941 5.02026 20.1487 5.67216 20.1487 6.47831V9.73199C20.1487 14.2895 23.8194 18.0001 28.3344 18.0001Z" fill="#6DACDE"/>
<path d="M21.5922 3.76589C22.6218 3.76589 23.4564 2.92286 23.4564 1.88294C23.4564 0.843022 22.6218 0 21.5922 0C20.5627 0 19.728 0.843022 19.728 1.88294C19.728 2.92286 20.5627 3.76589 21.5922 3.76589Z" fill="#0D4D96"/>
<path d="M21.5924 5.02026C20.7943 5.02026 20.1489 5.67216 20.1489 6.47831V9.73199C20.1489 12.0806 18.6448 14.077 16.5559 14.7988C17.014 15.2382 17.305 15.8552 17.305 16.542C17.305 16.964 17.1956 17.3598 17.0054 17.7061C20.4744 16.7486 23.0359 13.5357 23.0359 9.73199V6.47831C23.0359 5.67216 22.3905 5.02026 21.5924 5.02026Z" fill="#0D4D96"/>
</g>
<defs>
<clipPath id="clip0_313_11496">
<rect width="102" height="18" fill="white"/>
</clipPath>
</defs>
</svg>
