<svg width="239" height="42" viewBox="0 0 239 42" fill="none" xmlns="http://www.w3.org/2000/svg">
<path d="M101.264 9.34039C100.339 9.34039 99.5832 9.65955 99.0228 10.2843C98.4827 10.8887 98.2059 11.7579 98.2059 12.8715V24.5514L89.929 12.5659C89.6589 12.1585 89.3956 11.7579 89.1391 11.3844C88.8555 10.9634 88.572 10.6102 88.2884 10.3386C87.9778 10.033 87.6133 9.79536 87.2082 9.61881C86.7896 9.43546 86.2968 9.34039 85.7364 9.34039C85.0208 9.34039 84.3389 9.53732 83.7178 9.9176C83.09 10.3115 82.6241 10.8275 82.3406 11.4794C82.1178 12.0227 82.0098 12.7221 82.0098 13.6117V31.9735C82.0098 33.0668 82.2933 33.936 82.8604 34.554C83.441 35.1923 84.2107 35.5115 85.1423 35.5115C86.074 35.5115 86.8099 35.1923 87.3972 34.5743C87.9778 33.9632 88.2749 33.0872 88.2749 31.9735V20.5245L96.3224 32.3334C96.5992 32.7137 96.8692 33.094 97.146 33.4607C97.4498 33.8681 97.7874 34.228 98.1452 34.5336C98.5368 34.8663 98.9621 35.1108 99.4144 35.267C99.8532 35.4164 100.353 35.4979 100.886 35.4979C102.189 35.4979 104.37 34.9886 104.37 31.5865V12.8783C104.37 11.7646 104.093 10.8887 103.539 10.2843C102.972 9.65955 102.203 9.34039 101.258 9.34039H101.264Z" fill="white"/>
<path d="M126.19 14.3244C125.879 13.5503 125.629 12.9255 125.427 12.4638C125.204 11.9545 124.934 11.4723 124.617 11.0242C124.259 10.5284 123.793 10.121 123.219 9.81543C122.639 9.50306 121.923 9.34009 121.099 9.34009C120.276 9.34009 119.574 9.50306 118.993 9.81543C118.419 10.1278 117.946 10.542 117.589 11.0513C117.271 11.5063 116.968 12.0835 116.691 12.7558L109.676 29.8002C109.406 30.4453 109.217 30.9343 109.096 31.3078C108.961 31.7288 108.886 32.1498 108.886 32.5572C108.886 33.3449 109.217 34.0444 109.872 34.6419C110.5 35.2192 111.243 35.5111 112.073 35.5111C113.065 35.5111 113.808 35.1988 114.287 34.5944C114.665 34.1123 115.091 33.2567 115.59 31.9868L116.583 29.4268H125.643L126.635 31.9257V31.9461C126.804 32.3196 126.993 32.7474 127.223 33.2363C127.472 33.7863 127.709 34.1938 127.952 34.479C128.215 34.7981 128.546 35.0494 128.924 35.2327C129.309 35.4161 129.761 35.5111 130.274 35.5111C131.152 35.5111 131.922 35.2056 132.543 34.608C133.177 33.9968 133.501 33.2974 133.501 32.5301C133.501 31.8782 133.238 30.9682 132.678 29.678L126.19 14.338V14.3244ZM121.201 24.1776C119.715 24.1776 118.514 22.9689 118.514 21.4749C118.514 19.981 119.715 18.7723 121.201 18.7723C122.686 18.7723 123.888 19.981 123.888 21.4749C123.888 22.9689 122.686 24.1776 121.201 24.1776Z" fill="white"/>
<path d="M159.615 21.2441C159.068 21.1083 158.413 21.0403 157.65 21.0403H151.932C151.054 21.0403 150.339 21.278 149.792 21.7466C149.218 22.2355 148.921 22.8942 148.921 23.6479C148.921 24.8295 149.529 25.4203 150.035 25.7055C150.636 26.045 151.46 26.208 152.54 26.208H155.672V28.8156C154.815 29.2298 153.957 29.5626 153.12 29.8002C152.168 30.0719 151.135 30.2077 150.049 30.2077C147.861 30.2077 146.214 29.5558 145.019 28.2112C143.817 26.8599 143.203 24.8635 143.203 22.283C143.203 21.0811 143.365 19.981 143.682 19.0032C143.993 18.0525 144.438 17.2376 145.019 16.5925C145.586 15.9542 146.288 15.4585 147.091 15.1189C147.908 14.7794 148.86 14.6028 149.913 14.6028C150.967 14.6028 151.763 14.7454 152.391 15.0239C153.019 15.3023 153.519 15.6418 153.87 16.0357C154.275 16.4838 154.781 17.1629 155.409 18.1C155.706 18.4871 156.084 18.7927 156.523 19.0032C156.962 19.2137 157.428 19.3223 157.9 19.3223C158.751 19.3223 159.493 19.0371 160.108 18.4803C160.736 17.9099 161.067 17.1765 161.067 16.3548C161.067 15.6486 160.837 14.8948 160.358 14.0392C159.905 13.2311 159.23 12.4638 158.353 11.7576C157.482 11.0513 156.341 10.4673 154.97 10.0124C153.606 9.56419 152.033 9.33331 150.285 9.33331C148.172 9.33331 146.248 9.6321 144.567 10.2297C142.865 10.834 141.393 11.7168 140.205 12.8576C139.004 14.0053 138.085 15.4177 137.471 17.061C136.863 18.6772 136.56 20.4835 136.56 22.4188C136.56 24.3542 136.877 26.208 137.505 27.8174C138.139 29.4403 139.058 30.846 140.239 31.9936C141.42 33.1344 142.865 34.0172 144.533 34.6148C146.18 35.2056 148.023 35.5044 150.015 35.5044C151.709 35.5044 153.303 35.3142 154.754 34.9475C156.192 34.5808 157.711 33.9833 159.257 33.182C159.831 32.8832 160.31 32.564 160.688 32.2313C161.121 31.851 161.431 31.4096 161.6 30.9207C161.755 30.4725 161.829 29.9157 161.829 29.2163V24.653C161.829 23.6547 161.634 22.8942 161.229 22.3441C160.817 21.7805 160.277 21.4138 159.608 21.2509L159.615 21.2441Z" fill="white"/>
<path d="M182.063 14.3244C181.752 13.5503 181.503 12.9255 181.3 12.4638C181.077 11.9545 180.807 11.4723 180.49 11.0242C180.132 10.5284 179.666 10.121 179.092 9.81543C178.512 9.50306 177.796 9.34009 176.972 9.34009C176.149 9.34009 175.447 9.50306 174.866 9.81543C174.292 10.1278 173.82 10.542 173.462 11.0513C173.145 11.5063 172.841 12.0835 172.564 12.7558L165.549 29.8002C165.279 30.4453 165.09 30.9343 164.969 31.3078C164.834 31.7288 164.76 32.1498 164.76 32.5572C164.76 33.3449 165.09 34.0444 165.745 34.6419C166.373 35.2192 167.116 35.5111 167.946 35.5111C168.939 35.5111 169.681 35.1988 170.16 34.5944C170.539 34.1123 170.964 33.2567 171.463 31.9868L172.456 29.4268H181.516L182.508 31.9257V31.9461C182.677 32.3196 182.866 32.7474 183.096 33.2363C183.346 33.7863 183.582 34.1938 183.825 34.479C184.088 34.7981 184.412 35.0494 184.797 35.2327C185.182 35.4161 185.634 35.5111 186.147 35.5111C187.025 35.5111 187.795 35.2056 188.416 34.608C189.05 33.9968 189.374 33.2974 189.374 32.5301C189.374 31.8782 189.111 30.9682 188.551 29.678L182.063 14.338V14.3244ZM177.074 24.1776C175.588 24.1776 174.387 22.9689 174.387 21.4749C174.387 19.981 175.588 18.7723 177.074 18.7723C178.559 18.7723 179.761 19.981 179.761 21.4749C179.761 22.9689 178.559 24.1776 177.074 24.1776Z" fill="white"/>
<path d="M206.995 9.34009C206.003 9.34009 205.199 9.67283 204.605 10.3179C204.025 10.9495 203.728 11.8662 203.728 13.0342V26.2012C203.728 30.1194 201.857 30.1194 201.155 30.1194C200.5 30.1194 200.008 29.9972 199.697 29.7459C199.353 29.4743 199.116 29.1619 198.975 28.7952C198.799 28.3335 198.617 27.6951 198.428 26.9006C198.212 25.9771 197.894 25.2981 197.462 24.8295C196.97 24.2998 196.274 24.0282 195.39 24.0282C194.505 24.0282 193.763 24.2998 193.175 24.8295C192.568 25.3795 192.257 26.1605 192.257 27.1451C192.257 27.926 192.379 28.7613 192.629 29.6169C192.872 30.4657 193.196 31.2331 193.594 31.8985C194.364 33.1684 195.397 34.0987 196.659 34.6691C197.881 35.2192 199.407 35.4976 201.189 35.4976C203.181 35.4976 204.902 35.0969 206.313 34.3024C207.758 33.4875 208.811 32.3399 209.446 30.8732C209.81 30.0311 210.053 29.1823 210.155 28.3538C210.256 27.5661 210.303 26.6019 210.303 25.495V13.0342C210.303 11.8594 209.999 10.9427 209.405 10.3111C208.798 9.66604 207.988 9.34009 206.988 9.34009H206.995Z" fill="white"/>
<path d="M238.152 29.6644L231.664 14.3244C231.354 13.5503 231.104 12.9255 230.901 12.4638C230.678 11.9545 230.408 11.4723 230.091 11.0242C229.733 10.5284 229.267 10.121 228.694 9.81543C228.113 9.50306 227.397 9.34009 226.574 9.34009C225.75 9.34009 225.048 9.50306 224.467 9.81543C223.893 10.1278 223.421 10.542 223.063 11.0513C222.746 11.5063 222.442 12.0835 222.165 12.7558L215.151 29.8002C214.881 30.4453 214.692 30.9343 214.57 31.3078C214.435 31.7288 214.361 32.1498 214.361 32.5572C214.361 33.3449 214.692 34.0444 215.346 34.6419C215.974 35.2192 216.717 35.5111 217.547 35.5111C218.54 35.5111 219.282 35.1988 219.762 34.5944C220.14 34.1123 220.565 33.2567 221.065 31.9868L222.057 29.4268H231.117L232.11 31.9257V31.9461C232.278 32.3196 232.467 32.7474 232.697 33.2363C232.947 33.7863 233.183 34.1938 233.426 34.479C233.689 34.7981 234.02 35.0494 234.398 35.2327C234.783 35.4161 235.236 35.5111 235.749 35.5111C236.626 35.5111 237.389 35.2056 238.017 34.608C238.652 33.9968 238.976 33.2974 238.976 32.5301C238.976 31.8782 238.712 30.9682 238.152 29.678V29.6644ZM226.668 24.1776C225.183 24.1776 223.981 22.9689 223.981 21.4749C223.981 19.981 225.183 18.7723 226.668 18.7723C228.153 18.7723 229.355 19.981 229.355 21.4749C229.355 22.9689 228.153 24.1776 226.668 24.1776Z" fill="white"/>
<path d="M3.38236 42C1.51227 42 0 40.4789 0 38.5979C0 36.7169 1.51227 35.1958 3.38236 35.1958C10.2281 35.1958 15.7979 29.5935 15.7979 22.7078V15.1159C15.7979 13.2349 17.3101 11.7138 19.1802 11.7138C21.0503 11.7138 22.5626 13.2349 22.5626 15.1159V22.7078C22.5626 33.3419 13.9615 42 3.38236 42Z" fill="#6DACDE"/>
<path d="M34.9781 42C36.8482 42 38.3604 40.4789 38.3604 38.5979C38.3604 36.7169 36.8482 35.1958 34.9781 35.1958C28.1323 35.1958 22.5626 29.5935 22.5626 22.7078V15.1159C22.5626 13.2349 21.0503 11.7138 19.1802 11.7138C17.3101 11.7138 15.7979 13.2349 15.7979 15.1159V22.7078C15.7979 33.3419 24.3989 42 34.9781 42Z" fill="white"/>
<path d="M19.1802 8.78706C21.5926 8.78706 23.5482 6.82001 23.5482 4.39353C23.5482 1.96705 21.5926 0 19.1802 0C16.7678 0 14.8121 1.96705 14.8121 4.39353C14.8121 6.82001 16.7678 8.78706 19.1802 8.78706Z" fill="white"/>
<path d="M66.3915 42C68.2616 42 69.7739 40.4789 69.7739 38.5979C69.7739 36.7169 68.2616 35.1958 66.3915 35.1958C59.5458 35.1958 53.976 29.5935 53.976 22.7078V15.1159C53.976 13.2349 52.4638 11.7138 50.5937 11.7138C48.7236 11.7138 47.2113 13.2349 47.2113 15.1159V22.7078C47.2113 33.3419 55.8124 42 66.3915 42Z" fill="#6DACDE"/>
<path d="M50.5936 8.78706C53.006 8.78706 54.9617 6.82001 54.9617 4.39353C54.9617 1.96705 53.006 0 50.5936 0C48.1812 0 46.2256 1.96705 46.2256 4.39353C46.2256 6.82001 48.1812 8.78706 50.5936 8.78706Z" fill="white"/>
<path d="M50.5936 11.7138C48.7235 11.7138 47.2113 13.2349 47.2113 15.1159V22.7078C47.2113 28.1879 43.6871 32.8462 38.7925 34.5303C39.8659 35.5557 40.5478 36.9953 40.5478 38.5979C40.5478 39.5825 40.2913 40.506 39.8457 41.3141C47.9741 39.08 53.976 31.5832 53.976 22.7078V15.1159C53.976 13.2349 52.4637 11.7138 50.5936 11.7138Z" fill="white"/>
</svg>
