<svg width="36" height="33" viewBox="0 0 36 33" fill="none" xmlns="http://www.w3.org/2000/svg">
<g clip-path="url(#clip0_591_16224)">
<path d="M12.1182 10.375L13.5 16L14.8818 10.375C14.9483 10.1039 15.133 9.87801 15.3842 9.75753C16.9729 9.00452 18 7.37801 18 5.59337C18 3.06325 15.9828 1 13.5 1C11.0172 1 9 3.05572 9 5.59337C9 7.37048 10.0271 9.00452 11.6158 9.75753C11.867 9.87801 12.0443 10.0964 12.1182 10.375ZM10.4483 5.6009C10.4483 3.88404 11.8227 2.48343 13.5074 2.48343C15.1921 2.48343 16.5665 3.88404 16.5665 5.6009C16.5665 7.31777 15.1921 8.71084 13.5074 8.71084C11.8227 8.71084 10.4483 7.31777 10.4483 5.6009Z" fill="#FF4755"/>
<path d="M3.51858 25.9922L2 31.9922H10.4567L11 25.9922H3.51858Z" fill="#DADADA"/>
<path d="M4 23.9922H11.5061L11.7111 22.2659C11.7624 21.8308 12.1505 21.501 12.6119 21.501C12.6412 21.501 12.6705 21.501 12.6998 21.501C13.1977 21.5571 13.5492 21.9782 13.498 22.4553L13.3149 23.9852H22L21.6338 20.8413H16.061C15.5631 20.8413 15.1603 20.4553 15.1603 19.9782C15.1603 19.501 15.5631 19.115 16.061 19.115H21.4288L21.0627 15.9922H14.8308L13.7323 20.1887C13.6298 20.5746 13.271 20.8413 12.8609 20.8413C12.4508 20.8413 12.0919 20.5746 11.9894 20.1887L10.891 15.9922H6.59967L5.58177 19.115H9.66802C10.166 19.115 10.5688 19.501 10.5688 19.9782C10.5688 20.4553 10.166 20.8413 9.66802 20.8413H5.02522L4 23.9852V23.9922Z" fill="#FFF2DC"/>
<path d="M14 5.99219C14 5.43862 13.5536 4.99219 13 4.99219C12.4464 4.99219 12 5.43862 12 5.99219C12 6.54576 12.4464 6.99219 13 6.99219C13.5536 6.99219 14 6.54576 14 5.99219Z" fill="#FFF2DC"/>
<path d="M31 21.9922L29.0397 15.9922H23L23.4087 19.4435L31 21.9922Z" fill="#DADADA"/>
<path d="M25 26.9922L25.5039 31.9922H34L33.5451 30.3516L25 26.9922Z" fill="#DADADA"/>
<path d="M23 31.9922L22.4421 25.9922H13.5579L13 31.9922H23Z" fill="#FF4755"/>
<path d="M31.9412 24.6998L24 21.9922L24.3579 25.0391L33 27.9922L31.9412 24.6998Z" fill="#FF4755"/>
<path d="M35.9747 32.29L30.523 14.8402C30.4556 14.6152 30.2381 14.4577 30.0056 14.4577H15.0905L15.8553 11.3982C17.85 10.3634 19.1248 8.29371 19.1248 6.03656C19.1248 2.70708 16.4177 0 13.0883 0C9.75878 0 7.0592 2.70708 7.0592 6.03656C7.0592 8.28621 8.33401 10.3634 10.3287 11.3982L11.0936 14.4577H6.00187C5.76191 14.4577 5.55194 14.6152 5.48445 14.8402L0.0252999 32.29C-0.027192 32.4549 0.00280338 32.6349 0.107787 32.7774C0.212771 32.9199 0.370246 33.0024 0.550218 33.0024H35.4498C35.6223 33.0024 35.7872 32.9199 35.8922 32.7774C35.9972 32.6349 36.0272 32.4549 35.9747 32.29ZM29.6007 15.5451L31.8503 22.7515L23.3992 19.7744L22.9267 15.5451H29.6007ZM11.0186 10.5209C9.27136 9.71099 8.14653 7.95626 8.14653 6.03656C8.14653 3.30698 10.3662 1.08733 13.0883 1.08733C15.8103 1.08733 18.03 3.30698 18.03 6.03656C18.03 7.95626 16.8977 9.71099 15.1579 10.5209C15.008 10.5884 14.8955 10.7233 14.858 10.8808L13.0883 17.9372L11.3185 10.8808C11.281 10.7233 11.1686 10.5884 11.0186 10.5209ZM11.2361 31.9075H1.2926L3.15981 25.9235H11.9109L11.2361 31.9075ZM12.0309 24.8361H3.49726L4.77956 20.7268H9.81128C10.1112 20.7268 10.3587 20.4793 10.3587 20.1794C10.3587 19.8794 10.1112 19.6319 9.81128 19.6319H5.12451L6.39931 15.5451H11.3635L12.5558 20.3068C12.6158 20.5468 12.8333 20.7193 13.0883 20.7193C13.3432 20.7193 13.5532 20.5468 13.6207 20.3068L14.813 15.5451H21.8244L22.2818 19.6319H16.3653C16.0653 19.6319 15.8178 19.8794 15.8178 20.1794C15.8178 20.4793 16.0653 20.7268 16.3653 20.7268H22.4093L22.8742 24.8361H13.1408L13.3732 22.7815C13.4032 22.4815 13.1932 22.2115 12.8933 22.1815C12.5933 22.1515 12.3234 22.3615 12.2934 22.6615L12.0459 24.8361H12.0309ZM12.3309 31.9075L13.0058 25.9235H22.9867L23.6616 31.9075H12.3384H12.3309ZM23.5266 20.9817L32.2478 24.0563L33.5976 28.3681L23.9766 24.9786L23.5266 20.9817ZM24.7564 31.9075L24.1115 26.1859L34.0025 29.6729L34.6999 31.915H24.7489L24.7564 31.9075Z" fill="#222222"/>
<path d="M15.8178 6.03622C15.8178 4.52895 14.5955 3.30664 13.0882 3.30664C11.581 3.30664 10.3586 4.52895 10.3586 6.03622C10.3586 7.54348 11.581 8.75829 13.0882 8.75829C14.5955 8.75829 15.8178 7.53598 15.8178 6.03622ZM11.4535 6.03622C11.4535 5.12886 12.1884 4.40147 13.0882 4.40147C13.9881 4.40147 14.723 5.13636 14.723 6.03622C14.723 6.93608 13.9881 7.67096 13.0882 7.67096C12.1884 7.67096 11.4535 6.93608 11.4535 6.03622Z" fill="#222222"/>
</g>
<defs>
<clipPath id="clip0_591_16224">
<rect width="36" height="33" fill="white"/>
</clipPath>
</defs>
</svg>
