<svg width="28" height="30" viewBox="0 0 28 30" fill="none" xmlns="http://www.w3.org/2000/svg">
<g clip-path="url(#clip0_313_14764)">
<path d="M19.9687 19.4246C19.9687 20.8746 18.8812 22.0684 17.4375 22.2121C17.3937 22.2121 17.3187 22.2246 17.2375 22.2246H11.2937V25.5184H18.9125C19.0562 25.5184 19.1937 25.5559 19.3187 25.6309L23.4 28.1684V26.2871C23.4 25.8621 23.7437 25.5184 24.1687 25.5184H26.2187V14.0684H21.5125C21.4187 14.4684 21.25 14.8434 21 15.1621C21.2125 15.5621 21.325 16.0059 21.325 16.4621C21.325 17.4621 20.7812 18.3871 19.9187 18.8871C19.9562 19.0684 19.975 19.2496 19.975 19.4309L19.9687 19.4246Z" fill="#FFF2DC"/>
<path d="M4.00625 12.0062H1.21875V20.6875H3.26875C3.69375 20.6875 4.0375 21.0313 4.0375 21.4563V23.5875L8.09375 20.825C8.09375 20.825 8.15 20.7938 8.175 20.7812C8.21875 20.7625 8.25625 20.7437 8.29375 20.7312C8.3375 20.7187 8.38125 20.7062 8.425 20.7C8.45 20.7 8.48125 20.6875 8.525 20.6875H17.275C17.9375 20.6187 18.4312 20.075 18.4312 19.425C18.4312 19.2125 18.375 19 18.2687 18.8125C18.15 18.6 18.1437 18.3438 18.2437 18.125C18.3438 17.9062 18.5438 17.7437 18.7812 17.6937C19.3625 17.5687 19.7875 17.05 19.7875 16.4625C19.7875 16.1437 19.6625 15.8375 19.4438 15.6C19.2938 15.4375 19.2188 15.225 19.2375 15.0062C19.2562 14.7875 19.3688 14.5937 19.5438 14.4562C19.8688 14.2125 20.0562 13.8437 20.0562 13.4437C20.0562 12.8312 19.6812 12.5875 19.525 12.5875C19.1062 12.5875 18.7625 12.2437 18.7563 11.8187C18.7563 11.4062 19.0812 11.0688 19.4875 11.05C19.5062 11.0312 19.9 10.7937 19.9 9.99375C19.9 9.34375 19.3937 8.925 19.0437 8.925H12.8C12.5625 8.925 12.3313 8.8125 12.1875 8.61875C12.0437 8.425 11.9937 8.175 12.0625 7.94375C12.2062 7.43125 12.5312 6.05625 12.3812 4.41875C12.2187 2.63125 11.425 1.25625 10.5375 1.21875C10.4375 1.21875 10.35 1.21875 10.2625 1.21875C10.0312 1.21875 9.84375 1.23125 9.69375 1.25C9.8875 2.3875 10.1 4.1125 9.825 4.975C9.28125 6.64375 8.0125 8.0625 6.99375 9.20625C6.30625 9.975 5.53125 10.8375 5.53125 11.2375V19.1812C5.53125 19.6062 5.1875 19.95 4.7625 19.95C4.3375 19.95 3.99375 19.6062 3.99375 19.1812V12.0062H4.00625Z" fill="#FF4755"/>
<path d="M26.9937 12.8433H21.2125C21.0938 12.3746 20.85 11.9996 20.5375 11.7433C20.875 11.3621 21.1313 10.7746 21.1313 9.99331C21.1313 8.74956 20.1812 7.70581 19.05 7.70581H13.3875C13.55 6.94331 13.7313 5.71206 13.6063 4.31831C13.3813 1.79956 12.1688 0.0683084 10.5938 0.00580841C9.2375 -0.0441916 8.68125 0.243308 8.5875 0.305808C8.425 0.405808 8.34375 0.599558 8.38125 0.787058C8.60625 1.91206 8.89375 3.94331 8.68125 4.60581C8.21875 6.03081 7.09375 7.28706 6.1 8.39956C5.28125 9.31206 4.6125 10.0683 4.4 10.7933H0.45625C0.20625 10.7933 0 10.9996 0 11.2496V21.4621C0 21.7121 0.20625 21.9183 0.45625 21.9183H2.81875V25.0433C2.81875 25.2121 2.9125 25.3683 3.0625 25.4433C3.13125 25.4808 3.2 25.4933 3.275 25.4933C3.3625 25.4933 3.45625 25.4683 3.53125 25.4121L8.66875 21.9121H10.0812V26.2808C10.0812 26.5308 10.2875 26.7371 10.5375 26.7371H18.7938L23.9375 29.9308C24.0125 29.9746 24.0938 29.9996 24.175 29.9996C24.25 29.9996 24.325 29.9808 24.3937 29.9433C24.5375 29.8621 24.625 29.7121 24.625 29.5433V26.7308H26.9875C27.2375 26.7308 27.4438 26.5246 27.4438 26.2746V13.2996C27.4438 13.0496 27.2375 12.8433 26.9875 12.8433H26.9937ZM8.53125 20.9996C8.53125 20.9996 8.50625 21.0058 8.4875 21.0058C8.45625 21.0058 8.43125 21.0121 8.4 21.0246C8.36875 21.0371 8.34375 21.0433 8.3125 21.0621C8.3 21.0683 8.2875 21.0683 8.275 21.0808L3.73125 24.1746V21.4558C3.73125 21.2058 3.525 20.9996 3.275 20.9996H0.90625V11.6933H4.31875V19.1808C4.31875 19.4308 4.525 19.6371 4.775 19.6371C5.025 19.6371 5.23125 19.4308 5.23125 19.1808V11.2371C5.23125 10.7183 5.98125 9.88081 6.775 8.99956C7.775 7.88081 9.025 6.48706 9.54375 4.88081C9.8375 3.97456 9.5125 1.88706 9.35 0.993308C9.5875 0.937058 9.98125 0.887058 10.5625 0.912058C11.625 0.955808 12.5312 2.41831 12.7063 4.39331C12.8562 6.08081 12.525 7.49956 12.375 8.03081C12.3375 8.16831 12.3625 8.31831 12.45 8.43081C12.5375 8.54331 12.6687 8.61206 12.8125 8.61206H19.0562C19.6063 8.61206 20.225 9.19956 20.225 9.99331C20.225 10.9746 19.6812 11.3433 19.5312 11.3621C19.2812 11.3621 19.075 11.5683 19.0813 11.8183C19.0813 12.0683 19.2875 12.2746 19.5375 12.2746C19.8937 12.2746 20.3813 12.6808 20.3813 13.4433C20.3813 13.9433 20.15 14.4058 19.7437 14.7058C19.6375 14.7808 19.575 14.8996 19.5625 15.0308C19.55 15.1621 19.5938 15.2871 19.6812 15.3808C19.9562 15.6746 20.1125 16.0558 20.1125 16.4558C20.1125 17.1933 19.5875 17.8371 18.8625 17.9933C18.7188 18.0246 18.6063 18.1183 18.5438 18.2496C18.4813 18.3808 18.4875 18.5308 18.5562 18.6558C18.6875 18.8933 18.7563 19.1558 18.7563 19.4183C18.7563 20.2371 18.1438 20.9121 17.3125 20.9871C17.2938 20.9871 17.2688 20.9871 17.25 20.9871H8.525L8.53125 20.9996ZM26.5438 25.8246H24.1812C23.9312 25.8246 23.725 26.0308 23.725 26.2808V28.7246L19.1625 25.8933C19.0938 25.8496 19.0063 25.8246 18.925 25.8246H10.9937V21.9058H17.25C17.3125 21.9058 17.375 21.9058 17.4188 21.8933C18.7 21.7683 19.6625 20.7058 19.6625 19.4183C19.6625 19.1808 19.625 18.9433 19.5563 18.7121C20.425 18.3121 21.0125 17.4371 21.0125 16.4558C21.0125 15.9808 20.875 15.5183 20.625 15.1246C20.975 14.7433 21.1875 14.2621 21.2562 13.7558H26.5375V25.8308L26.5438 25.8246Z" fill="#222222"/>
</g>
<defs>
<clipPath id="clip0_313_14764">
<rect width="27.4438" height="30" fill="white"/>
</clipPath>
</defs>
</svg>
