<svg width="30" height="30" viewBox="0 0 30 30" fill="none" xmlns="http://www.w3.org/2000/svg">
<g clip-path="url(#clip0_313_14626)">
<path d="M20.5125 19.3686C20.3438 19.5623 20.1188 19.8123 19.9625 19.9686C19.8063 20.1248 19.5563 20.3498 19.3688 20.5186L20.8125 21.9623L21.9625 20.8123L20.5125 19.3623V19.3686Z" fill="#FF4755"/>
<path d="M11.5625 21.9121C14.325 21.9121 16.925 20.8371 18.875 18.8809C20.0375 17.7184 20.875 16.3371 21.3812 14.7684C20.6 13.8809 20.1688 12.7496 20.1688 11.5684C20.1688 10.3871 20.6 9.24961 21.3875 8.36211C20.8813 6.79336 20.0375 5.41211 18.8812 4.25586C16.925 2.29961 14.3312 1.22461 11.5687 1.22461C8.80625 1.22461 6.20625 2.29961 4.25625 4.25586C2.3 6.20586 1.21875 8.80586 1.21875 11.5684C1.21875 14.3309 2.29375 16.9309 4.25 18.8809C6.20625 20.8371 8.8 21.9121 11.5625 21.9121ZM11.175 4.44961H11.2688C11.3438 4.44961 11.4437 4.44336 11.5625 4.44336C14.2562 4.44336 17.3125 5.94961 17.8125 10.1809C17.8125 10.1809 17.9375 10.7309 19.0938 12.5371C19.1187 12.5746 19.4125 12.9996 19.2875 13.5496C19.2313 13.7996 19.0688 14.1559 18.6187 14.4184C18.35 14.5746 18.0625 14.7121 17.825 14.8246C17.8687 15.4309 17.9 16.3434 17.7875 16.9434C17.6687 17.5621 17.0875 18.2934 14.975 18.2996V19.6621C14.975 20.0871 14.6312 20.4309 14.2062 20.4309C13.7812 20.4309 13.4375 20.0871 13.4375 19.6621V17.8309C13.4375 17.2996 13.8313 16.7621 14.7 16.7621C14.7625 16.7621 14.8 16.7621 14.8187 16.7621C14.8437 16.7621 14.8937 16.7621 14.95 16.7621C15.7375 16.7621 16.15 16.6309 16.2812 16.5621C16.3562 16.0121 16.3 14.9746 16.2375 14.4184C16.2 14.0746 16.4 13.7434 16.725 13.6184C16.8187 13.5809 17.2625 13.4059 17.675 13.1809C16.4875 11.3059 16.2875 10.5746 16.2688 10.3059C15.7937 6.28711 12.5375 5.97461 11.55 5.97461C11.45 5.97461 11.3625 5.97461 11.2937 5.97461H11.1688C10.3563 5.97461 6.325 6.18711 6.30625 10.3434C6.30625 13.1309 7.03125 14.0184 7.66875 14.8059C7.94375 15.1434 8.225 15.4871 8.425 15.9246C9.0625 17.3309 9.025 18.3809 8.8875 19.3059C8.83125 19.6809 8.50625 19.9621 8.13125 19.9621C8.09375 19.9621 8.05625 19.9621 8.025 19.9559C7.81875 19.9246 7.64375 19.8184 7.51875 19.6559C7.39375 19.4934 7.34375 19.2871 7.375 19.0871C7.46875 18.4434 7.525 17.6621 7.03125 16.5621C6.9125 16.3059 6.71875 16.0621 6.4875 15.7871C5.71875 14.8496 4.76875 13.6871 4.76875 10.3809C4.8 4.61211 10.5125 4.44336 11.1625 4.44336L11.175 4.44961Z" fill="#FFF2DC"/>
<path d="M25.0313 14.8873C26.8625 14.8873 28.3563 13.3936 28.3563 11.5623C28.3563 9.73105 26.8625 8.2373 25.0313 8.2373C23.2 8.2373 21.7063 9.73105 21.7063 11.5623C21.7063 13.3936 23.2 14.8873 25.0313 14.8873ZM23.2125 10.7936H24.2625V9.74355C24.2625 9.31855 24.6063 8.9748 25.0313 8.9748C25.4563 8.9748 25.8 9.31855 25.8 9.74355V10.7936H26.85C27.275 10.7936 27.6188 11.1373 27.6188 11.5623C27.6188 11.9873 27.275 12.3311 26.85 12.3311H25.8V13.3811C25.8 13.8061 25.4563 14.1498 25.0313 14.1498C24.6063 14.1498 24.2625 13.8061 24.2625 13.3811V12.3311H23.2125C22.7875 12.3311 22.4438 11.9873 22.4438 11.5623C22.4438 11.1373 22.7875 10.7936 23.2125 10.7936Z" fill="#FF4755"/>
<path d="M25.9563 23.2129L23.2125 25.9566L25.4688 28.2129C25.8313 28.5754 26.3188 28.7816 26.8375 28.7816C27.3563 28.7816 27.8438 28.5816 28.2063 28.2129C28.575 27.8441 28.775 27.3566 28.775 26.8441C28.775 26.3316 28.575 25.8379 28.2063 25.4754L25.95 23.2191L25.9563 23.2129Z" fill="#DADADA"/>
<path d="M23.839 21.1047L21.099 23.8447L22.1243 24.87L24.8643 22.13L23.839 21.1047Z" fill="#DADADA"/>
<path d="M29.075 24.6062L24.1625 19.6938C23.9937 19.525 23.6875 19.525 23.5188 19.6938L23.0437 20.1688C23.0437 20.1688 21.0375 18.175 21.0312 18.1688C21.6438 17.2875 22.1437 16.3375 22.4875 15.325C23.2125 15.8188 24.0875 16.1063 25.0312 16.1063C27.5375 16.1063 29.575 14.0688 29.575 11.5625C29.575 9.05625 27.5375 7.01875 25.0312 7.01875C24.0938 7.01875 23.2188 7.30625 22.5 7.79375C21.9375 6.15625 21.0125 4.65 19.75 3.3875C17.5562 1.20625 14.6562 0 11.5625 0C8.46875 0 5.56875 1.2 3.3875 3.3875C1.20625 5.575 0 8.475 0 11.5688C0 14.6625 1.2 17.5625 3.3875 19.7437C5.575 21.9312 8.475 23.1312 11.5625 23.1312C13.9625 23.1312 16.25 22.3938 18.175 21.05L20.1688 23.05L19.6938 23.525C19.5187 23.7 19.5187 23.9875 19.6938 24.1687L24.6062 29.0812C25.225 29.7 26.0312 30.0062 26.8438 30.0062C27.6562 30.0062 28.4625 29.7 29.0812 29.0812C30.3125 27.85 30.3125 25.8438 29.0812 24.6125L29.075 24.6062ZM25.025 7.93125C27.0312 7.93125 28.6625 9.5625 28.6625 11.5688C28.6625 13.575 27.0312 15.2063 25.025 15.2063C23.0188 15.2063 21.3875 13.575 21.3875 11.5688C21.3875 9.5625 23.0188 7.93125 25.025 7.93125ZM11.5625 22.225C8.71875 22.225 6.0375 21.1187 4.025 19.1063C2.0125 17.0938 0.90625 14.4187 0.90625 11.5688C0.90625 8.71875 2.01875 6.04375 4.03125 4.03125C6.04375 2.01875 8.71875 0.9125 11.5625 0.9125C14.4062 0.9125 17.0875 2.01875 19.1 4.03125C20.35 5.28125 21.2375 6.79375 21.7375 8.4375C20.9625 9.25 20.4813 10.3562 20.4813 11.5688C20.4813 12.7812 20.9625 13.875 21.7313 14.6938C21.2313 16.3438 20.35 17.8563 19.1 19.1063C17.0875 21.1187 14.4125 22.225 11.5625 22.225ZM18.9062 20.5C18.9062 20.5 19.475 20.0125 19.7375 19.7437C19.9937 19.4875 20.4813 18.9188 20.4938 18.9062L22.4 20.8125L20.8125 22.4L18.9125 20.5H18.9062ZM20.6562 23.8438L23.8375 20.6625L25.3063 22.1313L22.125 25.3125L20.6562 23.8438ZM28.4313 28.4375C27.55 29.3125 26.125 29.3125 25.25 28.4375L22.7687 25.9562L25.95 22.775L28.4313 25.2563C28.8563 25.6812 29.0875 26.25 29.0875 26.85C29.0875 27.45 28.85 28.0187 28.425 28.4437L28.4313 28.4375Z" fill="#222222"/>
<path d="M17.5062 10.2125C17.0312 6.1875 14.125 4.75 11.5687 4.75C11.4562 4.75 11.3562 4.75 11.2812 4.75H11.1812C10.5625 4.75 5.12498 4.90625 5.09998 10.375C5.09998 13.5688 6.01248 14.6812 6.74373 15.575C6.98748 15.875 7.19373 16.1313 7.33123 16.425C7.86248 17.6 7.79998 18.4375 7.69998 19.125C7.66248 19.375 7.83748 19.6062 8.08123 19.6438C8.33123 19.6812 8.56248 19.5062 8.59373 19.2625C8.72498 18.3875 8.75623 17.3938 8.14998 16.0562C7.96873 15.65 7.71248 15.3375 7.43748 15.0063C6.76248 14.1812 5.99998 13.25 5.99998 10.35C6.01873 5.89375 10.3125 5.66875 11.1687 5.66875H11.2937C11.3625 5.66875 11.45 5.66875 11.5562 5.66875C12.6062 5.66875 16.0875 6.00625 16.5875 10.2937C16.5937 10.45 16.725 11.1187 18.0625 13.2062C18.0812 13.2312 18.0937 13.275 18.0875 13.2875C18.0875 13.2875 18.075 13.3187 17.9937 13.3625C17.475 13.6625 16.8437 13.9125 16.8375 13.9125C16.6437 13.9875 16.525 14.1812 16.55 14.3875C16.6 14.825 16.6937 16.0938 16.575 16.7125C16.55 16.8375 16.0375 17.075 14.95 17.075C14.85 17.075 14.7812 17.075 14.7875 17.075C14.7875 17.075 14.75 17.075 14.6937 17.075C13.9875 17.075 13.7437 17.4812 13.7437 17.8313V19.6625C13.7437 19.9125 13.95 20.1187 14.2 20.1187C14.45 20.1187 14.6562 19.9125 14.6562 19.6625V17.9875C14.6562 17.9875 14.7062 17.9875 14.7375 17.9875C14.7375 17.9875 14.8187 17.9875 14.9562 17.9875C16.0125 17.9875 17.3 17.7937 17.475 16.8875C17.6 16.2375 17.5375 15.175 17.4875 14.6312C17.7437 14.5187 18.1125 14.35 18.45 14.1562C18.8062 13.95 18.9312 13.6812 18.975 13.4875C19.0625 13.0813 18.85 12.7562 18.8187 12.7125C17.6 10.8063 17.4937 10.2438 17.4875 10.225L17.5062 10.2125Z" fill="#222222"/>
<path d="M23.2125 12.0184H24.575V13.3809C24.575 13.6309 24.7812 13.8371 25.0312 13.8371C25.2812 13.8371 25.4875 13.6309 25.4875 13.3809V12.0184H26.85C27.1 12.0184 27.3062 11.8121 27.3062 11.5621C27.3062 11.3121 27.1 11.1059 26.85 11.1059H25.4875V9.74336C25.4875 9.49336 25.2812 9.28711 25.0312 9.28711C24.7812 9.28711 24.575 9.49336 24.575 9.74336V11.1059H23.2125C22.9625 11.1059 22.7562 11.3121 22.7562 11.5621C22.7562 11.8121 22.9625 12.0184 23.2125 12.0184Z" fill="#222222"/>
</g>
<defs>
<clipPath id="clip0_313_14626">
<rect width="30" height="30" fill="white"/>
</clipPath>
</defs>
</svg>
