<svg width="34" height="30" viewBox="0 0 34 30" fill="none" xmlns="http://www.w3.org/2000/svg">
<g clip-path="url(#clip0_313_14451)">
<path d="M30.9373 15.6356H32.0134V2.77051C30.2777 5.22133 27.9032 10.0813 30.9373 15.6356Z" fill="#DADADA"/>
<path d="M17.2924 23.7694C22.1376 23.6485 25.9674 19.6226 25.8464 14.7774C25.7255 9.93219 21.6996 6.10243 16.8544 6.22338C12.0092 6.34433 8.17947 10.3702 8.30043 15.2154C8.42138 20.0606 12.4472 23.8904 17.2924 23.7694Z" fill="#FFF2DC"/>
<path d="M30.9928 19.1557C30.7429 19.0724 30.4652 19.2043 30.3818 19.4612C28.4656 25.1891 23.1127 29.0285 17.0724 29.0285C12.872 29.0285 8.92153 27.1678 6.2416 23.9255C6.07497 23.7172 5.76949 23.6894 5.5612 23.863C5.35292 24.0296 5.32514 24.3351 5.49871 24.5434C8.35916 28.0148 12.5804 30.0005 17.0724 30.0005C23.5293 30.0005 29.2432 25.8903 31.2914 19.7737C31.3747 19.5237 31.2428 19.246 30.9859 19.1627L30.9928 19.1557Z" fill="#222222"/>
<path d="M9.62278 3.10345C11.8514 1.70794 14.4272 0.965054 17.0724 0.965054C20.8424 0.965054 24.3832 2.43694 27.0354 5.11687C27.1326 5.21407 27.2506 5.26267 27.3756 5.26267C27.5006 5.26267 27.6186 5.21407 27.7158 5.12381C27.9033 4.93636 27.9033 4.63087 27.7158 4.44342C24.8831 1.57602 21.0993 0 17.0724 0C14.2467 0 11.4973 0.791483 9.11595 2.28419C8.88683 2.42305 8.82435 2.72159 8.96321 2.95071C9.10206 3.17982 9.4006 3.2423 9.62972 3.10345H9.62278Z" fill="#222222"/>
<path d="M33.2909 0.312428C33.2909 0.312428 33.277 0.284656 33.27 0.263828C33.2492 0.229114 33.2284 0.194399 33.2006 0.159685C33.1867 0.1458 33.1798 0.131914 33.1659 0.124971C33.1242 0.0902569 33.0826 0.0555427 33.027 0.0347142H33.0201C32.9646 0.0138857 32.916 0 32.8604 0C32.8535 0 32.8465 0 32.8396 0C32.8257 0 32.8188 0 32.8118 0C32.7702 0 32.7285 0.0138857 32.6868 0.0277713C32.673 0.0277713 32.6591 0.0347142 32.6382 0.041657C32.5896 0.0624855 32.541 0.0902569 32.5063 0.131914C32.3258 0.319371 24.8067 7.84541 30.0486 16.7114C30.1319 16.8572 30.2916 16.9475 30.4651 16.9475H32.3744V29.514C32.3744 29.7778 32.5896 29.9931 32.8535 29.9931C33.1173 29.9931 33.3325 29.7778 33.3325 29.514V0.485999C33.3325 0.430456 33.3186 0.36797 33.2978 0.319371L33.2909 0.312428ZM32.3605 15.9824H30.7359C27.0493 9.46309 30.6248 3.86716 32.3605 1.73571V15.9824Z" fill="#222222"/>
<path d="M7.61629 7.13029V0.485999C7.61629 0.222171 7.40106 0 7.13724 0C6.87341 0 6.65818 0.215228 6.65818 0.485999V7.13029C6.65818 8.53275 5.63758 9.69914 4.29762 9.92826V0.485999C4.29762 0.222171 4.08239 0 3.81856 0C3.55473 0 3.3395 0.215228 3.3395 0.485999V9.92826C1.99954 9.69914 0.97894 8.53275 0.97894 7.13029V0.485999C0.97894 0.222171 0.763712 0 0.499884 0C0.236056 0 0 0.215228 0 0.485999V7.13029C0 9.06735 1.45105 10.6642 3.32562 10.9072V29.5209C3.32562 29.7848 3.54085 30 3.80467 30C4.0685 30 4.28373 29.7848 4.28373 29.5209V10.9072C6.1583 10.6711 7.60935 9.06735 7.60935 7.13029H7.61629Z" fill="#222222"/>
<path d="M17.0724 4.9082C11.5112 4.9082 6.9845 9.43493 6.9845 14.9961C6.9845 20.5574 11.5112 25.0841 17.0724 25.0841C22.6337 25.0841 27.1604 20.5574 27.1604 14.9961C27.1604 9.43493 22.6337 4.9082 17.0724 4.9082ZM17.0724 24.126C12.0389 24.126 7.94955 20.0297 7.94955 15.0031C7.94955 9.97648 12.0458 5.8802 17.0724 5.8802C22.0991 5.8802 26.1953 9.97648 26.1953 15.0031C26.1953 20.0297 22.0991 24.126 17.0724 24.126Z" fill="#222222"/>
</g>
<defs>
<clipPath id="clip0_313_14451">
<rect width="33.3256" height="30" fill="white"/>
</clipPath>
</defs>
</svg>
