<svg width="30" height="30" viewBox="0 0 30 30" fill="none" xmlns="http://www.w3.org/2000/svg">
<g clip-path="url(#clip0_313_14604)">
<path d="M11.4625 14.5938L12.3187 10.3125H10.1937L7.625 14.5938H11.4625Z" fill="#FFF2DC"/>
<path d="M7.72502 10.3125H6.58752L2.30627 14.5938H5.83752L8.40627 10.3125H7.72502Z" fill="#FFF2DC"/>
<path d="M17.6813 10.3125L18 11.9187L18.5375 14.5938H22.3688L19.8 10.3125H17.6813Z" fill="#FFF2DC"/>
<path d="M7.03748 6.05H7.72498H22.2687H22.9562V1.21875H7.03748V6.05Z" fill="#FF4755"/>
<path d="M20.8188 17.3187C21.6875 17.3187 22.4562 16.8375 22.7875 16.125H18.8438C19.175 16.8313 19.9437 17.3187 20.8125 17.3187H20.8188Z" fill="#FFF2DC"/>
<path d="M9.76252 8.78105H13.25H16.7438H20.2313H21.5V7.58105H8.49377V8.78105H9.76252Z" fill="#DADADA"/>
<path d="M9.1813 17.3187C10.05 17.3187 10.8188 16.8375 11.15 16.125H7.2063C7.53755 16.8313 8.3063 17.3187 9.17505 17.3187H9.1813Z" fill="#FFF2DC"/>
<path d="M13.8813 10.3125L13.025 14.5938H16.975L16.65 12.9875L16.1125 10.3125H13.8813Z" fill="#FFF2DC"/>
<path d="M24.1625 14.5938H27.6938L23.4063 10.3125H22.2688H21.5875L24.1625 14.5938Z" fill="#FFF2DC"/>
<path d="M15 17.3187C15.8688 17.3187 16.6375 16.8375 16.9688 16.125H13.025C13.3563 16.8313 14.125 17.3187 14.9938 17.3187H15Z" fill="#FFF2DC"/>
<path d="M12.4375 17.8629C12.3125 17.7504 12.1938 17.6254 12.0875 17.4941C11.9813 17.6254 11.8625 17.7504 11.7375 17.8629C11.8438 17.8066 11.9625 17.7816 12.0875 17.7816C12.2125 17.7816 12.3313 17.8129 12.4375 17.8629Z" fill="#DADADA"/>
<path d="M12.8562 28.7816H25.5937V18.7066C24.85 18.4941 24.1937 18.0691 23.725 17.4941C23.0312 18.3441 21.9562 18.8566 20.8125 18.8566C19.6687 18.8566 18.5937 18.3441 17.9062 17.4941C17.2125 18.3441 16.1375 18.8566 15 18.8566C14.1562 18.8566 13.3437 18.5754 12.7 18.0816C12.8 18.2129 12.8562 18.3691 12.8562 18.5441V28.7754V28.7816ZM23.6062 23.0691C23.8125 23.0691 24.0062 23.1504 24.15 23.2941C24.45 23.5941 24.45 24.0816 24.15 24.3816L21.425 27.1066C21.2812 27.2504 21.0875 27.3316 20.8812 27.3316C20.675 27.3316 20.4812 27.2504 20.3375 27.1066C20.1937 26.9629 20.1125 26.7691 20.1125 26.5629C20.1125 26.3566 20.1937 26.1629 20.3375 26.0191L23.0625 23.2941C23.2062 23.1504 23.4 23.0691 23.6062 23.0691ZM20.3687 20.5066C20.5125 20.3629 20.7062 20.2816 20.9125 20.2816C21.1187 20.2816 21.3125 20.3629 21.4562 20.5066C21.6 20.6504 21.6812 20.8441 21.6812 21.0504C21.6812 21.2566 21.6 21.4504 21.4562 21.5941L15.9437 27.1066C15.8 27.2504 15.6062 27.3316 15.4 27.3316C15.1937 27.3316 15 27.2504 14.8562 27.1066C14.5562 26.8066 14.5562 26.3191 14.8562 26.0254L20.3687 20.5129V20.5066ZM14.1875 23.0191L16.7 20.5066C16.8437 20.3629 17.0375 20.2816 17.2437 20.2816C17.45 20.2816 17.6437 20.3629 17.7875 20.5066C17.9312 20.6504 18.0125 20.8441 18.0125 21.0504C18.0125 21.2566 17.9312 21.4504 17.7875 21.5941L15.275 24.1066C15.1312 24.2504 14.9375 24.3316 14.7312 24.3316C14.525 24.3316 14.3375 24.2504 14.1875 24.1066C13.8875 23.8066 13.8875 23.3191 14.1875 23.0191Z" fill="#DADADA"/>
<path d="M4.40627 18.7066V28.7816H11.325V18.5441C11.325 18.3691 11.3813 18.2066 11.4813 18.0816C10.8375 18.5754 10.025 18.8566 9.18127 18.8566C8.03752 18.8566 6.96252 18.3441 6.26877 17.4941C5.80002 18.0691 5.14377 18.5004 4.40002 18.7066H4.40627ZM10.0063 23.3629C10.4313 23.3629 10.775 23.7066 10.775 24.1316C10.775 24.5566 10.4313 24.9004 10.0063 24.9004C9.58127 24.9004 9.23752 24.5566 9.23752 24.1316C9.23752 23.7066 9.58127 23.3629 10.0063 23.3629Z" fill="#DADADA"/>
<path d="M26.6375 17.3187C27.5062 17.3187 28.275 16.8375 28.6062 16.125H24.6625C24.9937 16.8313 25.7625 17.3187 26.6312 17.3187H26.6375Z" fill="#FFF2DC"/>
<path d="M3.36255 17.3187C4.2313 17.3187 5.00005 16.8375 5.3313 16.125H1.3938C1.72505 16.8313 2.4938 17.3187 3.36255 17.3187Z" fill="#FFF2DC"/>
<path d="M29.5438 29.0941H26.8188V18.5316C28.575 18.4441 29.975 17.0816 30 15.4066C30 15.4066 30 15.3754 30 15.3629C30 15.3504 30 15.3441 30 15.3316C30 15.2879 29.9875 15.2504 29.975 15.2129C29.975 15.2004 29.9688 15.1816 29.9625 15.1691C29.9375 15.1191 29.9125 15.0754 29.875 15.0379L24.0563 9.21914C23.9688 9.13164 23.8562 9.08789 23.7375 9.08789H22.7375V7.26914H23.7375C23.9875 7.26914 24.1937 7.06289 24.1937 6.81289V0.906641H25.0125C25.2625 0.906641 25.4688 0.700391 25.4688 0.450391C25.4688 0.200391 25.2625 -0.00585938 25.0125 -0.00585938H5C4.75 -0.00585938 4.54375 0.200391 4.54375 0.450391C4.54375 0.700391 4.75 0.906641 5 0.906641H5.81875V6.81914C5.81875 6.93789 5.8625 7.05664 5.95 7.13789C6.0375 7.22539 6.15 7.26914 6.26875 7.26914H7.26875V9.08789H6.26875C6.15 9.08789 6.03125 9.13789 5.95 9.21914L0.13125 15.0441C0.09375 15.0816 0.06875 15.1254 0.04375 15.1754C0.0375 15.1879 0.03125 15.2004 0.03125 15.2191C0.01875 15.2566 0.0125 15.3004 0.00625 15.3379C0.00625 15.3504 0.00625 15.3566 0.00625 15.3691C0.00625 15.3816 0.00625 15.3941 0.00625 15.4129C0.03125 17.0941 1.43125 18.4566 3.1875 18.5441V29.1004H0.45625C0.20625 29.1004 0 29.3066 0 29.5566C0 29.8066 0.20625 30.0129 0.45625 30.0129H29.5438C29.7938 30.0129 30 29.8066 30 29.5566C30 29.3066 29.7938 29.1004 29.5438 29.1004V29.0941ZM23.5375 10.0004L28.45 14.9066H23.9875L21.0375 10.0004H23.5375ZM7.075 14.9066L10.0188 10.0004H12.7L11.7188 14.9066H7.075ZM11.5875 15.8129C11.3563 16.8504 10.3687 17.6316 9.18125 17.6316C7.99375 17.6316 7.00625 16.8504 6.775 15.8129H11.5875ZM16.7438 9.08789H8.18125V7.26914H21.8188V9.08789H16.7438ZM16.9562 12.9254L17.35 14.9066H12.6437L13.625 10.0004H16.3687L16.9562 12.9254ZM17.4062 15.8129C17.175 16.8504 16.1875 17.6316 15 17.6316C13.8125 17.6316 12.825 16.8504 12.5938 15.8129H17.4062ZM17.3 9.99414H19.9812L22.9312 14.9004H18.2875L17.7 11.9691L17.3062 9.98789L17.3 9.99414ZM23.225 15.8129C22.9937 16.8504 22.0063 17.6316 20.8188 17.6316C19.6313 17.6316 18.6437 16.8504 18.4125 15.8129H23.225ZM6.725 6.36289V0.906641H23.2687V6.36289H6.725ZM6.45625 10.0004H8.95625L6.0125 14.9066H1.55L6.45625 10.0004ZM0.95625 15.8191H5.76875C5.54375 16.8566 4.55 17.6379 3.3625 17.6379C2.175 17.6379 1.1875 16.8566 0.95625 15.8191ZM25.9062 29.0941H12.5437V18.5441C12.5437 18.2941 12.3375 18.0879 12.0875 18.0879C11.8375 18.0879 11.6313 18.2941 11.6313 18.5441V29.0879H4.09375V18.4629C5.025 18.2691 5.8125 17.7129 6.275 16.9566C6.85625 17.9066 7.94375 18.5504 9.18125 18.5504C10.4187 18.5504 11.5063 17.9066 12.0875 16.9566C12.6687 17.9066 13.7562 18.5504 14.9937 18.5504C16.2313 18.5504 17.3188 17.9066 17.9 16.9566C18.4812 17.9066 19.5688 18.5504 20.8063 18.5504C22.0438 18.5504 23.1312 17.9066 23.7125 16.9566C24.175 17.7129 24.9625 18.2691 25.8937 18.4629V29.0941H25.9062ZM24.2313 15.8191H29.0438C28.8188 16.8566 27.825 17.6379 26.6375 17.6379C25.45 17.6379 24.4625 16.8566 24.2313 15.8191Z" fill="#222222"/>
<path d="M9.99995 23.6758C9.74995 23.6758 9.5437 23.882 9.5437 24.132C9.5437 24.382 9.74995 24.5883 9.99995 24.5883C10.25 24.5883 10.4562 24.382 10.4562 24.132C10.4562 23.882 10.25 23.6758 9.99995 23.6758Z" fill="#222222"/>
<path d="M21.2312 20.725C21.0562 20.55 20.7687 20.55 20.5875 20.725L15.075 26.2375C14.9 26.4125 14.9 26.7 15.075 26.8812C15.1625 26.9687 15.2812 27.0125 15.3937 27.0125C15.5062 27.0125 15.625 26.9687 15.7125 26.8812L21.225 21.3687C21.4 21.1937 21.4 20.9 21.225 20.725H21.2312Z" fill="#222222"/>
<path d="M23.2875 23.5131L20.5625 26.2381C20.3875 26.4131 20.3875 26.7006 20.5625 26.8818C20.65 26.9693 20.7688 27.0131 20.8813 27.0131C20.9938 27.0131 21.1125 26.9693 21.2 26.8818L23.925 24.1568C24.1 23.9818 24.1 23.6943 23.925 23.5131C23.75 23.3381 23.4625 23.3381 23.2813 23.5131H23.2875Z" fill="#222222"/>
<path d="M17.5625 21.3687C17.7375 21.1937 17.7375 20.9 17.5625 20.725C17.3875 20.55 17.1 20.55 16.9188 20.725L14.4063 23.2375C14.2313 23.4125 14.2313 23.7062 14.4063 23.8812C14.4938 23.9687 14.6125 24.0125 14.725 24.0125C14.8375 24.0125 14.9563 23.9687 15.0438 23.8812L17.5563 21.3687H17.5625Z" fill="#222222"/>
</g>
<defs>
<clipPath id="clip0_313_14604">
<rect width="30" height="30" fill="white"/>
</clipPath>
</defs>
</svg>
