<svg width="34" height="30" viewBox="0 0 34 30" fill="none" xmlns="http://www.w3.org/2000/svg">
<g clip-path="url(#clip0_313_14415)">
<path d="M4.24396 27.5684L2.91992 28.6415H5.49135L4.24396 27.5684Z" fill="#DADADA"/>
<path d="M16.8293 6.1258H23.9233C24.2927 6.1258 24.5854 5.82615 24.5854 5.46378C24.5854 5.10141 24.2857 4.80176 23.9233 4.80176H16.8293C16.4599 4.80176 16.1672 5.10141 16.1672 5.46378C16.1672 5.82615 16.4669 6.1258 16.8293 6.1258Z" fill="#DADADA"/>
<path d="M3.43553 26.0205L5.28919 2.98213L3.67246 1.97168L1.52612 27.5675L3.43553 26.0205Z" fill="#FF4755"/>
<path d="M6.99648 3.07983L5.14282 26.0903L7.08707 27.7558L9.19857 1.96484L6.99648 3.07983Z" fill="#FF4755"/>
<path d="M32.0139 28.6415L29.7212 1.36621H11.0244L8.73169 28.6415H32.0139ZM16.8293 3.0805H23.9233C25.2334 3.0805 26.2996 4.1467 26.2996 5.4568C26.2996 6.76691 25.2334 7.83311 23.9233 7.83311H16.8293C15.5191 7.83311 14.4529 6.76691 14.4529 5.4568C14.4529 4.1467 15.5191 3.0805 16.8293 3.0805Z" fill="#FFF2DC"/>
<path d="M31.0174 0.46709C30.9965 0.202282 30.7735 0.000191073 30.5157 0.000191073H10.2369C10.2369 0.000191073 10.223 0.000191073 10.216 0.000191073C10.1254 -0.00677757 10.0279 0.00715972 9.94425 0.0489716L6.20906 1.94444L3.20557 0.0768461C3.05226 -0.0207149 2.87108 -0.0276835 2.7108 0.0559402C2.55052 0.132595 2.44599 0.292874 2.43206 0.46709L0 29.4566C0 29.4566 0 29.4706 0 29.4845C0 29.4845 0 29.4915 0 29.4985C0 29.5124 0 29.5194 0 29.5333C0 29.5821 0.0139373 29.6239 0.0278746 29.6657C0.0278746 29.6796 0.0418118 29.7005 0.0487805 29.7145C0.0696864 29.7633 0.10453 29.812 0.139373 29.8539C0.174216 29.8957 0.216028 29.9235 0.25784 29.9514C0.264808 29.9514 0.271777 29.9514 0.278746 29.9584C0.292683 29.9654 0.313589 29.9723 0.327526 29.9723C0.369338 29.9863 0.418119 30.0002 0.45993 30.0002C0.473868 30.0002 0.480836 30.0002 0.487805 30.0002H32.9408C33.0801 30.0002 33.2195 29.9375 33.3171 29.8329C33.4146 29.7284 33.4634 29.589 33.4495 29.4497L31.0174 0.46709ZM3.37282 1.37998L5.65157 2.80158L3.77003 26.1953L1.11498 28.3486L3.37282 1.37998ZM1.93728 28.9897L4.25087 27.1152L6.43902 28.9897H1.93728ZM7.37979 28.4671L4.78049 26.2371L6.66899 2.85733L9.59582 1.37301L7.37979 28.4671ZM8.3554 28.9897L10.7038 1.01761H30.0418L32.3902 28.9897H8.3554Z" fill="#222222"/>
<path d="M23.9233 3.42871H16.8293C15.7143 3.42871 14.8014 4.33463 14.8014 5.45659C14.8014 6.57854 15.7073 7.48446 16.8293 7.48446H23.9233C25.0383 7.48446 25.9512 6.57157 25.9512 5.45659C25.9512 4.3416 25.0453 3.42871 23.9233 3.42871ZM23.9233 6.46704H16.8293C16.2718 6.46704 15.8188 6.01408 15.8188 5.45659C15.8188 4.89909 16.2718 4.44613 16.8293 4.44613H23.9233C24.4808 4.44613 24.9338 4.89909 24.9338 5.45659C24.9338 6.01408 24.4808 6.46704 23.9233 6.46704Z" fill="#222222"/>
</g>
<defs>
<clipPath id="clip0_313_14415">
<rect width="33.4495" height="30" fill="white"/>
</clipPath>
</defs>
</svg>
