<svg width="31" height="30" viewBox="0 0 31 30" fill="none" xmlns="http://www.w3.org/2000/svg">
<g clip-path="url(#clip0_313_14591)">
<path d="M10.938 21.5758C10.6504 21.851 10.494 22.2325 10.5065 22.6327L10.6253 25.4658C10.6441 26.0912 10.4815 26.6978 10.15 27.2294L9.18069 28.7616L7.10439 23.5521L8.89301 21.7635C9.06812 21.5883 9.06812 21.3007 8.89301 21.1193C8.7179 20.9379 8.43022 20.9442 8.24886 21.1193L6.46024 22.9079L1.25073 20.8254L2.78919 19.8685C3.28951 19.5558 3.86487 19.3932 4.45273 19.3932C4.484 19.3932 4.51527 19.3932 4.5528 19.3932L7.39207 19.512C7.79232 19.5371 8.17381 19.3745 8.44898 19.0805L23.3958 3.22687C24.484 2.14494 28.1613 0.312548 28.9368 1.08178C29.1932 1.33819 29.237 2.15745 28.5866 3.68966C28.0362 4.97796 27.2545 6.15995 26.8042 6.61023L10.938 21.5696V21.5758Z" fill="#DADADA"/>
<path d="M27.4359 7.26713C28.0613 6.64174 28.8931 5.29089 29.4246 4.04636C29.9375 2.83936 30.3815 1.23836 29.581 0.437858C28.0926 -1.05057 23.7148 1.61985 22.7455 2.5892L19.6248 5.89752L17.2358 5.3847L17.7486 4.86562C18.005 4.60921 18.1426 4.2715 18.1426 3.90878C18.1426 3.54605 18.005 3.20834 17.7486 2.95193L17.3921 2.59546C16.8668 2.07013 16.01 2.07013 15.4847 2.59546L13.5022 4.57795L11.157 4.07138L11.7511 3.47726C12.2764 2.95193 12.2764 2.09514 11.7511 1.56982L11.3946 1.21334C10.8693 0.688014 10.0125 0.688014 9.48718 1.21334L7.42965 3.27088L4.93434 2.73304C4.42152 2.62047 3.88368 2.69552 3.42089 2.92691L1.69481 3.79621C1.21326 4.04011 0.925583 4.52166 0.938091 5.0595C0.950598 5.59733 1.26329 6.06638 1.75735 6.27901L14.1213 11.7324L7.79237 18.4429C7.69857 18.5429 7.57349 18.5992 7.4359 18.5867L4.59663 18.4616C3.79613 18.4429 3.00188 18.6492 2.3202 19.0745L0.781743 20.0314C0.487809 20.2127 0.325208 20.5442 0.356477 20.8881C0.387747 21.2321 0.606634 21.526 0.931837 21.6574L5.77862 23.5836L4.36523 24.997C4.19012 25.1721 4.19012 25.466 4.36523 25.6411C4.45279 25.7287 4.57161 25.7724 4.68418 25.7724C4.79675 25.7724 4.91558 25.7287 5.00313 25.6411L6.41651 24.2277L8.34272 29.0745C8.47405 29.3997 8.76798 29.6186 9.11195 29.6436C9.14322 29.6436 9.16823 29.6436 9.19325 29.6436C9.50595 29.6436 9.79988 29.4873 9.96873 29.2121L10.9256 27.6736C11.3508 26.992 11.5635 26.204 11.5385 25.391L11.4196 22.5579C11.4196 22.4203 11.4697 22.2953 11.5635 22.2015L18.2739 15.8725L23.7273 28.2365C23.9462 28.7305 24.4153 29.0432 24.9468 29.0557H24.9844C25.5034 29.0557 25.9725 28.7681 26.2101 28.299L27.0794 26.5729C27.3171 26.1039 27.3859 25.5661 27.2733 25.0595L26.7355 22.5642L28.793 20.5067C29.3183 19.9813 29.3183 19.1245 28.793 18.5992L28.4365 18.2427C27.9112 17.7174 27.0544 17.7174 26.5291 18.2427L25.935 18.8369L25.4284 16.4916L27.4109 14.5092C27.9362 13.9838 27.9362 13.127 27.4109 12.6017L27.0544 12.2452C26.5291 11.7199 25.6723 11.7199 25.147 12.2452L24.6341 12.7581L24.1213 10.3691L27.4422 7.23586L27.4359 7.26713ZM16.1226 3.25212C16.2101 3.16456 16.3227 3.12078 16.4353 3.12078C16.5478 3.12078 16.6604 3.16456 16.748 3.25212L17.1044 3.60859C17.1857 3.68989 17.2295 3.80246 17.2295 3.92128C17.2295 4.04011 17.1857 4.15268 17.1044 4.23398L16.1726 5.16581L14.5591 4.81559L16.1226 3.25212ZM10.1188 1.86375C10.2064 1.77619 10.319 1.73242 10.4315 1.73242C10.5441 1.73242 10.6567 1.77619 10.7442 1.86375L11.1007 2.22022C11.2695 2.39533 11.2695 2.6705 11.1007 2.84561L10.0938 3.85249L8.4803 3.50227L10.1251 1.85749L10.1188 1.86375ZM2.12008 5.45975C1.95122 5.3847 1.85116 5.22835 1.84491 5.04699C1.84491 4.86562 1.93246 4.70302 2.10132 4.62172L3.8274 3.75243C4.10882 3.60859 4.43403 3.57107 4.74047 3.6336L18.8993 6.67926L16.3415 9.39345L7.32333 5.45975C7.09194 5.35968 6.82302 5.45975 6.72296 5.69739C6.62289 5.92879 6.72296 6.19771 6.9606 6.29777L15.6786 10.1001L14.7842 11.0507L2.12008 5.45975ZM10.9443 21.5698C10.6567 21.845 10.5003 22.2265 10.5128 22.6267L10.6316 25.4597C10.6504 26.0851 10.4878 26.6918 10.1564 27.2233L9.187 28.7556L7.1107 23.5461L8.89932 21.7574C9.07442 21.5823 9.07442 21.2946 8.89932 21.1133C8.72421 20.9319 8.43653 20.9382 8.25516 21.1133L6.46655 22.9019L1.25704 20.8193L2.7955 19.8625C3.29581 19.5498 3.87117 19.3872 4.45904 19.3872C4.49031 19.3872 4.52158 19.3872 4.5591 19.3872L7.39838 19.506C7.79863 19.531 8.18012 19.3684 8.45529 19.0745L23.3959 3.2271C24.4841 2.14517 28.1614 0.31278 28.9368 1.08201C29.1932 1.33842 29.237 2.15768 28.5866 3.68989C28.0363 4.9782 27.2545 6.16018 26.8043 6.61047L10.9381 21.5698H10.9443ZM27.1795 18.9182C27.267 18.8306 27.3796 18.7868 27.4922 18.7868C27.6048 18.7868 27.7173 18.8306 27.8049 18.9182L28.1614 19.2746C28.3302 19.4435 28.3302 19.7249 28.1614 19.9L26.5166 21.5448L26.1664 19.9313L27.1732 18.9244L27.1795 18.9182ZM25.7974 12.9144C25.8849 12.8268 25.9975 12.7831 26.1101 12.7831C26.2226 12.7831 26.3352 12.8268 26.4228 12.9144L26.7792 13.2709C26.9481 13.446 26.9481 13.7212 26.7792 13.8963L25.2158 15.4597L24.8655 13.8462L25.7974 12.9144ZM26.3977 25.2846C26.4665 25.5911 26.4228 25.9163 26.2789 26.1977L25.4096 27.9238C25.3283 28.0864 25.1657 28.1927 24.9844 28.1802C24.803 28.1802 24.6467 28.0739 24.5716 27.905L18.9869 15.2471L19.9375 14.3528L23.7398 23.0708C23.8149 23.2396 23.9837 23.3459 24.1589 23.3459C24.2214 23.3459 24.2839 23.3334 24.3402 23.3084C24.5716 23.2083 24.6779 22.9394 24.5779 22.708L20.6442 13.6899L23.3583 11.132L26.404 25.2909L26.3977 25.2846Z" fill="#222222"/>
<path d="M26.0162 6.1593C25.7286 6.1593 25.4909 5.92165 25.4847 5.63397C25.4721 5.03985 24.9781 4.54579 24.384 4.53329C24.09 4.53329 23.8524 4.28313 23.8586 3.9892C23.8586 3.70152 24.1025 3.46387 24.3902 3.46387C25.566 3.48263 26.5291 4.45198 26.5478 5.61521C26.5478 5.75905 26.4978 5.89038 26.3977 5.9967C26.2977 6.09676 26.1663 6.15305 26.0225 6.1593H26.01H26.0162Z" fill="#222222"/>
<path d="M24.4027 3.55186C25.5222 3.57062 26.454 4.50245 26.4728 5.6219C26.4728 5.87206 26.2789 6.07843 26.0287 6.08469H26.0225C25.7723 6.08469 25.5722 5.88456 25.5659 5.64066C25.5534 5.00276 25.0281 4.47118 24.3902 4.46493C24.14 4.46493 23.9399 4.25229 23.9462 4.00214C23.9462 3.75198 24.1526 3.55811 24.4027 3.55811H24.409M24.409 3.40176H24.3965C24.065 3.40176 23.7898 3.67068 23.7836 4.00214C23.7836 4.33985 24.0462 4.61502 24.3839 4.62127C24.9405 4.63378 25.3971 5.09032 25.4096 5.64691C25.4096 5.97837 25.691 6.24729 26.0225 6.24729C26.1976 6.24729 26.3477 6.1785 26.4602 6.05967C26.5728 5.94085 26.6354 5.79075 26.6291 5.6219C26.6103 4.41489 25.6097 3.42052 24.4027 3.39551L24.409 3.40176Z" fill="white"/>
<path d="M0.775485 12.8395L3.76485 9.84384C3.93996 9.66873 3.93996 9.38105 3.76485 9.19969C3.58974 9.02458 3.30206 9.02458 3.1207 9.19969L0.131332 12.1953C-0.0437774 12.3704 -0.0437774 12.6581 0.131332 12.8395C0.218887 12.927 0.337711 12.9708 0.450281 12.9708C0.562852 12.9708 0.681676 12.927 0.769231 12.8395H0.775485Z" fill="#222222"/>
<path d="M5.77231 15.2287L8.76168 12.2394C8.93679 12.0642 8.93679 11.7703 8.76168 11.5952C8.58657 11.4201 8.29889 11.4201 8.11753 11.5952L5.12816 14.5908C4.95305 14.7659 4.95305 15.0536 5.12816 15.235C5.21571 15.3225 5.33454 15.3663 5.44711 15.3663C5.55968 15.3663 5.6785 15.3225 5.76606 15.235L5.77231 15.2287Z" fill="#222222"/>
<path d="M20.1563 26.2348L17.167 29.2242C16.9919 29.3993 16.9919 29.687 17.167 29.8684C17.2545 29.9559 17.3734 29.9997 17.4859 29.9997C17.5985 29.9997 17.7173 29.9559 17.8049 29.8684L20.7942 26.879C20.9694 26.7039 20.9694 26.4162 20.7942 26.2348C20.6191 26.0597 20.3315 26.0597 20.1501 26.2348H20.1563Z" fill="#222222"/>
<path d="M18.4052 21.2388C18.2301 21.0636 17.9424 21.0636 17.7611 21.2388L14.7717 24.2281C14.5966 24.4032 14.5966 24.6972 14.7717 24.8723C14.8593 24.9598 14.9781 25.0036 15.0907 25.0036C15.2032 25.0036 15.3221 24.9598 15.4096 24.8723L18.399 21.8829C18.5741 21.7078 18.5741 21.4201 18.399 21.2388H18.4052Z" fill="#222222"/>
<path d="M24.1463 23.3457C24.2089 23.3457 24.2714 23.3332 24.3277 23.3082C24.5591 23.2081 24.6654 22.9392 24.5653 22.7078L20.6316 13.6897L23.3458 11.1318L26.3915 25.2907C26.4603 25.5971 26.4165 25.9223 26.2726 26.2038L25.4034 27.9298C25.3221 28.0924 25.1595 28.1988 24.9781 28.1862C24.7967 28.1862 24.6404 28.0799 24.5653 27.9111L18.9806 15.2532L19.9312 14.3589L23.7336 23.0768C23.8086 23.2457 23.9775 23.352 24.1526 23.352" fill="#FFF2DC"/>
<path d="M24.1463 23.3457C24.2089 23.3457 24.2714 23.3332 24.3277 23.3082C24.5591 23.2081 24.6654 22.9392 24.5653 22.7078L20.6316 13.6897L23.3458 11.1318L26.3915 25.2907C26.4603 25.5971 26.4165 25.9223 26.2726 26.2038L25.4034 27.9298C25.3221 28.0924 25.1595 28.1988 24.9781 28.1862C24.7967 28.1862 24.6404 28.0799 24.5653 27.9111L18.9806 15.2532L19.9312 14.3589L23.7336 23.0768C23.8086 23.2457 23.9775 23.352 24.1526 23.352" stroke="white" stroke-width="0.25" stroke-miterlimit="10"/>
<path d="M2.12002 5.45976C1.95117 5.38471 1.8511 5.22837 1.84485 5.047C1.84485 4.86564 1.9324 4.70304 2.10126 4.62174L3.82734 3.75244C4.10876 3.6086 4.43397 3.57108 4.74041 3.63362L18.8993 6.67927L16.3414 9.39347L7.32327 5.45976C7.09188 5.3597 6.82296 5.45976 6.7229 5.69741C6.62283 5.9288 6.7229 6.19772 6.96055 6.29778L15.6785 10.1002L14.7842 11.0508L2.12002 5.45976Z" fill="#FFF2DC" stroke="white" stroke-width="0.25" stroke-miterlimit="10"/>
</g>
<defs>
<clipPath id="clip0_313_14591">
<rect width="30.0188" height="30" fill="white"/>
</clipPath>
</defs>
</svg>
