<svg width="34" height="30" viewBox="0 0 34 30" fill="none" xmlns="http://www.w3.org/2000/svg">
<g clip-path="url(#clip0_313_14580)">
<path d="M12.5705 17.6396H10.2144C10.0536 17.6396 9.90682 17.7096 9.80894 17.8284C9.70407 17.9473 9.66212 18.1081 9.69009 18.2619L10.9415 25.6448C10.9835 25.9035 11.2072 26.0922 11.4659 26.0922H13.011C13.1648 26.0922 13.2976 26.0363 13.4025 25.9244C13.5074 25.8126 13.5563 25.6727 13.5493 25.5259L13.1089 18.143C13.0949 17.8634 12.8572 17.6396 12.5775 17.6396H12.5705Z" fill="#FFF2DC"/>
<path d="M23.533 2.69863C23.9035 2.69863 24.1971 2.39801 24.1971 2.03445C24.1971 1.6709 23.8965 1.36328 23.533 1.36328C23.1694 1.36328 22.8688 1.66391 22.8688 2.03445C22.8688 2.405 23.1694 2.69863 23.533 2.69863Z" fill="#FF4755"/>
<path d="M10.0256 2.69863C10.3962 2.69863 10.6898 2.39801 10.6898 2.03445C10.6898 1.6709 10.3892 1.36328 10.0256 1.36328C9.66208 1.36328 9.36145 1.66391 9.36145 2.03445C9.36145 2.405 9.66208 2.69863 10.0256 2.69863Z" fill="#FF4755"/>
<path d="M23.3442 17.6396H20.9881C20.7085 17.6396 20.4708 17.8634 20.4498 18.143L20.0093 25.5259C20.0023 25.6727 20.0513 25.8126 20.1561 25.9244C20.261 26.0363 20.3938 26.0922 20.5477 26.0922H22.0928C22.3584 26.0922 22.5752 25.9035 22.6171 25.6448L23.8686 18.2619C23.8965 18.1081 23.8546 17.9473 23.7497 17.8284C23.6448 17.7096 23.498 17.6396 23.3372 17.6396H23.3442Z" fill="#FFF2DC"/>
<path d="M3.17407 15.0947L6.83755 27.7841C6.98437 28.2805 7.4458 28.63 7.97016 28.63H25.5954C26.1198 28.63 26.5812 28.2805 26.721 27.7841L30.3845 15.0947H3.17407ZM14.6469 27.0989C14.2274 27.5464 13.6262 27.8051 13.0109 27.8051H11.4658C10.3612 27.8051 9.43136 27.015 9.24259 25.9314L7.99113 18.5485C7.87927 17.8983 8.06104 17.2271 8.49451 16.7237C8.92098 16.2133 9.55021 15.9267 10.2144 15.9267H12.5705C13.759 15.9267 14.7448 16.8566 14.8147 18.0451L15.2552 25.428C15.2901 26.0432 15.0734 26.6585 14.6469 27.1059V27.0989ZM25.5675 18.5485L24.316 25.9314C24.1342 27.015 23.1974 27.8051 22.0927 27.8051H20.5476C19.9324 27.8051 19.3311 27.5464 18.9117 27.0989C18.4852 26.6515 18.2685 26.0362 18.3034 25.421L18.7439 18.0381C18.8138 16.8496 19.7996 15.9197 20.9881 15.9197H23.3442C24.0084 15.9197 24.6376 16.2133 25.0641 16.7167C25.4905 17.2271 25.6723 17.8913 25.5675 18.5485Z" fill="#DADADA"/>
<path d="M32.0345 11.0254H29.93L30.3705 11.7595C30.6152 12.165 30.4824 12.6893 30.0769 12.934C29.944 13.0109 29.7902 13.0529 29.6364 13.0529C29.3358 13.0529 29.0561 12.8921 28.9023 12.6404L27.9305 11.0254H5.63501L4.66321 12.6404C4.5094 12.8991 4.22975 13.0599 3.92912 13.0599C3.77531 13.0599 3.6215 13.0179 3.48866 12.941C3.08316 12.6963 2.95032 12.172 3.19502 11.7665L3.63548 11.0324H1.52408C1.44019 11.0324 1.36328 11.1023 1.36328 11.1932V13.2277C1.36328 13.3116 1.4332 13.3885 1.52408 13.3885H32.0345C32.1253 13.3885 32.1953 13.3186 32.1953 13.2277V11.1932C32.1953 11.1023 32.1253 11.0324 32.0345 11.0324V11.0254Z" fill="#DADADA"/>
<path d="M32.0345 9.66208H28.6996L24.9802 3.46073C25.3437 3.09718 25.5675 2.5938 25.5675 2.03449C25.5675 0.91587 24.6516 0 23.533 0C22.4144 0 21.4985 0.91587 21.4985 2.03449C21.4985 3.15311 22.4074 4.06898 23.533 4.06898C23.7357 4.06898 23.9245 4.03402 24.1063 3.97809L27.5181 9.66208H6.04055L9.45234 3.97809C9.63412 4.03402 9.82289 4.06898 10.0256 4.06898C11.1443 4.06898 12.0601 3.1601 12.0601 2.03449C12.0601 0.908879 11.1443 0 10.0256 0C8.90702 0 7.99115 0.91587 7.99115 2.03449C7.99115 2.58681 8.21487 3.09019 8.57842 3.46073L4.85901 9.66208H1.52412C0.685155 9.66208 0 10.3472 0 11.1862V13.2207C0 14.0597 0.685155 14.7448 1.52412 14.7448H1.64997L5.52319 28.1613C5.8378 29.2449 6.83757 30 7.96318 30H25.5884C26.7141 30 27.7208 29.2449 28.0284 28.1613L31.9017 14.7448H32.0275C32.8665 14.7448 33.5516 14.0597 33.5516 13.2207V11.1862C33.5516 10.3472 32.8665 9.66208 32.0275 9.66208H32.0345ZM23.533 3.05523C22.9737 3.05523 22.5192 2.60079 22.5192 2.04148C22.5192 1.48217 22.9737 1.02074 23.533 1.02074C24.0923 1.02074 24.5467 1.47518 24.5467 2.04148C24.5467 2.60778 24.0923 3.05523 23.533 3.05523ZM10.0256 1.02074C10.5849 1.02074 11.0394 1.47518 11.0394 2.04148C11.0394 2.60778 10.5849 3.05523 10.0256 3.05523C9.46633 3.05523 9.01189 2.60079 9.01189 2.04148C9.01189 1.48217 9.46633 1.02074 10.0256 1.02074ZM27.0566 27.8816C26.8679 28.5318 26.2666 28.9862 25.5884 28.9862H7.96318C7.28502 28.9862 6.68376 28.5318 6.49499 27.8816L2.71265 14.7448H30.846L27.0566 27.8816ZM32.5379 13.2207C32.5379 13.5003 32.3072 13.7311 32.0275 13.7311H1.52412C1.24447 13.7311 1.01375 13.5003 1.01375 13.2207V11.1862C1.01375 10.9065 1.24447 10.6758 1.52412 10.6758H4.24377L3.4887 11.9413C3.34188 12.179 3.41878 12.4936 3.66348 12.6404C3.74738 12.6894 3.83827 12.7103 3.92216 12.7103C4.09695 12.7103 4.26474 12.6194 4.35563 12.4656L5.42531 10.6758H28.1263L29.196 12.4656C29.2939 12.6264 29.4617 12.7103 29.6295 12.7103C29.7203 12.7103 29.8112 12.6894 29.8881 12.6404C30.1258 12.4936 30.2097 12.186 30.0629 11.9413L29.3079 10.6758H32.0275C32.3072 10.6758 32.5379 10.9065 32.5379 11.1862V13.2207Z" fill="#222222"/>
<path d="M9.58513 25.8747C9.73894 26.7906 10.529 27.4617 11.4588 27.4617H13.0039C13.5283 27.4617 14.0316 27.245 14.3882 26.8605C14.7448 26.483 14.9335 25.9656 14.9056 25.4412L14.4651 18.0583C14.4022 17.0586 13.5702 16.2686 12.5635 16.2686H10.2074C9.64805 16.2686 9.11671 16.5133 8.75316 16.9397C8.38961 17.3662 8.23579 17.9325 8.33367 18.4848L9.58513 25.8677V25.8747ZM9.53619 17.6039C9.70398 17.4012 9.94868 17.2893 10.2144 17.2893H12.5704C13.0389 17.2893 13.4234 17.6528 13.4514 18.1213L13.8918 25.5042C13.9058 25.7489 13.8219 25.9866 13.6541 26.1614C13.4863 26.3431 13.2556 26.441 13.0109 26.441H11.4658C11.0323 26.441 10.6688 26.1334 10.5919 25.7069L9.34043 18.324C9.29848 18.0653 9.3684 17.8067 9.53619 17.6039Z" fill="#222222"/>
<path d="M20.5477 27.4548H22.0928C23.0226 27.4548 23.8127 26.7906 23.9665 25.8677L25.2179 18.4848C25.3088 17.9325 25.155 17.3732 24.7914 16.9397C24.4279 16.5133 23.9035 16.2686 23.3372 16.2686H20.9811C19.9744 16.2686 19.1424 17.0516 19.0795 18.0583L18.639 25.4412C18.6111 25.9656 18.7928 26.476 19.1564 26.8605C19.513 27.238 20.0163 27.4617 20.5407 27.4617L20.5477 27.4548ZM20.1072 18.1213C20.1352 17.6528 20.5197 17.2893 20.9881 17.2893H23.3442C23.6029 17.2893 23.8546 17.4012 24.0224 17.6039C24.1902 17.8067 24.2601 18.0653 24.2182 18.324L22.9667 25.7069C22.8968 26.1334 22.5262 26.441 22.0928 26.441H20.5477C20.303 26.441 20.0723 26.3431 19.9045 26.1614C19.7367 25.9796 19.6528 25.7489 19.6668 25.5042L20.1072 18.1213Z" fill="#222222"/>
</g>
<defs>
<clipPath id="clip0_313_14580">
<rect width="33.5586" height="30" fill="white"/>
</clipPath>
</defs>
</svg>
