<svg width="32" height="30" viewBox="0 0 32 30" fill="none" xmlns="http://www.w3.org/2000/svg">
<g clip-path="url(#clip0_313_14647)">
<path d="M9.93529 6.97095H3.66992V15.7606H13.411C13.5858 15.7606 13.7605 15.8189 13.9029 15.9289L16.5567 18.013V16.5502C16.5567 16.1101 16.9126 15.7541 17.3528 15.7541H19.5599V11.6311H17.9482L14.2266 14.5567C14.0842 14.6667 13.9094 14.725 13.7346 14.725C13.6117 14.725 13.4952 14.6991 13.3916 14.6473C13.1198 14.5179 12.945 14.2331 12.945 13.9354V11.6311H10.7379C10.2978 11.6311 9.94177 11.2752 9.94177 10.835V6.95801L9.93529 6.97095ZM5.59225 8.83503H8.00002C8.44015 8.83503 8.79614 9.19102 8.79614 9.63115C8.79614 10.0713 8.44015 10.4273 8.00002 10.4273H5.59225C5.15212 10.4273 4.79614 10.0713 4.79614 9.63115C4.79614 9.19102 5.15212 8.83503 5.59225 8.83503ZM10.7314 12.1684C11.1715 12.1684 11.5275 12.5244 11.5275 12.9645C11.5275 13.4046 11.1715 13.7606 10.7314 13.7606H5.59225C5.15212 13.7606 4.79614 13.4046 4.79614 12.9645C4.79614 12.5244 5.15212 12.1684 5.59225 12.1684H10.7314Z" fill="#FFF2DC"/>
<path d="M29.2491 25.9099L27.7411 23.1914H3.32682L1.81873 25.9099H29.2491Z" fill="#DADADA"/>
<path d="M14.5242 10.8478V12.3106L17.178 10.2265C17.3204 10.1165 17.4951 10.0582 17.6699 10.0582H27.411V1.26855H11.521V10.0517H13.7281C14.1682 10.0517 14.5242 10.4077 14.5242 10.8478ZM13.4433 3.13263H25.4822C25.9223 3.13263 26.2783 3.48862 26.2783 3.92875C26.2783 4.36888 25.9223 4.72487 25.4822 4.72487H13.4498C13.0097 4.72487 12.6537 4.36888 12.6537 3.92875C12.6537 3.48862 13.0097 3.13263 13.4498 3.13263H13.4433ZM12.6472 7.26208C12.6472 6.82195 13.0032 6.46597 13.4433 6.46597H22.6731C23.1132 6.46597 23.4692 6.82195 23.4692 7.26208C23.4692 7.70221 23.1132 8.0582 22.6731 8.0582H13.4433C13.0032 8.0582 12.6472 7.70221 12.6472 7.26208Z" fill="#FF4755"/>
<path d="M1.88344 28.7314H29.1844C29.5275 28.7314 29.7993 28.453 29.7993 28.1165V27.4951H1.26208V28.1165C1.26208 28.4595 1.5404 28.7314 1.87697 28.7314H1.88344Z" fill="#DADADA"/>
<path d="M2.86079 4.29737C3.11969 4.29737 3.33329 4.08378 3.33329 3.82488V1.99316C3.33329 1.41064 3.80578 0.938148 4.3883 0.938148H8.37536C8.63426 0.938148 8.84785 0.724556 8.84785 0.465656C8.84785 0.206756 8.63426 -0.00683594 8.37536 -0.00683594H4.3883C3.28798 -0.00683594 2.39478 0.886368 2.39478 1.98669V3.81193C2.39478 4.07083 2.60837 4.28443 2.86727 4.28443L2.86079 4.29737Z" fill="#222222"/>
<path d="M31.068 26.6919C31.068 26.6401 31.055 26.5883 31.0356 26.5365C31.0356 26.5236 31.0291 26.5107 31.0227 26.4977C31.0227 26.4848 31.0162 26.4783 31.0097 26.4653L28.6796 22.2647V13.1903C28.6796 12.9314 28.466 12.7178 28.2071 12.7178C27.9482 12.7178 27.7346 12.9314 27.7346 13.1903V21.9152H3.33333V18.899C3.33333 18.6401 3.11974 18.4265 2.86084 18.4265C2.60194 18.4265 2.38835 18.6401 2.38835 18.899V22.2647L0.0582524 26.4718C0.0582524 26.4718 0.0517799 26.4912 0.0453074 26.5042C0.0453074 26.5171 0.0323625 26.5301 0.0323625 26.543C0.012945 26.5948 0 26.6466 0 26.6984V28.1223C0 29.1579 0.841424 30.0058 1.8835 30.0058H29.1845C30.2201 30.0058 31.068 29.1579 31.068 28.1223V26.7113V26.6919ZM3.13916 22.8666H27.9288L29.7994 26.2323H1.26861L3.13916 22.8666ZM30.1294 28.1158C30.1294 28.6336 29.7087 29.0543 29.1909 29.0543H1.8835C1.3657 29.0543 0.944984 28.6336 0.944984 28.1158V27.1708H30.1294V28.1158Z" fill="#222222"/>
<path d="M2.40125 6.18123V16.5566C2.40125 16.8155 2.61484 17.0291 2.87374 17.0291H13.2491L17.055 20.0259C17.1391 20.0906 17.2427 20.1294 17.3462 20.1294C17.4174 20.1294 17.4886 20.1165 17.5533 20.0841C17.7152 20.0065 17.8187 19.8382 17.8187 19.6634V17.0356H20.3495C20.6084 17.0356 20.822 16.822 20.822 16.5631V11.3269H28.2071C28.466 11.3269 28.6796 11.1133 28.6796 10.8544V0.472492C28.6796 0.213592 28.466 0 28.2071 0H10.7313C10.4724 0 10.2589 0.213592 10.2589 0.472492V5.70874H2.87374C2.61484 5.70874 2.40125 5.92233 2.40125 6.18123ZM11.1974 0.944984H27.7346V10.3819H17.6699C17.5663 10.3819 17.4627 10.4207 17.3786 10.4854L14.2006 12.9838V10.8544C14.2006 10.5955 13.987 10.3819 13.7281 10.3819H11.1974V0.944984ZM3.34623 6.64725H10.2589V10.8479C10.2589 11.1068 10.4724 11.3204 10.7313 11.3204H13.2621V13.9482C13.2621 14.1294 13.3656 14.2913 13.5275 14.3689C13.5922 14.4013 13.6634 14.4142 13.7346 14.4142C13.8381 14.4142 13.9417 14.3819 14.0258 14.3107L17.8317 11.3139H19.877V16.0841H17.3462C17.0873 16.0841 16.8737 16.2977 16.8737 16.5566V18.6861L13.6957 16.1877C13.6116 16.123 13.508 16.0841 13.4045 16.0841H3.34623V6.64725Z" fill="#222222"/>
<path d="M5.59224 10.1032H8.00001C8.25891 10.1032 8.4725 9.8896 8.4725 9.6307C8.4725 9.3718 8.25891 9.1582 8.00001 9.1582H5.59224C5.33334 9.1582 5.11975 9.3718 5.11975 9.6307C5.11975 9.8896 5.33334 10.1032 5.59224 10.1032Z" fill="#222222"/>
<path d="M10.7314 12.498H5.59224C5.33334 12.498 5.11975 12.7116 5.11975 12.9705C5.11975 13.2294 5.33334 13.443 5.59224 13.443H10.7314C10.9903 13.443 11.2039 13.2294 11.2039 12.9705C11.2039 12.7116 10.9903 12.498 10.7314 12.498Z" fill="#222222"/>
<path d="M13.4498 4.3942H25.4886C25.7475 4.3942 25.9611 4.18061 25.9611 3.92171C25.9611 3.66281 25.7475 3.44922 25.4886 3.44922H13.4498C13.1909 3.44922 12.9773 3.66281 12.9773 3.92171C12.9773 4.18061 13.1909 4.3942 13.4498 4.3942Z" fill="#222222"/>
<path d="M23.1521 7.26155C23.1521 7.00266 22.9385 6.78906 22.6796 6.78906H13.4498C13.1909 6.78906 12.9773 7.00266 12.9773 7.26155C12.9773 7.52045 13.1909 7.73405 13.4498 7.73405H22.6796C22.9385 7.73405 23.1521 7.52045 23.1521 7.26155Z" fill="#222222"/>
</g>
<defs>
<clipPath id="clip0_313_14647">
<rect width="31.068" height="30" fill="white"/>
</clipPath>
</defs>
</svg>
