<svg width="32" height="30" viewBox="0 0 32 30" fill="none" xmlns="http://www.w3.org/2000/svg">
<g clip-path="url(#clip0_313_14636)">
<path d="M27.424 2.26172C25.3266 3.81514 21.0465 5.99124 13.4891 6.13544V17.7238C21.0465 17.868 25.32 20.0441 27.424 21.5975V2.26172ZM26.3819 9.2095C26.2639 9.38647 26.0804 9.51101 25.8706 9.55034C23.8911 9.9305 20.391 10.409 14.9901 10.5204H14.977C14.5444 10.5204 14.1839 10.1665 14.1708 9.73386C14.1643 9.28816 14.5182 8.9211 14.9573 8.91455C20.2468 8.80968 23.6421 8.34431 25.5625 7.9707C25.615 7.96414 25.6674 7.95759 25.7133 7.95759C26.1 7.95759 26.4277 8.23288 26.4998 8.60649C26.5392 8.81623 26.4998 9.03253 26.3753 9.2095H26.3819Z" fill="#DADADA"/>
<path d="M7.06571 17.7169H11.8833V6.1416H7.06571C3.87366 6.1416 1.27808 8.73719 1.27808 11.9292C1.27808 15.1213 3.87366 17.7169 7.06571 17.7169ZM8.69123 8.82895C8.69123 8.38324 9.05173 8.02275 9.49743 8.02275C9.94314 8.02275 10.3036 8.38324 10.3036 8.82895V15.023C10.3036 15.4687 9.94314 15.8292 9.49743 15.8292C9.05173 15.8292 8.69123 15.4687 8.69123 15.023V8.83551V8.82895ZM5.59094 8.82895C5.59094 8.38324 5.95144 8.02275 6.39715 8.02275C6.84286 8.02275 7.20335 8.38324 7.20335 8.82895V15.023C7.20335 15.4687 6.84286 15.8292 6.39715 15.8292C5.95144 15.8292 5.59094 15.4687 5.59094 15.023V8.83551V8.82895Z" fill="#FFF2DC"/>
<path d="M9.84491 28.7217H11.2083C11.5819 28.7217 11.8899 28.4202 11.8899 28.04V19.3291H9.1698V28.04C9.1698 28.4137 9.47131 28.7217 9.85147 28.7217H9.84491Z" fill="#DADADA"/>
<path d="M14.6231 22.5604C14.5969 22.4883 14.5313 22.4424 14.4527 22.4424H13.4957V24.8807H15.2589C15.3244 24.8807 15.3769 24.8544 15.4096 24.802C15.449 24.7496 15.449 24.6906 15.4293 24.6316L14.6231 22.5669V22.5604Z" fill="#FFF2DC"/>
<path d="M29.0365 9.95605V13.8953C29.7182 13.5479 30.1835 12.781 30.1835 11.929C30.1835 11.0769 29.7182 10.3034 29.0365 9.95605Z" fill="#FF4755"/>
<path d="M14.9705 10.1925H14.977C20.3583 10.0876 23.8387 9.6091 25.8051 9.22894C26.0607 9.1765 26.2311 8.92743 26.1853 8.67181C26.1328 8.41618 25.8837 8.24576 25.6281 8.29164C23.6945 8.66525 20.2796 9.13062 14.9639 9.23549C14.7018 9.23549 14.492 9.45835 14.4986 9.72053C14.4986 9.98271 14.7149 10.1859 14.977 10.1859L14.9705 10.1925Z" fill="#222222"/>
<path d="M28.7088 8.52057V0.478188C28.7088 0.274998 28.5842 0.0980261 28.3941 0.032481C28.2106 -0.0330642 27.9943 0.0193719 27.8632 0.17668C27.8239 0.222562 23.8125 4.86971 12.6895 4.86971H7.06576C3.17238 4.86316 0 8.03554 0 11.9289C0 15.8223 3.17238 18.9947 7.06576 18.9947H7.87852V28.0334C7.87852 29.1149 8.75683 29.9932 9.83832 29.9932H11.2017C12.2832 29.9932 13.1615 29.1149 13.1615 28.0334V26.1522H15.2523C15.7374 26.1522 16.1896 25.9097 16.4649 25.5164C16.7402 25.1166 16.7927 24.6053 16.6222 24.1596L15.816 22.0884C15.5932 21.5182 15.0623 21.1577 14.4527 21.1577H13.168V19.0012C23.924 19.1323 27.8305 23.6418 27.8632 23.6877C27.955 23.7991 28.0926 23.8581 28.2303 23.8581C28.2827 23.8581 28.3417 23.8516 28.3941 23.8319C28.5842 23.7664 28.7088 23.5828 28.7088 23.3862V15.3438C30.2622 15.0947 31.4617 13.6659 31.4617 11.9355C31.4617 10.2051 30.2622 8.7762 28.7088 8.52713V8.52057ZM12.2111 21.6362V28.0399C12.2111 28.597 11.7588 29.0493 11.2017 29.0493H9.83832C9.28119 29.0493 8.82893 28.597 8.82893 28.0399V19.0012H12.2045V21.6427L12.2111 21.6362ZM12.2111 18.0443H7.06576C3.69674 18.0443 0.950404 15.2979 0.950404 11.9289C0.950404 8.5599 3.69674 5.81356 7.06576 5.81356H12.2111V18.0443ZM14.4527 22.1146C14.6624 22.1146 14.8525 22.2457 14.9312 22.4424L15.7374 24.507C15.8029 24.6709 15.7833 24.8413 15.6849 24.9855C15.5866 25.1297 15.4359 25.2084 15.2589 25.2084H13.168V22.1146H14.4527ZM27.7518 22.2719C26.0673 20.8693 21.6954 18.1426 13.1615 18.0443V5.81356C21.6954 5.71524 26.0607 2.98857 27.7518 1.5859V22.2719ZM28.7022 14.3606V9.48409C29.7313 9.7266 30.5047 10.7229 30.5047 11.9224C30.5047 13.1218 29.7313 14.1116 28.7022 14.3541V14.3606Z" fill="#222222"/>
<path d="M6.40377 8.35645C6.14159 8.35645 5.92529 8.57274 5.92529 8.83492V15.0289C5.92529 15.2911 6.14159 15.5074 6.40377 15.5074C6.66595 15.5074 6.88225 15.2911 6.88225 15.0289V8.83492C6.88225 8.57274 6.66595 8.35645 6.40377 8.35645Z" fill="#222222"/>
<path d="M9.50399 15.5074C9.76617 15.5074 9.98247 15.2911 9.98247 15.0289V8.83492C9.98247 8.57274 9.76617 8.35645 9.50399 8.35645C9.24181 8.35645 9.02551 8.57274 9.02551 8.83492V15.0289C9.02551 15.2911 9.24181 15.5074 9.50399 15.5074Z" fill="#222222"/>
</g>
<defs>
<clipPath id="clip0_313_14636">
<rect width="31.4617" height="30" fill="white"/>
</clipPath>
</defs>
</svg>
