<svg width="48" height="48" viewBox="0 0 48 48" fill="none" xmlns="http://www.w3.org/2000/svg">
<rect width="48" height="48" rx="4" fill="black"/>
<path d="M27.6241 14.9334C28.3854 14.0135 28.9247 12.7605 28.9247 11.4917C28.9247 11.3172 28.9088 11.1427 28.8771 11C27.64 11.0476 26.1491 11.8247 25.2609 12.8715C24.563 13.6646 23.9128 14.9334 23.9128 16.2022C23.9128 16.3925 23.9445 16.5829 23.9603 16.6463C24.0397 16.6622 24.1665 16.678 24.2934 16.678C25.4036 16.678 26.7994 15.9326 27.6241 14.9334ZM28.4964 16.9477C26.6408 16.9477 25.134 18.0738 24.1665 18.0738C23.1356 18.0738 21.7875 17.0111 20.1697 17.0111C17.1086 17.0111 14 19.5488 14 24.3228C14 27.3045 15.142 30.4449 16.5694 32.475C17.7906 34.1879 18.8533 35.5995 20.3918 35.5995C21.9144 35.5995 22.5805 34.5845 24.4679 34.5845C26.387 34.5845 26.8152 35.5678 28.4964 35.5678C30.1618 35.5678 31.272 34.0452 32.3188 32.5385C33.4925 30.8097 33.9841 29.1285 34 29.0492C33.9048 29.0174 30.7169 27.7169 30.7169 24.069C30.7169 20.9128 33.2228 19.5012 33.3656 19.3902C31.7161 17.0111 29.1943 16.9477 28.4964 16.9477Z" fill="white"/>
</svg>
